SplineFontDB: 3.2
FontName: APL386
FullName: APL386 Unicode
FamilyName: APL386 Unicode
Weight: Book
Copyright: Public Domain
Version: Aug-01 2019
ItalicAngle: 0
UnderlinePosition: -162
UnderlineWidth: 85
Ascent: 800
Descent: 200
InvalidEm: 0
sfntRevision: 0x0002002a
LayerCount: 2
Layer: 0 1 "Back" 1
Layer: 1 1 "Fore" 0
XUID: [1021 139 -1233718897 19075]
StyleMap: 0x0040
FSType: 0
OS2Version: 1
OS2_WeightWidthSlopeOnly: 0
OS2_UseTypoMetrics: 0
CreationTime: 1366486900
ModificationTime: 1703585631
PfmFamily: 17
TTFWeight: 400
TTFWidth: 5
LineGap: 0
VLineGap: 0
Panose: 2 11 7 9 0 2 2 0 2 3
OS2TypoAscent: 910
OS2TypoAOffset: 0
OS2TypoDescent: -235
OS2TypoDOffset: 0
OS2TypoLinegap: 0
OS2WinAscent: 910
OS2WinAOffset: 0
OS2WinDescent: 231
OS2WinDOffset: 0
HheadAscent: 910
HheadAOffset: 0
HheadDescent: -231
HheadDOffset: 0
OS2SubXSize: 700
OS2SubYSize: 650
OS2SubXOff: 0
OS2SubYOff: 143
OS2SupXSize: 700
OS2SupYSize: 650
OS2SupXOff: 0
OS2SupYOff: 453
OS2StrikeYSize: 50
OS2StrikeYPos: 259
OS2FamilyClass: 2057
OS2Vendor: 'acds'
OS2CodePages: 00000001.00000000
OS2UnicodeRanges: 800002c7.00005ce1.00000000.00000000
MarkAttachClasses: 1
DEI: 91125
TtTable: prep
PUSHW_4
 0
 6
 2
 0
CALL
CALL
PUSHW_6
 3
 52
 40
 28
 17
 8
CALL
PUSHW_6
 4
 42
 33
 24
 14
 8
CALL
PUSHW_6
 5
 30
 24
 17
 10
 8
CALL
PUSHW_6
 0
 52
 40
 28
 17
 8
CALL
PUSHW_6
 1
 42
 33
 24
 14
 8
CALL
PUSHW_6
 2
 30
 24
 17
 10
 8
CALL
PUSHW_3
 6
 5
 7
CALL
EndTTInstrs
TtTable: fpgm
PUSHW_1
 0
FDEF
MPPEM
PUSHW_1
 9
LT
IF
PUSHB_2
 1
 1
INSTCTRL
EIF
PUSHW_1
 511
SCANCTRL
PUSHW_1
 132
SCVTCI
PUSHW_2
 9
 3
SDS
SDB
ENDF
PUSHW_1
 1
FDEF
DUP
DUP
RCVT
ROUND[Black]
WCVTP
PUSHB_1
 1
ADD
ENDF
PUSHW_1
 2
FDEF
PUSHW_1
 1
LOOPCALL
POP
ENDF
PUSHW_1
 3
FDEF
DUP
GC[cur]
PUSHB_1
 3
CINDEX
GC[cur]
GT
IF
SWAP
EIF
DUP
ROLL
DUP
ROLL
MD[grid]
ABS
ROLL
DUP
GC[cur]
DUP
ROUND[Grey]
SUB
ABS
PUSHB_1
 4
CINDEX
GC[cur]
DUP
ROUND[Grey]
SUB
ABS
GT
IF
SWAP
NEG
ROLL
EIF
MDAP[rnd]
DUP
PUSHB_1
 0
GTEQ
IF
ROUND[Black]
DUP
PUSHB_1
 0
EQ
IF
POP
PUSHB_1
 64

StartChar: .notdef
Encoding: 65536 -1 0
Width: 600
Flags: W
LayerCount: 2
Fore
SplineSet
127 483 m 1,0,-1
 127 170 l 1,1,-1
 466 170 l 1,2,-1
 466 483 l 1,3,-1
 127 483 l 1,0,-1
EndSplineSet
EndChar

StartChar: periodcentered
Encoding: 183 183 4
Width: 600
Flags: W
LayerCount: 2
Fore
SplineSet
250 315 m 4,0,1
 250 294 250 294 265 280 c 132,-1,2
 280 266 280 266 300 266 c 4,3,4
 321 266 321 266 335.5 280 c 132,-1,5
 350 294 350 294 350 315 c 4,6,7
 350 335 350 335 335.5 349.5 c 132,-1,8
 321 364 321 364 300 364 c 4,9,10
 280 364 280 364 265 349.5 c 132,-1,11
 250 335 250 335 250 315 c 4,0,1
EndSplineSet
EndChar

StartChar: A
Encoding: 65 65 5
Width: 600
Flags: W
LayerCount: 2
Fore
SplineSet
516 47 m 0,0,1
 406 449 406 449 341 636 c 0,2,3
 326 681 326 681 304 681 c 256,4,5
 282 681 282 681 266 636 c 2,6,-1
 74 38 l 2,7,8
 60 -6 60 -6 116 -5 c 0,9,10
 155 -7 155 -7 166 45 c 1,11,-1
 214 192 l 1,12,-1
 382 192 l 1,13,-1
 432 30 l 2,14,15
 444 -4 444 -4 481 -4 c 0,16,17
 533 -4 533 -4 516 47 c 0,0,1
360 279 m 1,18,-1
 244 279 l 1,19,-1
 304 490 l 1,20,-1
 360 279 l 1,18,-1
EndSplineSet
EndChar

StartChar: B
Encoding: 66 66 6
Width: 600
Flags: W
LayerCount: 2
Fore
SplineSet
495 206 m 2,0,1
 495 237 495 237 488 259.5 c 128,-1,2
 481 282 481 282 467 299.5 c 128,-1,3
 453 317 453 317 432 330.5 c 128,-1,4
 411 344 411 344 382 358 c 1,5,6
 464 413 464 413 464 498 c 0,7,8
 464 540 464 540 430 586 c 0,9,10
 388 645 388 645 324 661 c 0,11,12
 282 672 282 672 192 672 c 0,13,14
 159 672 159 672 134 658 c 0,15,16
 120 650 120 650 112.5 633.5 c 128,-1,17
 105 617 105 617 105 601 c 2,18,-1
 105 87 l 2,19,20
 105 31 105 31 157 10 c 0,21,22
 190 -3 190 -3 258 -3 c 0,23,24
 313 -3 313 -3 355 4.5 c 128,-1,25
 397 12 397 12 424 29 c 0,26,27
 454 48 454 48 474.5 81.5 c 128,-1,28
 495 115 495 115 495 167 c 2,29,-1
 495 206 l 2,0,1
379 494 m 0,30,31
 379 453 379 453 335 424 c 0,32,33
 295 401 295 401 251 401 c 0,34,35
 240 401 240 401 226 400.5 c 128,-1,36
 212 400 212 400 192 401 c 1,37,-1
 192 585 l 1,38,-1
 247 585 l 2,39,40
 275 585 275 585 291 580.5 c 128,-1,41
 307 576 307 576 327 567 c 0,42,43
 379 545 379 545 379 494 c 0,30,31
408 180 m 2,44,45
 408 160 408 160 396 141.5 c 128,-1,46
 384 123 384 123 364 108 c 0,47,48
 346 94 346 94 323 89.5 c 128,-1,49
 300 85 300 85 282 85 c 0,50,51
 257 85 257 85 232.5 85 c 128,-1,52
 208 85 208 85 192 85 c 1,53,-1
 192 316 l 1,54,55
 230 310 230 310 253 312 c 128,-1,56
 276 314 276 314 285 313 c 0,57,58
 339 306 339 306 369 273 c 0,59,60
 386 253 386 253 397 230 c 128,-1,61
 408 207 408 207 408 188 c 2,62,-1
 408 180 l 2,44,45
EndSplineSet
EndChar

StartChar: C
Encoding: 67 67 7
Width: 600
Flags: W
LayerCount: 2
Fore
SplineSet
543 507 m 0,0,1
 543 520 543 520 539 531 c 0,2,3
 513 610 513 610 465 642 c 0,4,5
 425 673 425 673 330 673 c 0,6,7
 222 673 222 673 145 572 c 0,8,9
 74 480 74 480 72 366 c 0,10,11
 71 176 71 176 140.5 86 c 128,-1,12
 210 -4 210 -4 353 -4 c 0,13,14
 419 -4 419 -4 474 36 c 1,15,16
 529 83 529 83 548 165 c 1,17,18
 548 208 548 208 504 208 c 0,19,20
 492 208 492 208 465 176 c 1,21,22
 439 114 439 114 418 98.5 c 128,-1,23
 397 83 397 83 357 83 c 0,24,25
 240 83 240 83 195 160 c 0,26,27
 160 221 160 221 160 354 c 0,28,29
 162 436 162 436 207 505 c 0,30,31
 261 585 261 585 337 585 c 0,32,33
 399 585 399 585 430 548 c 0,34,35
 449 526 449 526 468 479 c 0,36,37
 484 443 484 443 495 443 c 0,38,39
 543 443 543 443 543 507 c 0,0,1
EndSplineSet
EndChar

StartChar: D
Encoding: 68 68 8
Width: 600
Flags: W
LayerCount: 2
Fore
SplineSet
543 330 m 1,0,1
 531 669 531 669 154 669 c 0,2,3
 68 669 68 669 68 586 c 2,4,-1
 68 86 l 2,5,6
 68 39 68 39 92 18 c 0,7,8
 114 -1 114 -1 155 -1 c 2,9,-1
 277 -1 l 2,10,11
 345 0 345 0 394 25 c 0,12,13
 473 72 473 72 517 158 c 1,14,15
 536 219 536 219 543 330 c 1,0,1
454 313 m 0,16,17
 454 88 454 88 262 86 c 2,18,-1
 155 86 l 1,19,-1
 155 583 l 1,20,21
 299 583 299 583 375 519 c 1,22,23
 457 470 457 470 454 313 c 0,16,17
EndSplineSet
EndChar

StartChar: E
Encoding: 69 69 9
Width: 600
Flags: W
LayerCount: 2
Fore
SplineSet
444 0 m 2,0,1
 484 0 484 0 484 44 c 0,2,3
 484 65 484 65 444 87 c 1,4,-1
 202 87 l 1,5,-1
 202 308 l 1,6,-1
 354 308 l 2,7,8
 374 308 374 308 384 316.5 c 128,-1,9
 394 325 394 325 394 349 c 0,10,11
 394 395 394 395 358 395 c 2,12,-1
 202 395 l 1,13,-1
 202 584 l 1,14,-1
 442 584 l 2,15,16
 480 584 480 584 480 627 c 0,17,18
 480 671 480 671 441 671 c 2,19,-1
 200 670 l 2,20,21
 157 669 157 669 136 647 c 128,-1,22
 115 625 115 625 115 584 c 2,23,-1
 115 87 l 2,24,25
 115 48 115 48 138.5 24 c 128,-1,26
 162 0 162 0 201 0 c 2,27,-1
 444 0 l 2,0,1
EndSplineSet
EndChar

StartChar: F
Encoding: 70 70 10
Width: 600
Flags: W
LayerCount: 2
Fore
SplineSet
204 583 m 1,0,-1
 435 583 l 2,1,2
 482 583 482 583 482 625 c 0,3,4
 482 644 482 644 468.5 657 c 128,-1,5
 455 670 455 670 435 670 c 2,6,-1
 201 670 l 2,7,8
 117 670 117 670 117 583 c 2,9,-1
 117 29 l 2,10,11
 117 12 117 12 127.5 -2.5 c 128,-1,12
 138 -17 138 -17 158 -17 c 0,13,14
 179 -17 179 -17 191.5 -8 c 128,-1,15
 204 1 204 1 204 27 c 0,16,17
 204 29 204 29 205 102 c 128,-1,18
 206 175 206 175 204 313 c 1,19,-1
 355 313 l 2,20,21
 397 314 397 314 397 354 c 0,22,23
 397 373 397 373 385 387 c 128,-1,24
 373 401 373 401 355 400 c 2,25,-1
 204 400 l 1,26,-1
 204 583 l 1,0,-1
EndSplineSet
EndChar

StartChar: G
Encoding: 71 71 11
Width: 600
Flags: W
LayerCount: 2
Fore
SplineSet
308 676 m 0,0,1
 257 676 257 676 203.5 646 c 128,-1,2
 150 616 150 616 120 567 c 0,3,4
 91 521 91 521 76 453.5 c 128,-1,5
 61 386 61 386 61 325 c 0,6,7
 61 259 61 259 82.5 192 c 128,-1,8
 104 125 104 125 139 82 c 0,9,10
 219 -4 219 -4 330 -4 c 0,11,12
 356 -3 356 -3 376 -1.5 c 128,-1,13
 396 0 396 0 418.5 5.5 c 128,-1,14
 441 11 441 11 465 27 c 0,15,16
 494 44 494 44 505 61.5 c 128,-1,17
 516 79 516 79 527 106 c 0,18,19
 532 114 532 114 536 138.5 c 128,-1,20
 540 163 540 163 542 207 c 0,21,22
 543 253 543 253 540 270 c 0,23,24
 534 300 534 300 515 300 c 2,25,-1
 357 300 l 2,26,27
 342 300 342 300 338 288.5 c 128,-1,28
 334 277 334 277 334 255 c 0,29,30
 338 213 338 213 357 213 c 2,31,-1
 456 213 l 1,32,33
 457 208 457 208 457 192 c 128,-1,34
 457 176 457 176 447.5 149.5 c 128,-1,35
 438 123 438 123 418 110 c 0,36,37
 393 92 393 92 376 89 c 128,-1,38
 359 86 359 86 353 85.5 c 128,-1,39
 347 85 347 85 341 85 c 0,40,41
 293 85 293 85 247 114 c 0,42,43
 195 147 195 147 173.5 214.5 c 128,-1,44
 152 282 152 282 152 332 c 0,45,46
 152 443 152 443 197 524 c 0,47,48
 208 540 208 540 224 552.5 c 128,-1,49
 240 565 240 565 258 573.5 c 128,-1,50
 276 582 276 582 294 586.5 c 128,-1,51
 312 591 312 591 331 591 c 0,52,53
 344 591 344 591 360.5 586 c 128,-1,54
 377 581 377 581 396 571 c 128,-1,55
 415 561 415 561 427.5 550.5 c 128,-1,56
 440 540 440 540 446 534 c 128,-1,57
 452 528 452 528 462 518 c 128,-1,58
 472 508 472 508 487 508 c 0,59,60
 521 512 521 512 532 548 c 1,61,62
 532 569 532 569 520 582.5 c 128,-1,63
 508 596 508 596 498.5 606 c 128,-1,64
 489 616 489 616 481 624 c 0,65,66
 427 676 427 676 308 676 c 0,0,1
EndSplineSet
EndChar

StartChar: H
Encoding: 72 72 12
Width: 600
Flags: W
VStem: 103 87<4.40796 37 631 666.199> 410 87<5.43994 43 631 663.623>
LayerCount: 2
Fore
SplineSet
497 43 m 2,0,-1
 497 631 l 2,1,2
 497 652 497 652 483.5 664 c 128,-1,3
 470 676 470 676 455 676 c 0,4,5
 434 676 434 676 422 666.5 c 128,-1,6
 410 657 410 657 410 631 c 2,7,-1
 410 364 l 1,8,-1
 190 364 l 1,9,-1
 190 631 l 2,10,11
 190 657 190 657 175.5 666.5 c 128,-1,12
 161 676 161 676 145 676 c 0,13,14
 125 676 125 676 114 666.5 c 128,-1,15
 103 657 103 657 103 631 c 2,16,-1
 103 37 l 2,17,18
 103 17 103 17 115 4 c 128,-1,19
 127 -9 127 -9 147 -9 c 0,20,21
 168 -9 168 -9 179 1.5 c 128,-1,22
 190 12 190 12 190 37 c 2,23,-1
 190 277 l 1,24,-1
 410 277 l 1,25,-1
 410 43 l 2,26,27
 410 19 410 19 421 5 c 128,-1,28
 432 -9 432 -9 454 -9 c 0,29,30
 496 -9 496 -9 497 43 c 2,0,-1
EndSplineSet
EndChar

StartChar: I
Encoding: 73 73 13
Width: 600
Flags: W
HStem: 0 87<118.276 148 452 477.717> 583 87<119.5 152 455 482.356>
LayerCount: 2
Fore
SplineSet
486 42 m 0,0,1
 486 58 486 58 478 72 c 0,2,3
 469 87 469 87 453 87 c 2,4,-1
 340 87 l 1,5,-1
 340 583 l 1,6,-1
 455 583 l 2,7,8
 485 583 485 583 485 626 c 0,9,10
 485 670 485 670 455 670 c 2,11,-1
 139 670 l 2,12,13
 113 670 113 670 113 630 c 0,14,15
 113 612 113 612 124 597.5 c 128,-1,16
 135 583 135 583 152 583 c 2,17,-1
 255 583 l 1,18,-1
 255 87 l 1,19,-1
 148 87 l 2,20,21
 132 87 132 87 122 72 c 0,22,23
 113 58 113 58 113 42 c 0,24,25
 113 0 113 0 142 0 c 2,26,-1
 452 0 l 2,27,28
 486 0 486 0 486 42 c 0,0,1
EndSplineSet
EndChar

StartChar: J
Encoding: 74 74 14
Width: 600
Flags: W
LayerCount: 2
Fore
SplineSet
528 622 m 0,0,1
 528 641 528 641 517 655.5 c 128,-1,2
 506 670 506 670 488 670 c 2,3,-1
 213 670 l 2,4,5
 197 670 197 670 184 656.5 c 128,-1,6
 171 643 171 643 171 627 c 0,7,8
 171 585 171 585 203 585 c 2,9,-1
 336 584 l 1,10,-1
 336 199 l 2,11,12
 336 143 336 143 326 117 c 0,13,14
 309 75 309 75 263 75 c 1,15,16
 234 71 234 71 204 80 c 128,-1,17
 174 89 174 89 150 138 c 1,18,19
 133 203 133 203 106 203 c 0,20,21
 72 203 72 203 72 150 c 0,22,23
 72 82 72 82 126 29 c 1,24,25
 186 -8 186 -8 256 -6 c 0,26,27
 359 -8 359 -8 397 54 c 0,28,29
 422 98 422 98 422 216 c 2,30,-1
 422 584 l 2,31,32
 425 584 425 584 431 583.5 c 128,-1,33
 437 583 437 583 444.5 582.5 c 128,-1,34
 452 582 452 582 459 581.5 c 128,-1,35
 466 581 466 581 471 581 c 0,36,37
 528 581 528 581 528 622 c 0,0,1
EndSplineSet
EndChar

StartChar: K
Encoding: 75 75 15
Width: 600
Flags: W
LayerCount: 2
Fore
SplineSet
509 22 m 1,0,1
 509 48 509 48 308 352 c 1,2,3
 467 579 467 579 475 603 c 1,4,5
 465 676 465 676 441 674 c 0,6,7
 404 674 404 674 383 636 c 0,8,9
 294 486 294 486 292 484 c 0,10,11
 200 368 200 368 171 338 c 1,12,-1
 171 642 l 2,13,14
 171 650 171 650 168.5 658 c 128,-1,15
 166 666 166 666 155.5 673.5 c 128,-1,16
 145 681 145 681 127 681 c 0,17,18
 110 681 110 681 97 670.5 c 128,-1,19
 84 660 84 660 84 644 c 2,20,-1
 84 25 l 2,21,22
 84 10 84 10 96.5 -0.5 c 128,-1,23
 109 -11 109 -11 127 -11 c 0,24,25
 144 -11 144 -11 157.5 -0.5 c 128,-1,26
 171 10 171 10 171 26 c 2,27,-1
 171 219 l 1,28,-1
 239 289 l 1,29,-1
 392 36 l 2,30,31
 423 -11 423 -11 453 -11 c 0,32,33
 498 -11 498 -11 509 22 c 1,0,1
EndSplineSet
EndChar

StartChar: L
Encoding: 76 76 16
Width: 600
Flags: W
HStem: 0 87<436 477.528>
VStem: 108 87<87.5115 668.716>
LayerCount: 2
Fore
SplineSet
195 634 m 2,0,1
 195 676 195 676 153 675 c 0,2,3
 137 675 137 675 122.5 664 c 128,-1,4
 108 653 108 653 108 634 c 2,5,-1
 108 92 l 2,6,7
 108 63 108 63 111 41 c 0,8,9
 115 4 115 4 148 1 c 0,10,11
 153 0 153 0 164 0 c 0,12,13
 176 0 176 0 195 0 c 2,14,-1
 436 0 l 2,15,16
 463 0 463 0 478 12 c 0,17,18
 492 26 492 26 492 42 c 256,19,20
 492 58 492 58 479 71 c 0,21,22
 464 87 464 87 436 87 c 2,23,-1
 195 87 l 1,24,-1
 195 634 l 2,0,1
EndSplineSet
EndChar

StartChar: M
Encoding: 77 77 17
Width: 600
Flags: W
LayerCount: 2
Fore
SplineSet
548 18 m 2,0,-1
 548 644 l 2,1,2
 548 679 548 679 518 679 c 0,3,4
 483 679 483 679 464 640 c 1,5,-1
 298 375 l 1,6,7
 120 662 120 662 118 664 c 0,8,9
 107 679 107 679 90 679 c 256,10,11
 73 679 73 679 62.5 661 c 128,-1,12
 52 643 52 643 52 608 c 2,13,-1
 52 26 l 2,14,15
 52 -12 52 -12 93 -12 c 0,16,17
 109 -12 109 -12 123.5 2.5 c 128,-1,18
 138 17 138 17 138 31 c 2,19,-1
 138 470 l 1,20,-1
 301 225 l 1,21,-1
 468 472 l 1,22,-1
 468 25 l 2,23,24
 467 8 467 8 481 -1 c 0,25,26
 491 -10 491 -10 507 -10 c 0,27,28
 548 -10 548 -10 548 18 c 2,0,-1
EndSplineSet
EndChar

StartChar: N
Encoding: 78 78 18
Width: 600
Flags: W
LayerCount: 2
Fore
SplineSet
516 37 m 1,0,-1
 516 634 l 2,1,2
 516 679 516 679 476 679 c 0,3,4
 458 679 458 679 443.5 665.5 c 128,-1,5
 429 652 429 652 429 634 c 2,6,-1
 429 232 l 1,7,-1
 241 598 l 2,8,9
 199 673 199 673 165 672 c 0,10,11
 131 673 131 673 109 666 c 0,12,13
 95 659 95 659 89 643.5 c 128,-1,14
 83 628 83 628 83 611 c 2,15,-1
 83 23 l 2,16,17
 83 8 83 8 97 -2 c 128,-1,18
 111 -12 111 -12 127 -12 c 0,19,20
 170 -12 170 -12 170 28 c 2,21,-1
 170 537 l 1,22,-1
 426 39 l 2,23,24
 456 -14 456 -14 485 -14 c 0,25,26
 516 -14 516 -14 516 41 c 2,27,-1
 516 37 l 1,0,-1
EndSplineSet
EndChar

StartChar: O
Encoding: 79 79 19
Width: 600
Flags: W
LayerCount: 2
Fore
SplineSet
560 335 m 0,0,1
 560 472 560 472 504 566 c 0,2,3
 436 677 436 677 307 677 c 256,4,5
 178 677 178 677 104 576 c 0,6,7
 39 487 39 487 39 352 c 0,8,9
 39 202 39 202 92 110 c 0,10,11
 158 -3 158 -3 297 -3 c 0,12,13
 560 -3 560 -3 560 335 c 0,0,1
473 338 m 0,14,15
 473 231 473 231 440 167 c 0,16,17
 397 79 397 79 302 79 c 0,18,19
 120 79 120 79 120 330 c 0,20,21
 120 593 120 593 307 593 c 0,22,23
 394 593 394 593 438 504 c 0,24,25
 473 434 473 434 473 338 c 0,14,15
EndSplineSet
EndChar

StartChar: P
Encoding: 80 80 20
Width: 600
Flags: W
LayerCount: 2
Fore
SplineSet
493 531.5 m 4,0,1
 480 574 480 574 448 606 c 128,-1,2
 416 638 416 638 373.5 654.5 c 128,-1,3
 331 671 331 671 283 671 c 2,4,-1
 149 671 l 2,5,6
 118 671 118 671 104 662 c 0,7,8
 88 651 88 651 88 614 c 2,9,-1
 88 28 l 2,10,11
 88 10 88 10 101 -2 c 128,-1,12
 114 -14 114 -14 132 -14 c 0,13,14
 175 -14 175 -14 175 28 c 2,15,-1
 175 236 l 1,16,17
 205 229 205 229 239 232 c 128,-1,18
 273 235 273 235 303 236 c 0,19,20
 345 237 345 237 368.5 236.5 c 128,-1,21
 392 236 392 236 408 244 c 0,22,23
 460 269 460 269 487 330 c 0,24,25
 527.676886792 418.133254717 527.676886792 418.133254717 493 531.5 c 4,0,1
419 441 m 2,26,27
 419 395 419 395 399 363 c 0,28,29
 387 344 387 344 367 333.5 c 128,-1,30
 347 323 347 323 325 323 c 2,31,-1
 175 323 l 1,32,-1
 175 544 l 2,33,34
 175 561 175 561 185 572.5 c 128,-1,35
 195 584 195 584 212 584 c 0,36,37
 317 584 317 584 359 564 c 0,38,39
 419 535 419 535 419 440 c 2,40,-1
 419 441 l 2,26,27
EndSplineSet
EndChar

StartChar: Q
Encoding: 81 81 21
Width: 600
Flags: W
LayerCount: 2
Fore
SplineSet
564 19 m 0,0,1
 564 33 564 33 552.5 46 c 128,-1,2
 541 59 541 59 527 59 c 0,3,4
 507 59 507 59 494 29 c 0,5,6
 480 0 480 0 460 0 c 0,7,8
 419 0 419 0 401 44 c 1,9,10
 409 52 409 52 430 66 c 0,11,12
 443 75 443 75 458 95 c 0,13,14
 535 210 535 210 535 351 c 0,15,16
 535 487 535 487 475 574 c 0,17,18
 406 673 406 673 276 673 c 0,19,20
 151 673 151 673 86 548 c 0,21,22
 36 450 36 450 36 311 c 0,23,24
 36 219 36 219 67 139 c 0,25,26
 107 38 107 38 178 13 c 0,27,28
 218 0 218 0 292 0 c 0,29,30
 307 0 307 0 322 6 c 1,31,32
 344 -28 344 -28 378 -56 c 0,33,34
 418 -88 418 -88 452 -88 c 0,35,36
 494 -88 494 -88 529 -55 c 128,-1,37
 564 -22 564 -22 564 19 c 0,0,1
450 364 m 0,38,39
 450 199 450 199 358 122 c 1,40,41
 353 133 353 133 345 144.5 c 128,-1,42
 337 156 337 156 327 170 c 0,43,44
 301 205 301 205 289 205 c 0,45,46
 284 205 284 205 277 201 c 128,-1,47
 270 197 270 197 264 191.5 c 128,-1,48
 258 186 258 186 253.5 180 c 128,-1,49
 249 174 249 174 249 169 c 0,50,51
 249 151 249 151 264 126 c 0,52,53
 287 86 287 86 287 86 c 1,54,55
 267 83 267 83 249 83 c 0,56,57
 180 83 180 83 145 181 c 0,58,59
 120 252 120 252 120 338 c 0,60,61
 120 429 120 429 154 498 c 0,62,63
 198 587 198 587 278 587 c 0,64,65
 364 587 364 587 411 516 c 0,66,67
 450 454 450 454 450 364 c 0,38,39
EndSplineSet
EndChar

StartChar: R
Encoding: 82 82 22
Width: 600
Flags: W
LayerCount: 2
Fore
SplineSet
453 483 m 0,0,1
 453 608 453 608 383 645 c 0,2,3
 360 657 360 657 317 663 c 128,-1,4
 274 669 274 669 203 669 c 0,5,6
 146 669 146 669 115 654.5 c 128,-1,7
 84 640 84 640 84 620 c 2,8,-1
 84 31 l 2,9,10
 84 -5 84 -5 128 -5 c 0,11,12
 171 -5 171 -5 171 31 c 2,13,-1
 171 296 l 1,14,-1
 241 296 l 1,15,16
 244 292 244 292 250 288 c 128,-1,17
 256 284 256 284 261 280 c 0,18,19
 295 247 295 247 318 185 c 0,20,21
 348 102 348 102 379 65 c 128,-1,22
 410 28 410 28 451.5 9.5 c 128,-1,23
 493 -9 493 -9 502 -9 c 0,24,25
 519 -9 519 -9 532 3 c 128,-1,26
 545 15 545 15 545 31 c 0,27,28
 545 55 545 55 521 73 c 1,29,30
 476 96 476 96 446.5 131.5 c 128,-1,31
 417 167 417 167 401 220 c 1,32,33
 384 249 384 249 377 263.5 c 128,-1,34
 370 278 370 278 349 308 c 1,35,36
 399 322 399 322 427 379 c 0,37,38
 453 431 453 431 453 483 c 0,0,1
370 487 m 0,39,40
 370 432 370 432 336 402 c 1,41,42
 295 386 295 386 253 386 c 0,43,44
 229 386 229 386 223 386 c 128,-1,45
 217 386 217 386 208 386 c 128,-1,46
 199 386 199 386 185 386 c 128,-1,47
 171 386 171 386 171 386 c 1,48,-1
 171 582 l 1,49,50
 234 584 234 584 269 583 c 128,-1,51
 304 582 304 582 305 582 c 0,52,53
 323 582 323 582 333 575.5 c 128,-1,54
 343 569 343 569 353 553 c 0,55,56
 370 525 370 525 370 487 c 0,39,40
EndSplineSet
EndChar

StartChar: S
Encoding: 83 83 23
Width: 600
Flags: W
LayerCount: 2
Fore
SplineSet
500 183 m 0,0,1
 500 283 500 283 424 331 c 1,2,3
 389 346 389 346 353.5 361 c 128,-1,4
 318 376 318 376 283 392 c 0,5,6
 207 429 207 429 207 504 c 0,7,8
 207 541 207 541 233 565 c 128,-1,9
 259 589 259 589 297 589 c 0,10,11
 336 589 336 589 376 567 c 128,-1,12
 416 545 416 545 421 545 c 2,13,14
 421 545 421 545 424 545.5 c 128,-1,15
 427 546 427 546 432 548 c 0,16,17
 449 563 449 563 449 585 c 0,18,19
 449 633 449 633 387 657 c 0,20,21
 340 675 340 675 283 675 c 0,22,23
 210 675 210 675 162 618 c 0,24,25
 117 564 117 564 117 490 c 0,26,27
 117 398 117 398 194 345 c 1,28,29
 230 328 230 328 266 311.5 c 128,-1,30
 302 295 302 295 337 278 c 0,31,32
 414 240 414 240 414 184 c 0,33,34
 414 134 414 134 376 105 c 0,35,36
 342 79 342 79 291 79 c 0,37,38
 241 79 241 79 191 110 c 128,-1,39
 141 141 141 141 144 141 c 1,40,41
 126 141 126 141 112.5 127.5 c 128,-1,42
 99 114 99 114 99 96 c 0,43,44
 99 50 99 50 179 18 c 0,45,46
 245 -8 245 -8 299 -8 c 0,47,48
 388 -8 388 -8 443 42 c 0,49,50
 500 94 500 94 500 183 c 0,0,1
EndSplineSet
EndChar

StartChar: T
Encoding: 84 84 24
Width: 600
Flags: W
HStem: 583 87<71.2292 100 493 522.139>
LayerCount: 2
Fore
SplineSet
534 625 m 0,0,1
 534 643 534 643 522.5 656.5 c 128,-1,2
 511 670 511 670 493 670 c 2,3,-1
 100 670 l 2,4,5
 85 670 85 670 75 655 c 128,-1,6
 65 640 65 640 65 625 c 0,7,8
 65 583 65 583 100 583 c 2,9,-1
 257 583 l 1,10,-1
 257 16 l 2,11,12
 257 3 257 3 266 -1 c 128,-1,13
 275 -5 275 -5 297 -5 c 256,14,15
 319 -5 319 -5 331.5 -1 c 128,-1,16
 344 3 344 3 344 16 c 2,17,-1
 342 583 l 1,18,-1
 493 583 l 2,19,20
 534 583 534 583 534 625 c 0,0,1
EndSplineSet
EndChar

StartChar: U
Encoding: 85 85 25
Width: 600
Flags: W
LayerCount: 2
Fore
SplineSet
298 -2 m 0,0,1
 514 -2 514 -2 514 185 c 2,2,-1
 514 634 l 2,3,4
 514 653 514 653 499 665 c 128,-1,5
 484 677 484 677 464 677 c 0,6,7
 449 677 449 677 438 661.5 c 128,-1,8
 427 646 427 646 427 631 c 2,9,-1
 427 213 l 2,10,11
 427 131 427 131 394.5 105 c 128,-1,12
 362 79 362 79 297 79 c 0,13,14
 238 79 238 79 205.5 111 c 128,-1,15
 173 143 173 143 173 213 c 2,16,-1
 173 637 l 2,17,18
 173 678 173 678 134 678 c 0,19,20
 123 678 123 678 114 679 c 128,-1,21
 105 680 105 680 99 677 c 128,-1,22
 93 674 93 674 89.5 665 c 128,-1,23
 86 656 86 656 86 637 c 2,24,-1
 86 185 l 2,25,26
 86 122 86 122 129.5 60 c 128,-1,27
 173 -2 173 -2 298 -2 c 0,0,1
EndSplineSet
EndChar

StartChar: V
Encoding: 86 86 26
Width: 600
Flags: W
LayerCount: 2
Fore
SplineSet
538 648 m 1,0,1
 527 680 527 680 493 680 c 0,2,3
 453 680 453 680 424 602 c 2,4,-1
 298 234 l 1,5,-1
 174 605 l 2,6,7
 151 677 151 677 112 677 c 0,8,9
 76 677 76 677 61 644 c 1,10,11
 61 615 61 615 147 352 c 0,12,13
 220 131 220 131 255 34 c 0,14,15
 271 -11 271 -11 298 -11 c 0,16,17
 326 -11 326 -11 342 32 c 0,18,19
 353 60 353 60 379.5 140 c 128,-1,20
 406 220 406 220 449 354 c 0,21,22
 538 633 538 633 538 648 c 1,0,1
EndSplineSet
EndChar

StartChar: W
Encoding: 87 87 27
Width: 600
Flags: W
LayerCount: 2
Fore
SplineSet
567 648 m 0,0,1
 567 678 567 678 538 678 c 0,2,3
 509 679 509 679 488.5 671 c 128,-1,4
 468 663 468 663 461 635 c 2,5,-1
 381 243 l 1,6,-1
 306 374 l 1,7,8
 218 247 218 247 216 244 c 2,9,-1
 145 629 l 1,10,11
 134 664 134 664 110.5 672 c 128,-1,12
 87 680 87 680 70 680 c 0,13,14
 55 680 55 680 43.5 670 c 128,-1,15
 32 660 32 660 32 645 c 2,16,-1
 136 21 l 2,17,18
 140 -9 140 -9 162 -9 c 0,19,20
 181 -9 181 -9 299 197 c 1,21,22
 401 -12 401 -12 434 -11 c 0,23,24
 444 -11 444 -11 505 293 c 0,25,26
 567 600 567 600 567 648 c 0,0,1
EndSplineSet
EndChar

StartChar: X
Encoding: 88 88 28
Width: 600
Flags: W
LayerCount: 2
Fore
SplineSet
521 18 m 256,0,1
 521 42 521 42 345 353 c 1,2,3
 509 636 509 636 509 654 c 0,4,5
 509 667 509 667 496.5 675 c 128,-1,6
 484 683 484 683 470 683 c 0,7,8
 431 683 431 683 416 653 c 2,9,-1
 305 433 l 1,10,-1
 195 660 l 2,11,12
 185 682 185 682 154 682 c 0,13,14
 140 682 140 682 122 674 c 0,15,16
 103 664 103 664 103 649 c 0,17,18
 103 638 103 638 260 354 c 1,19,20
 78 34 78 34 78 17 c 0,21,22
 78 -9 78 -9 125 -9 c 0,23,24
 145 -9 145 -9 159 0 c 1,25,-1
 304 274 l 1,26,-1
 437 14 l 2,27,28
 448 -6 448 -6 481 -6 c 0,29,30
 521 -6 521 -6 521 18 c 256,0,1
EndSplineSet
EndChar

StartChar: Y
Encoding: 89 89 29
Width: 600
Flags: W
LayerCount: 2
Fore
SplineSet
528 650 m 1,0,1
 518 678 518 678 500 678 c 0,2,3
 451 678 451 678 438 651 c 2,4,-1
 305 368 l 1,5,-1
 170 653 l 2,6,7
 159 676 159 676 116 676 c 0,8,9
 72 676 72 676 72 657 c 0,10,11
 72 645 72 645 259 272 c 1,12,-1
 257 20 l 2,13,14
 257 -12 257 -12 296 -12 c 0,15,16
 313 -12 313 -12 328 -3 c 0,17,18
 344 4 344 4 344 22 c 2,19,-1
 345 272 l 1,20,-1
 528 650 l 1,0,1
EndSplineSet
EndChar

StartChar: Z
Encoding: 90 90 30
Width: 600
Flags: W
LayerCount: 2
Fore
SplineSet
460 0 m 2,0,1
 488 0 488 0 488 42 c 0,2,3
 488 86 488 86 447 86 c 2,4,-1
 211 86 l 1,5,6
 457 576 457 576 457 612 c 0,7,8
 457 671 457 671 396 671 c 2,9,-1
 148 671 l 2,10,11
 112 671 112 671 112 634 c 0,12,13
 112 616 112 616 121 601 c 0,14,15
 132 584 132 584 148 584 c 2,16,-1
 365 584 l 1,17,-1
 125 85 l 2,18,19
 115 65 115 65 115 44 c 0,20,21
 115 0 115 0 156 0 c 2,22,-1
 460 0 l 2,0,1
EndSplineSet
EndChar

StartChar: exclam
Encoding: 33 33 31
Width: 600
Flags: W
LayerCount: 2
Fore
SplineSet
341 250 m 2,0,-1
 341 727 l 2,1,2
 341 745 341 745 328.5 756.5 c 128,-1,3
 316 768 316 768 298 768 c 0,4,5
 279 768 279 768 267 756 c 128,-1,6
 255 744 255 744 255 725 c 2,7,-1
 255 252 l 2,8,9
 255 234 255 234 268 222 c 128,-1,10
 281 210 281 210 298 210 c 0,11,12
 314 210 314 210 327.5 221 c 128,-1,13
 341 232 341 232 341 250 c 2,0,-1
385 48 m 0,14,15
 385 66 385 66 378 82 c 128,-1,16
 371 98 371 98 359.5 109.5 c 128,-1,17
 348 121 348 121 332.5 128 c 128,-1,18
 317 135 317 135 299 135 c 0,19,20
 282 135 282 135 266.5 128 c 128,-1,21
 251 121 251 121 239.5 109 c 128,-1,22
 228 97 228 97 221 81.5 c 128,-1,23
 214 66 214 66 214 48 c 0,24,25
 214 12 214 12 238.5 -13 c 128,-1,26
 263 -38 263 -38 299 -38 c 0,27,28
 337 -38 337 -38 361 -14 c 128,-1,29
 385 10 385 10 385 48 c 0,14,15
EndSplineSet
EndChar

StartChar: quotedbl
Encoding: 34 34 32
Width: 600
Flags: W
LayerCount: 2
Fore
SplineSet
423 655 m 0,0,1
 423 669 423 669 414.5 680 c 128,-1,2
 406 691 406 691 386 692 c 0,3,4
 342 689 342 689 342 620 c 2,5,-1
 342 438 l 2,6,7
 340 400 340 400 383 401 c 0,8,9
 421 400 421 400 423 437 c 2,10,-1
 423 612 l 2,11,12
 423 618 423 618 423 629 c 128,-1,13
 423 640 423 640 423 655 c 0,0,1
254 438 m 0,14,15
 254 554 254 554 254 563 c 128,-1,16
 254 572 254 572 254 582.5 c 128,-1,17
 254 593 254 593 254 611 c 0,18,19
 254 625 254 625 254 655 c 0,20,21
 257 668 257 668 244.5 680.5 c 128,-1,22
 232 693 232 693 216 693 c 0,23,24
 203 693 203 693 189.5 682.5 c 128,-1,25
 176 672 176 672 176 655 c 2,26,-1
 176 436 l 2,27,28
 176 403 176 403 218 401 c 0,29,30
 241 400 241 400 247.5 411 c 128,-1,31
 254 422 254 422 254 438 c 0,14,15
EndSplineSet
EndChar

StartChar: numbersign
Encoding: 35 35 33
Width: 600
Flags: W
LayerCount: 2
Fore
SplineSet
567 471 m 0,0,1
 567 507 567 507 515 507 c 0,2,3
 508 507 508 507 494.5 506.5 c 128,-1,4
 481 506 481 506 474 506 c 1,5,6
 503 620 503 620 503 649 c 0,7,8
 503 686 503 686 475 686 c 0,9,10
 439 686 439 686 418 611 c 0,11,12
 412 585 412 585 406 558.5 c 128,-1,13
 400 532 400 532 395 506 c 1,14,-1
 279 506 l 1,15,16
 283 523 283 523 287 540.5 c 128,-1,17
 291 558 291 558 296 575 c 0,18,19
 305 615 305 615 305 645 c 0,20,21
 305 686 305 686 272 686 c 0,22,23
 233 686 233 686 215 614 c 0,24,25
 210 587 210 587 206 560 c 128,-1,26
 202 533 202 533 197 507 c 0,27,28
 195 507 195 507 180 507.5 c 128,-1,29
 165 508 165 508 155 508 c 0,30,31
 81 508 81 508 81 472 c 0,32,33
 81 429 81 429 132 429 c 0,34,35
 140 429 140 429 156.5 430 c 128,-1,36
 173 431 173 431 180 431 c 1,37,-1
 138 250 l 1,38,39
 133 250 133 250 116.5 251 c 128,-1,40
 100 252 100 252 91 252 c 0,41,42
 33 252 33 252 33 209 c 0,43,44
 33 169 33 169 75 169 c 0,45,46
 83 169 83 169 97.5 170 c 128,-1,47
 112 171 112 171 119 171 c 1,48,49
 118 168 118 168 113.5 149.5 c 128,-1,50
 109 131 109 131 101 97 c 0,51,52
 90 50 90 50 90 22 c 0,53,54
 90 -10 90 -10 117 -10 c 0,55,56
 155 -10 155 -10 165 21 c 0,57,58
 190 84 190 84 199 171 c 1,59,-1
 321 171 l 1,60,61
 322 158 322 158 318.5 139 c 128,-1,62
 315 120 315 120 308 95 c 0,63,64
 294 44 294 44 294 21 c 0,65,66
 294 -19 294 -19 328 -19 c 0,67,68
 363 -19 363 -19 373 30 c 2,69,-1
 403 171 l 1,70,-1
 500 171 l 2,71,72
 530 171 530 171 530 210 c 0,73,74
 530 252 530 252 466 252 c 0,75,76
 459 252 459 252 443 251 c 128,-1,77
 427 250 427 250 420 250 c 1,78,-1
 456 430 l 1,79,80
 461 430 461 430 474.5 429.5 c 128,-1,81
 488 429 488 429 496 429 c 0,82,83
 567 429 567 429 567 471 c 0,0,1
376 430 m 1,84,-1
 341 249 l 1,85,-1
 219 249 l 1,86,-1
 260 430 l 1,87,-1
 376 430 l 1,84,-1
EndSplineSet
EndChar

StartChar: dollar
Encoding: 36 36 34
Width: 600
Flags: W
LayerCount: 2
Fore
SplineSet
534 222 m 0,0,1
 534 362 534 362 344 392 c 1,2,-1
 343 570 l 1,3,4
 362 570 362 570 403 564 c 0,5,6
 443 558 443 558 463 558 c 0,7,8
 501 558 501 558 501 594 c 0,9,10
 501 638 501 638 343 649 c 1,11,12
 343 658 343 658 344.5 677 c 128,-1,13
 346 696 346 696 346 706 c 0,14,15
 346 743 346 743 302 743 c 0,16,17
 261 743 261 743 261 727 c 2,18,-1
 261 649 l 1,19,20
 190 632 190 632 142 586 c 0,21,22
 88 533 88 533 88 466 c 0,23,24
 88 402 88 402 145 365 c 0,25,26
 180 340 180 340 259 319 c 1,27,-1
 261 98 l 1,28,-1
 240 98 l 2,29,30
 198 97 198 97 169 115 c 0,31,32
 160 121 160 121 133 150 c 0,33,34
 117 169 117 169 99 169 c 0,35,36
 65 169 65 169 65 131 c 0,37,38
 65 66 65 66 138 35 c 0,39,40
 190 11 190 11 261 11 c 1,41,-1
 261 -85 l 2,42,43
 261 -97 261 -97 276 -104 c 0,44,45
 289 -110 289 -110 302 -110 c 0,46,47
 343 -110 343 -110 343 -85 c 2,48,-1
 343 11 l 1,49,50
 426 24 426 24 479 80 c 0,51,52
 534 138 534 138 534 222 c 0,0,1
261 411 m 1,53,54
 234 412 234 412 208 428 c 0,55,56
 175 446 175 446 175 470 c 0,57,58
 175 532 175 532 261 565 c 1,59,-1
 261 411 l 1,53,54
451 218 m 0,60,61
 451 178 451 178 416 143 c 0,62,63
 384 111 384 111 343 98 c 1,64,-1
 343 301 l 1,65,66
 394 293 394 293 416 280 c 0,67,68
 451 260 451 260 451 218 c 0,60,61
EndSplineSet
EndChar

StartChar: percent
Encoding: 37 37 35
Width: 600
Flags: W
LayerCount: 2
Fore
SplineSet
319 596 m 0,0,1
 319 650 319 650 280 688 c 0,2,3
 242 725 242 725 186 725 c 0,4,5
 135 725 135 725 95 686 c 0,6,7
 55 649 55 649 55 597 c 0,8,9
 55 543 55 543 93 507 c 0,10,11
 132 471 132 471 186 471 c 0,12,13
 242 471 242 471 280 506 c 0,14,15
 319 540 319 540 319 596 c 0,0,1
490 681 m 0,16,17
 490 698 490 698 476 709 c 128,-1,18
 462 720 462 720 445 720 c 256,19,20
 428 720 428 720 418 704 c 0,21,22
 408 690 408 690 365 603 c 128,-1,23
 322 516 322 516 244 355 c 0,24,25
 93 41 93 41 93 31 c 0,26,27
 93 22 93 22 98 14 c 128,-1,28
 103 6 103 6 110.5 -0.5 c 128,-1,29
 118 -7 118 -7 127 -11 c 128,-1,30
 136 -15 136 -15 145 -15 c 0,31,32
 156 -15 156 -15 167 3 c 0,33,34
 181 27 181 27 224 115.5 c 128,-1,35
 267 204 267 204 341 359 c 0,36,37
 490 671 490 671 490 681 c 0,16,17
544 117 m 0,38,39
 544 168 544 168 504 205 c 0,40,41
 464 243 464 243 413 243 c 0,42,43
 363 243 363 243 323 204 c 0,44,45
 283 167 283 167 283 117 c 0,46,47
 283 64 283 64 322 27 c 0,48,49
 361 -9 361 -9 413 -9 c 0,50,51
 468 -9 468 -9 506 26 c 0,52,53
 544 62 544 62 544 117 c 0,38,39
249 595 m 0,54,55
 249 569 249 569 231.5 552 c 128,-1,56
 214 535 214 535 188 535 c 0,57,58
 164 535 164 535 146 553 c 128,-1,59
 128 571 128 571 128 595 c 0,60,61
 128 618 128 618 146.5 636 c 128,-1,62
 165 654 165 654 188 654 c 0,63,64
 213 654 213 654 231 637 c 128,-1,65
 249 620 249 620 249 595 c 0,54,55
477 114 m 0,66,67
 477 87 477 87 459.5 71 c 128,-1,68
 442 55 442 55 415 55 c 0,69,70
 391 55 391 55 373.5 72 c 128,-1,71
 356 89 356 89 356 114 c 0,72,73
 356 137 356 137 374 155.5 c 128,-1,74
 392 174 392 174 415 174 c 0,75,76
 440 174 440 174 458.5 156 c 128,-1,77
 477 138 477 138 477 114 c 0,66,67
EndSplineSet
EndChar

StartChar: ampersand
Encoding: 38 38 36
Width: 600
Flags: W
LayerCount: 2
Fore
SplineSet
543 167 m 0,0,1
 543 183 543 183 530 195.5 c 128,-1,2
 517 208 517 208 501 208 c 0,3,4
 490 208 490 208 469.5 189 c 128,-1,5
 449 170 449 170 438 166 c 1,6,-1
 319 357 l 1,7,8
 464 455 464 455 464 554 c 0,9,10
 464 618 464 618 404 653 c 0,11,12
 353 683 353 683 285 683 c 0,13,14
 213 683 213 683 165 647 c 0,15,16
 110 608 110 608 110 540 c 0,17,18
 110 492 110 492 143 443 c 0,19,20
 159 422 159 422 170.5 401.5 c 128,-1,21
 182 381 182 381 198 361 c 1,22,23
 56 240 56 240 56 150 c 0,24,25
 56 71 56 71 122 26 c 0,26,27
 180 -11 180 -11 263 -11 c 0,28,29
 354 -11 354 -11 412 32 c 1,30,31
 423 15 423 15 429.5 6.5 c 128,-1,32
 436 -2 436 -2 437 -3 c 0,33,34
 455 -23 455 -23 473 -23 c 0,35,36
 488 -23 488 -23 503 -11 c 128,-1,37
 518 1 518 1 518 17 c 0,38,39
 518 37 518 37 478 86 c 1,40,41
 543 133 543 133 543 167 c 0,0,1
372 543 m 0,42,43
 372 519 372 519 333 479 c 0,44,45
 304 448 304 448 266 424 c 1,46,47
 255 436 255 436 247.5 450 c 128,-1,48
 240 464 240 464 229 475 c 0,49,50
 205 503 205 503 205 533 c 0,51,52
 205 557 205 557 234.5 581 c 128,-1,53
 264 605 264 605 287 605 c 0,54,55
 317 605 317 605 344.5 588 c 128,-1,56
 372 571 372 571 372 543 c 0,42,43
359 111 m 1,57,58
 322 71 322 71 249 71 c 0,59,60
 209 71 209 71 179 90 c 128,-1,61
 149 109 149 109 151 146 c 0,62,63
 149 183 149 183 180.5 223 c 128,-1,64
 212 263 212 263 250 288 c 1,65,-1
 359 111 l 1,57,58
EndSplineSet
EndChar

StartChar: quotesingle
Encoding: 39 39 37
Width: 600
Flags: W
LayerCount: 2
Fore
SplineSet
343 499 m 2,0,-1
 343 714 l 2,1,2
 343 739 343 739 300 739 c 256,3,4
 257 739 257 739 257 709 c 2,5,-1
 257 503 l 2,6,7
 257 486 257 486 270 475 c 128,-1,8
 283 464 283 464 300 464 c 0,9,10
 316 464 316 464 329.5 473.5 c 128,-1,11
 343 483 343 483 343 499 c 2,0,-1
EndSplineSet
EndChar

StartChar: parenleft
Encoding: 40 40 38
Width: 600
Flags: W
LayerCount: 2
Fore
SplineSet
357 734 m 0,0,1
 316 701 316 701 285 653 c 0,2,3
 223 560 223 560 200 437 c 0,4,5
 188 371 188 371 188 315 c 0,6,7
 187 261 187 261 199 194 c 0,8,9
 209 135 209 135 229 82 c 0,10,11
 271 -30 271 -30 350 -92 c 0,12,13
 363 -103 363 -103 377 -101 c 0,14,15
 390 -99 390 -99 399.5 -89 c 128,-1,16
 409 -79 409 -79 410 -66 c 0,17,18
 412 -51 412 -51 398 -40 c 0,19,20
 265 86 265 86 263 304 c 0,21,22
 261 524 261 524 396 678 c 0,23,24
 403 687 403 687 402 700 c 0,25,26
 398 728 398 728 377 737 c 0,27,28
 366 742 366 742 357 734 c 0,0,1
EndSplineSet
EndChar

StartChar: parenright
Encoding: 41 41 39
Width: 600
Flags: W
LayerCount: 2
Fore
SplineSet
241 734 m 0,0,1
 233 741 233 741 223 737 c 0,2,3
 201 727 201 727 198 700 c 0,4,5
 197 697 197 697 197 692 c 0,6,7
 197 686 197 686 202 678 c 0,8,9
 339 524 339 524 338 304 c 0,10,11
 337 253 337 253 328.5 205 c 128,-1,12
 320 157 320 157 303 112 c 0,13,14
 268 23 268 23 200 -40 c 0,15,16
 188 -50 188 -50 191 -66 c 0,17,18
 191 -79 191 -79 200.5 -89 c 128,-1,19
 210 -99 210 -99 222 -101 c 0,20,21
 234 -102 234 -102 247 -92 c 0,22,23
 292 -58 292 -58 321 -16 c 0,24,25
 383 73 383 73 404 194 c 0,26,27
 408 219 408 219 410 249.5 c 128,-1,28
 412 280 412 280 412 315 c 0,29,30
 411 347 411 347 408.5 377.5 c 128,-1,31
 406 408 406 408 401 437 c 0,32,33
 379 561 379 561 316 653 c 0,34,35
 286 696 286 696 241 734 c 0,0,1
EndSplineSet
EndChar

StartChar: asterisk
Encoding: 42 42 40
Width: 600
Flags: W
LayerCount: 2
Fore
SplineSet
490 382 m 0,0,1
 490 400 490 400 481 415 c 0,2,3
 470 432 470 432 454 432 c 0,4,5
 443 432 443 432 400 405 c 0,6,7
 353 376 353 376 339 373 c 1,8,9
 338 388 338 388 338 397 c 0,10,11
 338 407 338 407 338 412 c 256,12,13
 338 417 338 417 338.5 433 c 128,-1,14
 339 449 339 449 339 458 c 0,15,16
 339 527 339 527 294 527 c 0,17,18
 253 527 253 527 253 480 c 2,19,-1
 253 378 l 1,20,21
 241 382 241 382 192 414 c 0,22,23
 148 441 148 441 138 441 c 0,24,25
 126 441 126 441 117 423 c 0,26,27
 109 405 109 405 109 394 c 0,28,29
 109 371 109 371 158 340 c 0,30,31
 175 329 175 329 193 319.5 c 128,-1,32
 211 310 211 310 228 303 c 1,33,34
 224 293 224 293 181 249 c 0,35,36
 143 208 143 208 143 197 c 0,37,38
 143 180 143 180 156 163.5 c 128,-1,39
 169 147 169 147 186 147 c 256,40,41
 203 147 203 147 244 195 c 0,42,43
 258 212 258 212 271 227.5 c 128,-1,44
 284 243 284 243 298 259 c 1,45,46
 309 246 309 246 324.5 231 c 128,-1,47
 340 216 340 216 359 198 c 0,48,49
 410 150 410 150 421 150 c 0,50,51
 443 150 443 150 463 188 c 1,52,-1
 464 198 l 2,53,54
 464 211 464 211 423 250 c 0,55,56
 376 294 376 294 371 302 c 1,57,58
 388 311 388 311 404.5 320 c 128,-1,59
 421 329 421 329 438 337 c 0,60,61
 490 367 490 367 490 382 c 0,0,1
EndSplineSet
EndChar

StartChar: plus
Encoding: 43 43 41
Width: 600
Flags: W
LayerCount: 2
Fore
SplineSet
504 323 m 256,0,1
 504 366 504 366 480 366 c 2,2,-1
 345 366 l 1,3,-1
 344 505 l 2,4,5
 342 546 342 546 301 546 c 0,6,7
 284 546 284 546 271 535.5 c 128,-1,8
 258 525 258 525 258 509 c 2,9,-1
 258 366 l 1,10,-1
 120 366 l 2,11,12
 95 366 95 366 95 322 c 0,13,14
 95 280 95 280 120 280 c 2,15,-1
 259 280 l 1,16,-1
 257 150 l 2,17,18
 256 134 256 134 271 123 c 0,19,20
 284 113 284 113 301 113 c 0,21,22
 342 113 342 113 344 149 c 2,23,-1
 345 280 l 1,24,-1
 480 280 l 2,25,26
 504 280 504 280 504 323 c 256,0,1
EndSplineSet
EndChar

StartChar: comma
Encoding: 44 44 42
Width: 600
Flags: W
LayerCount: 2
Fore
SplineSet
388 36 m 0,0,1
 388 75 388 75 369 103 c 0,2,3
 347 134 347 134 309 134 c 0,4,5
 222 134 222 134 222 76 c 0,6,7
 222 38 222 38 254 17 c 0,8,9
 261 13 261 13 278 6.5 c 128,-1,10
 295 0 295 0 321 -8 c 1,11,12
 317 -34 317 -34 296 -53 c 128,-1,13
 275 -72 275 -72 249 -72 c 0,14,15
 242 -72 242 -72 236 -72 c 256,16,17
 230 -72 230 -72 224 -71 c 1,18,19
 212 -85 212 -85 212 -101 c 0,20,21
 212 -119 212 -119 226 -128 c 1,22,23
 299 -124 299 -124 328 -104 c 0,24,25
 360 -82 360 -82 380 -14 c 0,26,27
 388 16 388 16 388 36 c 0,0,1
EndSplineSet
EndChar

StartChar: hyphen
Encoding: 45 45 43
Width: 600
Flags: W
LayerCount: 2
Fore
SplineSet
503 322 m 0,0,1
 503 339 503 339 491 352.5 c 128,-1,2
 479 366 479 366 462 366 c 2,3,-1
 129 366 l 2,4,5
 114 366 114 366 105 350 c 0,6,7
 97 336 97 336 97 321 c 0,8,9
 97 277 97 277 146 277 c 0,10,11
 153 277 153 277 168.5 278 c 128,-1,12
 184 279 184 279 191 279 c 2,13,-1
 282 279 l 2,14,15
 423 279 423 279 463 279 c 0,16,17
 503 283 503 283 503 322 c 0,0,1
EndSplineSet
EndChar

StartChar: period
Encoding: 46 46 44
Width: 600
Flags: W
LayerCount: 2
Fore
SplineSet
385 68 m 0,0,1
 385 86 385 86 378 102 c 128,-1,2
 371 118 371 118 359.5 129.5 c 128,-1,3
 348 141 348 141 332.5 148 c 128,-1,4
 317 155 317 155 299 155 c 0,5,6
 282 155 282 155 266.5 147.5 c 128,-1,7
 251 140 251 140 239.5 128 c 128,-1,8
 228 116 228 116 221 100.5 c 128,-1,9
 214 85 214 85 214 68 c 0,10,11
 214 31 214 31 238.5 6.5 c 128,-1,12
 263 -18 263 -18 299 -18 c 0,13,14
 337 -18 337 -18 361 5.5 c 128,-1,15
 385 29 385 29 385 68 c 0,0,1
EndSplineSet
EndChar

StartChar: slash
Encoding: 47 47 45
Width: 600
Flags: W
LayerCount: 2
Fore
SplineSet
517 686 m 0,0,1
 517 701 517 701 504.5 711 c 128,-1,2
 492 721 492 721 477 721 c 0,3,4
 441 721 441 721 426 700 c 0,5,6
 406 671 406 671 249 325 c 0,7,8
 94 -20 94 -20 94 -31 c 0,9,10
 94 -63 94 -63 149 -63 c 0,11,12
 177 -63 177 -63 187 -47 c 1,13,14
 198 -10 198 -10 360 331 c 0,15,16
 517 670 517 670 517 686 c 0,0,1
EndSplineSet
EndChar

StartChar: zero
Encoding: 48 48 46
Width: 600
Flags: W
LayerCount: 2
Fore
SplineSet
250 315 m 0,0,1
 250 294 250 294 265 280 c 128,-1,2
 280 266 280 266 300 266 c 0,3,4
 321 266 321 266 335.5 280 c 128,-1,5
 350 294 350 294 350 315 c 0,6,7
 350 335 350 335 335.5 349.5 c 128,-1,8
 321 364 321 364 300 364 c 0,9,10
 280 364 280 364 265 349.5 c 128,-1,11
 250 335 250 335 250 315 c 0,0,1
520 352 m 2,12,13
 520 409 520 409 507.5 469 c 128,-1,14
 495 529 495 529 471 571 c 0,15,16
 442 622 442 622 399.5 648.5 c 128,-1,17
 357 675 357 675 304 675 c 0,18,19
 247 675 247 675 206 646 c 128,-1,20
 165 617 165 617 133 562 c 0,21,22
 80 470 80 470 80 350 c 0,23,24
 80 173 80 173 132 85.5 c 128,-1,25
 184 -2 184 -2 293 -2 c 0,26,27
 349 -2 349 -2 391.5 17 c 128,-1,28
 434 36 434 36 462.5 78 c 128,-1,29
 491 120 491 120 505.5 186.5 c 128,-1,30
 520 253 520 253 520 347 c 2,31,-1
 520 352 l 2,12,13
433 350 m 2,32,33
 433 212 433 212 398 148.5 c 128,-1,34
 363 85 363 85 293 85 c 0,35,36
 227 85 227 85 197 148.5 c 128,-1,37
 167 212 167 212 167 350 c 0,38,39
 167 390 167 390 172 429.5 c 128,-1,40
 177 469 177 469 194 503 c 0,41,42
 215 546 215 546 245 567 c 128,-1,43
 275 588 275 588 310 588 c 0,44,45
 373 588 373 588 403 530.5 c 128,-1,46
 433 473 433 473 433 356 c 2,47,-1
 433 350 l 2,32,33
EndSplineSet
EndChar

StartChar: one
Encoding: 49 49 47
Width: 600
Flags: W
LayerCount: 2
Fore
SplineSet
456 40 m 0,0,1
 456 86 456 86 398 86 c 0,2,3
 389 86 389 86 373 86 c 128,-1,4
 357 86 357 86 345 86 c 1,5,-1
 345 640 l 2,6,7
 345 653 345 653 334.5 663.5 c 128,-1,8
 324 674 324 674 311 674 c 0,9,10
 282 674 282 674 248 617 c 0,11,12
 237 597 237 597 225 576 c 128,-1,13
 213 555 213 555 200 535 c 0,14,15
 191 527 191 527 182 518 c 128,-1,16
 173 509 173 509 164 500 c 0,17,18
 146 479 146 479 146 454 c 0,19,20
 146 416 146 416 185 416 c 0,21,22
 213 416 213 416 258 481 c 1,23,-1
 258 86 l 1,24,25
 252 84 252 84 234 85 c 128,-1,26
 216 86 216 86 206 86 c 0,27,28
 142 86 142 86 142 40 c 0,29,30
 142 -1 142 -1 177 0 c 2,31,-1
 402 0 l 2,32,33
 458 -1 458 -1 456 40 c 0,0,1
EndSplineSet
EndChar

StartChar: two
Encoding: 50 50 48
Width: 600
Flags: W
LayerCount: 2
Fore
SplineSet
506 42 m 0,0,1
 506 64 506 64 490 75.5 c 128,-1,2
 474 87 474 87 448 87 c 2,3,-1
 209 87 l 1,4,-1
 434 355 l 1,5,6
 475 396 475 396 475 485 c 0,7,8
 475 577 475 577 417 625 c 1,9,10
 371 671 371 671 277 671 c 0,11,12
 200 671 200 671 148 622 c 0,13,14
 93 571 93 571 93 496 c 0,15,16
 93 452 93 452 133 452 c 0,17,18
 153 452 153 452 170 485 c 0,19,20
 181 514 181 514 190 529.5 c 128,-1,21
 199 545 199 545 204 550 c 0,22,23
 235 579 235 579 285 579 c 0,24,25
 330 579 330 579 359.5 550 c 128,-1,26
 389 521 389 521 389 476 c 0,27,28
 389 430 389 430 351 383 c 2,29,-1
 123 108 l 2,30,31
 97 76 97 76 97 45 c 0,32,33
 97 25 97 25 108 13 c 128,-1,34
 119 1 119 1 156 1 c 2,35,-1
 454 1 l 2,36,37
 503 1 503 1 506 42 c 0,0,1
EndSplineSet
EndChar

StartChar: three
Encoding: 51 51 49
Width: 600
Flags: W
LayerCount: 2
Fore
SplineSet
501 204 m 0,0,1
 501 254 501 254 480 290 c 0,2,3
 461 322 461 322 419 355 c 1,4,5
 485 404 485 404 485 496 c 0,6,7
 485 535 485 535 472 567.5 c 128,-1,8
 459 600 459 600 436 623 c 128,-1,9
 413 646 413 646 380 658.5 c 128,-1,10
 347 671 347 671 308 671 c 0,11,12
 240 667 240 667 201 648 c 0,13,14
 156 621 156 621 137 597.5 c 128,-1,15
 118 574 118 574 118 555 c 0,16,17
 118 538 118 538 125.5 528.5 c 128,-1,18
 133 519 133 519 146 521 c 1,19,20
 167 517 167 517 189.5 539.5 c 128,-1,21
 212 562 212 562 225 571 c 0,22,23
 250 592 250 592 296 592 c 0,24,25
 317 592 317 592 336 585.5 c 128,-1,26
 355 579 355 579 369.5 567 c 128,-1,27
 384 555 384 555 392.5 538 c 128,-1,28
 401 521 401 521 401 500 c 0,29,30
 401 433 401 433 355 411 c 0,31,32
 337 400 337 400 271 393 c 0,33,34
 225 387 225 387 225 362 c 0,35,36
 225 336 225 336 273 326 c 0,37,38
 346 311 346 311 363 301 c 0,39,40
 411 272 411 272 411 207 c 0,41,42
 411 155 411 155 380 118 c 0,43,44
 347 78 347 78 296 78 c 0,45,46
 231 78 231 78 206 111 c 0,47,48
 200 119 200 119 180 172 c 0,49,50
 168 205 168 205 137 205 c 0,51,52
 116 205 116 205 102 194 c 1,53,54
 98 181 98 181 98 165 c 0,55,56
 98 84 98 84 152 38 c 0,57,58
 204 -4 204 -4 286 -4 c 0,59,60
 386 -4 386 -4 443.5 50.5 c 128,-1,61
 501 105 501 105 501 204 c 0,0,1
EndSplineSet
EndChar

StartChar: four
Encoding: 52 52 50
Width: 600
Flags: W
LayerCount: 2
Fore
SplineSet
545 249 m 0,0,1
 553 297 553 297 470 295 c 2,2,-1
 410 295 l 1,3,-1
 410 475 l 2,4,5
 407 517 407 517 365 517 c 0,6,7
 320 517 320 517 321 478 c 2,8,-1
 321 295 l 1,9,-1
 169 295 l 1,10,11
 178 373 178 373 183.5 452 c 128,-1,12
 189 531 189 531 189 610 c 0,13,14
 189 678 189 678 148 678 c 0,15,16
 106 678 106 678 106 624 c 0,17,18
 106 457 106 457 94 360 c 0,19,20
 93 356 93 356 91 343 c 128,-1,21
 89 330 89 330 85 308 c 0,22,23
 83 292 83 292 81.5 279 c 128,-1,24
 80 266 80 266 80 256 c 0,25,26
 80 234 80 234 93.5 220 c 128,-1,27
 107 206 107 206 132 203 c 2,28,-1
 321 203 l 1,29,-1
 321 26 l 2,30,31
 321 11 321 11 335 0 c 0,32,33
 348 -10 348 -10 365 -10 c 256,34,35
 382 -10 382 -10 396 1.5 c 128,-1,36
 410 13 410 13 410 26 c 2,37,-1
 410 203 l 1,38,39
 410 203 410 203 474 203 c 0,40,41
 539 203 539 203 545 249 c 0,0,1
EndSplineSet
EndChar

StartChar: five
Encoding: 53 53 51
Width: 600
Flags: W
LayerCount: 2
Fore
SplineSet
501 224 m 0,0,1
 501 308 501 308 445 372 c 0,2,3
 386 437 386 437 304 437 c 0,4,5
 242 437 242 437 194 415 c 1,6,-1
 194 584 l 1,7,-1
 442 584 l 2,8,9
 473 584 473 584 473 622 c 0,10,11
 473 670 473 670 444 670 c 2,12,-1
 152 670 l 2,13,14
 135 670 135 670 121 659 c 128,-1,15
 107 648 107 648 107 631 c 2,16,-1
 107 339 l 2,17,18
 107 293 107 293 137 293 c 0,19,20
 161 293 161 293 201 321 c 0,21,22
 242 349 242 349 275 349 c 0,23,24
 335 349 335 349 376 313 c 0,25,26
 418 275 418 275 418 216 c 0,27,28
 418 83 418 83 291 83 c 0,29,30
 239 83 239 83 209 107 c 0,31,32
 198 116 198 116 173 152 c 0,33,34
 156 176 156 176 136 176 c 0,35,36
 123 176 123 176 111 165.5 c 128,-1,37
 99 155 99 155 99 142 c 0,38,39
 99 136 99 136 102 126 c 0,40,41
 123 55 123 55 163.5 24.5 c 128,-1,42
 204 -6 204 -6 279 -6 c 0,43,44
 501 -6 501 -6 501 224 c 0,0,1
EndSplineSet
EndChar

StartChar: six
Encoding: 54 54 52
Width: 600
Flags: W
LayerCount: 2
Fore
SplineSet
519 227 m 1,0,1
 519 324 519 324 460.5 378.5 c 128,-1,2
 402 433 402 433 316 438 c 0,3,4
 293 438 293 438 270 429.5 c 128,-1,5
 247 421 247 421 234 415 c 128,-1,6
 221 409 221 409 207 404 c 1,7,8
 219 441 219 441 302 534 c 1,9,10
 396 605 396 605 396 631 c 0,11,12
 397 663 397 663 383.5 671 c 128,-1,13
 370 679 370 679 348 679 c 0,14,15
 327 679 327 679 245 607 c 1,16,17
 167 523 167 523 130 445 c 0,18,19
 87 358 87 358 87 252 c 0,20,21
 87 -6 87 -6 294 -6 c 0,22,23
 397 -6 397 -6 455 58.5 c 128,-1,24
 513 123 513 123 519 227 c 1,0,1
434 227 m 0,25,26
 434 162 434 162 398 116.5 c 128,-1,27
 362 71 362 71 301 71 c 0,28,29
 171 71 171 71 175 245 c 0,30,31
 175 246 175 246 181 256.5 c 128,-1,32
 187 267 187 267 188 289 c 1,33,34
 257 348 257 348 300 348 c 0,35,36
 360 348 360 348 397 316.5 c 128,-1,37
 434 285 434 285 434 227 c 0,25,26
EndSplineSet
EndChar

StartChar: seven
Encoding: 55 55 53
Width: 600
Flags: W
LayerCount: 2
Fore
SplineSet
242 -10 m 1,0,1
 286 -10 286 -10 298 26 c 0,2,3
 492 629 492 629 492 634 c 0,4,5
 492 658 492 658 472 670 c 1,6,-1
 147 670 l 2,7,8
 131 670 131 670 120.5 655 c 128,-1,9
 110 640 110 640 110 623 c 0,10,11
 110 583 110 583 144 583 c 2,12,-1
 386 583 l 1,13,14
 360 508 360 508 334 434 c 128,-1,15
 308 360 308 360 282 285 c 0,16,17
 198 40 198 40 198 19 c 0,18,19
 198 5 198 5 242 -10 c 1,0,1
EndSplineSet
EndChar

StartChar: eight
Encoding: 56 56 54
Width: 600
Flags: W
LayerCount: 2
Fore
SplineSet
511 176 m 0,0,1
 511 310 511 310 395 364 c 1,2,3
 441 389 441 389 461 415 c 0,4,5
 486 446 486 446 486 493 c 0,6,7
 486 581 486 581 436 626 c 0,8,9
 389 671 389 671 301 671 c 0,10,11
 220 671 220 671 165 617 c 0,12,13
 109 563 109 563 109 483 c 0,14,15
 109 399 109 399 183 351 c 1,16,17
 136 325 136 325 111 271 c 0,18,19
 88 220 88 220 88 163 c 0,20,21
 88 76 88 76 151 33 c 0,22,23
 205 -3 205 -3 297 -3 c 0,24,25
 390 -3 390 -3 447 39 c 0,26,27
 511 85 511 85 511 176 c 0,0,1
403 514 m 0,28,29
 403 458 403 458 376 434 c 0,30,31
 357 416 357 416 296 401 c 1,32,33
 193 423 193 423 193 483 c 0,34,35
 193 534 193 534 219.5 562 c 128,-1,36
 246 590 246 590 300 590 c 0,37,38
 343 590 343 590 370 577 c 0,39,40
 403 556 403 556 403 514 c 0,28,29
432 185 m 0,41,42
 432 75 432 75 300 75 c 0,43,44
 246 75 246 75 209 91 c 0,45,46
 163 116 163 116 163 162 c 0,47,48
 163 222 163 222 201 263 c 0,49,50
 226 291 226 291 292 324 c 1,51,52
 432 273 432 273 432 185 c 0,41,42
EndSplineSet
EndChar

StartChar: nine
Encoding: 57 57 55
Width: 600
Flags: W
LayerCount: 2
Fore
SplineSet
524 440 m 0,0,1
 524 551 524 551 462 611 c 1,2,3
 405 681 405 681 319 681 c 0,4,5
 211 681 211 681 141 611 c 0,6,7
 75 548 75 548 75 440 c 0,8,9
 75 348 75 348 135 293 c 0,10,11
 196 237 196 237 287 237 c 0,12,13
 354 237 354 237 410 274 c 1,14,15
 349 131 349 131 236 95 c 0,16,17
 206 86 206 86 183.5 79.5 c 128,-1,18
 161 73 161 73 145 69 c 0,19,20
 144 67 144 67 127 56 c 0,21,22
 117 49 117 49 117 31 c 0,23,24
 117 15 117 15 128.5 3 c 128,-1,25
 140 -9 140 -9 156 -9 c 0,26,27
 204 -9 204 -9 261 14 c 1,28,29
 524 148 524 148 524 440 c 0,0,1
440 440 m 0,30,31
 440 409 440 409 433 380 c 1,32,33
 356 318 356 318 300 318 c 0,34,35
 238 318 238 318 199 351 c 0,36,37
 158 386 158 386 158 447 c 0,38,39
 158 514 158 514 196 557 c 1,40,41
 242 598 242 598 308 598 c 0,42,43
 355 598 355 598 396 543 c 0,44,45
 440 488 440 488 440 440 c 0,30,31
EndSplineSet
EndChar

StartChar: colon
Encoding: 58 58 56
Width: 600
Flags: W
LayerCount: 2
Fore
SplineSet
381 391 m 256,0,1
 381 408 381 408 374.5 423.5 c 128,-1,2
 368 439 368 439 357 451 c 128,-1,3
 346 463 346 463 331.5 470.5 c 128,-1,4
 317 478 317 478 300 478 c 256,5,6
 283 478 283 478 268.5 470.5 c 128,-1,7
 254 463 254 463 243 451 c 128,-1,8
 232 439 232 439 225.5 423 c 128,-1,9
 219 407 219 407 219 391 c 0,10,11
 219 355 219 355 242.5 330.5 c 128,-1,12
 266 306 266 306 300 306 c 0,13,14
 316 306 316 306 331 313 c 128,-1,15
 346 320 346 320 357 332 c 128,-1,16
 368 344 368 344 374.5 359 c 128,-1,17
 381 374 381 374 381 391 c 256,0,1
381 118 m 0,18,19
 381 134 381 134 374.5 149.5 c 128,-1,20
 368 165 368 165 357 177 c 128,-1,21
 346 189 346 189 331.5 196 c 128,-1,22
 317 203 317 203 300 203 c 0,23,24
 270 203 270 203 245 175 c 0,25,26
 219 147 219 147 219 118 c 0,27,28
 219 103 219 103 226 88.5 c 128,-1,29
 233 74 233 74 244 62.5 c 128,-1,30
 255 51 255 51 270 44.5 c 128,-1,31
 285 38 285 38 300 38 c 0,32,33
 330 38 330 38 355 63 c 0,34,35
 381 89 381 89 381 118 c 0,18,19
EndSplineSet
EndChar

StartChar: semicolon
Encoding: 59 59 57
Width: 600
Flags: W
LayerCount: 2
Fore
SplineSet
377 388 m 256,0,1
 377 405 377 405 370.5 421 c 128,-1,2
 364 437 364 437 353 449 c 128,-1,3
 342 461 342 461 327 468.5 c 128,-1,4
 312 476 312 476 295 476 c 0,5,6
 262 476 262 476 237 448 c 0,7,8
 211 420 211 420 211 388 c 0,9,10
 211 371 211 371 218 356 c 128,-1,11
 225 341 225 341 236.5 329.5 c 128,-1,12
 248 318 248 318 263 311 c 128,-1,13
 278 304 278 304 295 304 c 0,14,15
 311 304 311 304 326 311 c 128,-1,16
 341 318 341 318 352.5 329.5 c 128,-1,17
 364 341 364 341 370.5 356 c 128,-1,18
 377 371 377 371 377 388 c 256,0,1
388 70 m 0,19,20
 388 108 388 108 369 136 c 0,21,22
 347 167 347 167 310 167 c 0,23,24
 223 167 223 167 223 109 c 0,25,26
 223 72 223 72 256 50 c 0,27,28
 276 38 276 38 322 24 c 1,29,30
 311 -39 311 -39 235 -39 c 1,31,-1
 224 -38 l 1,32,33
 213 -52 213 -52 213 -68 c 0,34,35
 213 -86 213 -86 227 -95 c 1,36,37
 298 -94 298 -94 328 -73 c 0,38,39
 360 -51 360 -51 380 18 c 0,40,41
 388 50 388 50 388 70 c 0,19,20
EndSplineSet
EndChar

StartChar: less
Encoding: 60 60 58
Width: 600
Flags: W
LayerCount: 2
Fore
SplineSet
480 466 m 4,0,1
 480 489 480 489 470 505 c 4,2,3
 456 526 456 526 437 526 c 4,4,5
 428 526 428 526 302 457 c 4,6,7
 248 427 248 427 210.5 406 c 132,-1,8
 173 385 173 385 153 373 c 4,9,10
 120 353 120 353 120 326 c 4,11,12
 120 298 120 298 151 279 c 4,13,14
 179 261 179 261 215.5 239 c 132,-1,15
 252 217 252 217 298 191 c 4,16,17
 419 122 419 122 438 122 c 4,18,19
 454 122 454 122 466 135 c 132,-1,20
 478 148 478 148 478 165 c 4,21,22
 478 187 478 187 457 199 c 6,23,-1
 239 323 l 5,24,25
 273 340 273 340 306 356.5 c 132,-1,26
 339 373 339 373 372 390 c 4,27,28
 480 448 480 448 480 466 c 4,0,1
EndSplineSet
EndChar

StartChar: equal
Encoding: 61 61 59
Width: 600
Flags: W
LayerCount: 2
Fore
SplineSet
487 409 m 0,0,1
 487 454 487 454 453 454 c 2,2,-1
 145 454 l 2,3,4
 130 454 130 454 121 438 c 0,5,6
 113 424 113 424 113 409 c 0,7,8
 113 367 113 367 139 367 c 2,9,-1
 455 367 l 2,10,11
 470 367 470 367 479 381 c 0,12,13
 487 395 487 395 487 409 c 0,0,1
487 239 m 0,14,15
 487 254 487 254 479 268 c 0,16,17
 470 283 470 283 455 283 c 2,18,-1
 147 283 l 2,19,20
 132 283 132 283 122.5 269 c 128,-1,21
 113 255 113 255 113 239 c 0,22,23
 113 224 113 224 121 210 c 0,24,25
 130 196 130 196 145 196 c 2,26,-1
 453 196 l 2,27,28
 487 196 487 196 487 239 c 0,14,15
EndSplineSet
EndChar

StartChar: greater
Encoding: 62 62 60
Width: 600
Flags: W
LayerCount: 2
Fore
SplineSet
492 321 m 0,0,1
 492 343 492 343 443 371 c 2,2,-1
 174 521 l 2,3,4
 162 526 162 526 152 526 c 0,5,6
 135 526 135 526 121.5 512.5 c 128,-1,7
 108 499 108 499 108 481 c 0,8,9
 108 456 108 456 136 440 c 2,10,-1
 358 320 l 1,11,-1
 139 196 l 2,12,13
 115 182 115 182 115 156 c 0,14,15
 115 141 115 141 127.5 129.5 c 128,-1,16
 140 118 140 118 156 118 c 0,17,18
 185 118 185 118 339 210 c 0,19,20
 492 303 492 303 492 321 c 0,0,1
EndSplineSet
EndChar

StartChar: question
Encoding: 63 63 61
Width: 600
Flags: W
LayerCount: 2
Fore
SplineSet
453 496 m 4,0,1
 453 507 453 507 446 531 c 4,2,3
 428 598 428 598 384 625 c 4,4,5
 344 650 344 650 272 650 c 4,6,7
 235 650 235 650 194 627 c 4,8,9
 146 601 146 601 146 568 c 4,10,11
 146 529 146 529 184 515 c 4,12,13
 188 517 188 517 199.5 523.5 c 132,-1,14
 211 530 211 530 230 543 c 4,15,16
 255 559 255 559 280 559 c 4,17,18
 315 559 315 559 335 538 c 132,-1,19
 355 517 355 517 355 482 c 4,20,21
 355 454 355 454 346 436 c 4,22,23
 335 420 335 420 326 408.5 c 132,-1,24
 317 397 317 397 310 389 c 4,25,26
 213 268 213 268 213 200 c 4,27,28
 213 183 213 183 226.5 171 c 132,-1,29
 240 159 240 159 257 159 c 4,30,31
 281 159 281 159 293 174 c 4,32,33
 302 185 302 185 308 209 c 4,34,35
 314 237 314 237 319 247 c 4,36,37
 327 261 327 261 341 280.5 c 132,-1,38
 355 300 355 300 375 326 c 4,39,40
 395 351 395 351 408 370 c 132,-1,41
 421 389 421 389 429 403 c 4,42,43
 453 449 453 449 453 496 c 4,0,1
314 29 m 4,44,45
 314 47 314 47 294 67 c 4,46,47
 275 86 275 86 255 86 c 4,48,49
 230 86 230 86 214 65 c 4,50,51
 199 47 199 47 199 22 c 4,52,53
 199 0 199 0 216 -16 c 132,-1,54
 233 -32 233 -32 255 -32 c 4,55,56
 280 -32 280 -32 297 -14.5 c 132,-1,57
 314 3 314 3 314 29 c 4,44,45
EndSplineSet
EndChar

StartChar: at
Encoding: 64 64 62
Width: 600
Flags: W
LayerCount: 2
Fore
SplineSet
582 394 m 0,0,1
 582 511 582 511 503 593 c 0,2,3
 422 677 422 677 306 677 c 0,4,5
 173 677 173 677 90 561 c 0,6,7
 18 457 18 457 18 317 c 0,8,9
 18 189 18 189 104 91 c 0,10,11
 194 -8 194 -8 321 -8 c 0,12,13
 347 -8 347 -8 373.5 -4.5 c 128,-1,14
 400 -1 400 -1 428 6 c 0,15,16
 504 27 504 27 504 65 c 0,17,18
 504 100 504 100 468 108 c 1,19,20
 370 65 370 65 321 65 c 0,21,22
 221 65 221 65 155 142 c 0,23,24
 93 216 93 216 93 317 c 0,25,26
 93 425 93 425 150 505 c 0,27,28
 214 595 214 595 321 595 c 0,29,30
 371 595 371 595 424 556 c 0,31,32
 474 518 474 518 495 469 c 0,33,34
 509 436 509 436 509 359 c 0,35,36
 509 332 509 332 488 298 c 0,37,38
 465 259 465 259 440 259 c 0,39,40
 400 259 400 259 400 292 c 0,41,42
 400 299 400 299 402 313.5 c 128,-1,43
 404 328 404 328 404 335 c 0,44,45
 404 382 404 382 369 382 c 0,46,47
 353 382 353 382 326 324 c 128,-1,48
 299 266 299 266 271 266 c 0,49,50
 259 266 259 266 248.5 280.5 c 128,-1,51
 238 295 238 295 238 311 c 0,52,53
 238 370 238 370 271 397 c 0,54,55
 285 409 285 409 333 425 c 0,56,57
 366 435 366 435 366 456 c 0,58,59
 366 472 366 472 356 485 c 128,-1,60
 346 498 346 498 331 499 c 0,61,62
 252 503 252 503 208 434 c 0,63,64
 172 375 172 375 172 295 c 0,65,66
 172 253 172 253 203 219 c 0,67,68
 234 186 234 186 276 186 c 0,69,70
 309 186 309 186 345 227 c 1,71,72
 372 182 372 182 440 182 c 0,73,74
 510 182 510 182 549 248 c 0,75,76
 582 306 582 306 582 394 c 0,0,1
EndSplineSet
EndChar

StartChar: bracketleft
Encoding: 91 91 63
Width: 600
Flags: W
LayerCount: 2
Fore
SplineSet
441 711 m 256,0,1
 441 754 441 754 404 754 c 2,2,-1
 212 754 l 2,3,4
 186 754 186 754 174.5 736.5 c 128,-1,5
 163 719 163 719 163 696 c 0,6,7
 163 4 163 4 161 -14.5 c 128,-1,8
 159 -33 159 -33 163 -33 c 1,9,10
 159 -98 159 -98 177 -111 c 0,11,12
 191 -124 191 -124 249 -123 c 0,13,14
 259 -124 259 -124 279 -124 c 128,-1,15
 299 -124 299 -124 404 -123 c 0,16,17
 437 -123 437 -123 438 -75 c 0,18,19
 437 -33 437 -33 404 -33 c 2,20,-1
 250 -33 l 1,21,-1
 250 668 l 1,22,-1
 404 668 l 2,23,24
 441 668 441 668 441 711 c 256,0,1
EndSplineSet
EndChar

StartChar: backslash
Encoding: 92 92 64
Width: 600
Flags: W
LayerCount: 2
Fore
SplineSet
515 -38 m 0,0,1
 515 -30 515 -30 360 313 c 0,2,3
 193 676 193 676 182 693 c 0,4,5
 170 713 170 713 148 713 c 0,6,7
 130 713 130 713 112.5 700.5 c 128,-1,8
 95 688 95 688 95 671 c 256,9,10
 95 654 95 654 248 323 c 0,11,12
 415 -29 415 -29 429 -54 c 0,13,14
 442 -78 442 -78 460 -78 c 256,15,16
 478 -78 478 -78 491.5 -67 c 128,-1,17
 505 -56 505 -56 515 -38 c 0,0,1
EndSplineSet
EndChar

StartChar: bracketright
Encoding: 93 93 65
Width: 600
Flags: W
LayerCount: 2
Fore
SplineSet
159 711 m 256,0,1
 159 754 159 754 196 754 c 2,2,-1
 388 754 l 2,3,4
 414 754 414 754 425.5 736.5 c 128,-1,5
 437 719 437 719 437 696 c 0,6,7
 437 4 437 4 439 -14.5 c 128,-1,8
 441 -33 441 -33 437 -33 c 1,9,10
 441 -98 441 -98 423 -111 c 0,11,12
 409 -124 409 -124 351 -123 c 0,13,14
 341 -124 341 -124 321 -124 c 128,-1,15
 301 -124 301 -124 196 -123 c 0,16,17
 163 -123 163 -123 162 -75 c 0,18,19
 163 -33 163 -33 196 -33 c 2,20,-1
 350 -33 l 1,21,-1
 350 668 l 1,22,-1
 196 668 l 2,23,24
 159 668 159 668 159 711 c 256,0,1
EndSplineSet
EndChar

StartChar: underscore
Encoding: 95 95 66
Width: 600
Flags: W
LayerCount: 2
Fore
SplineSet
582 -148 m 0,0,1
 582 -96 582 -96 547 -96 c 2,2,-1
 44 -97 l 2,3,4
 31 -97 31 -97 24 -116 c 0,5,6
 18 -130 18 -130 18 -145 c 0,7,8
 18 -191 18 -191 44 -191 c 2,9,-1
 551 -191 l 2,10,11
 582 -191 582 -191 582 -148 c 0,0,1
EndSplineSet
EndChar

StartChar: grave
Encoding: 96 96 67
Width: 600
Flags: W
LayerCount: 2
Fore
SplineSet
408 572 m 0,0,1
 408 586 408 586 328 663 c 128,-1,2
 248 740 248 740 232 740 c 0,3,4
 217 740 217 740 204.5 727.5 c 128,-1,5
 192 715 192 715 192 699 c 0,6,7
 192 688 192 688 203 675 c 0,8,9
 341 526 341 526 362 526 c 0,10,11
 379 526 379 526 393.5 541 c 128,-1,12
 408 556 408 556 408 572 c 0,0,1
EndSplineSet
EndChar

StartChar: a
Encoding: 97 97 68
Width: 600
Flags: W
LayerCount: 2
Fore
SplineSet
518 11 m 0,0,1
 518 24 518 24 500 42 c 0,2,3
 483 62 483 62 483 95 c 0,4,5
 483 99 483 99 483 114 c 0,6,7
 483 130 483 130 484 156 c 128,-1,8
 485 182 485 182 485 201 c 0,9,10
 485 221 485 221 485 235 c 0,11,12
 485 277 485 277 482 288 c 0,13,14
 482 359 482 359 483 357 c 1,15,16
 474 418 474 418 411 449 c 0,17,18
 357 475 357 475 291 475 c 0,19,20
 240 475 240 475 182 460 c 0,21,22
 103 439 103 439 103 405 c 0,23,24
 103 358 103 358 131 358 c 0,25,26
 155 358 155 358 208 376 c 0,27,28
 260 394 260 394 290 394 c 0,29,30
 331 394 331 394 361 379 c 0,31,32
 399 359 399 359 399 324 c 2,33,-1
 399 291 l 1,34,35
 341 305 341 305 296 305 c 0,36,37
 215 305 215 305 154 265 c 0,38,39
 82 218 82 218 82 142 c 0,40,41
 82 70 82 70 146 28 c 0,42,43
 201 -6 201 -6 277 -6 c 0,44,45
 332 -6 332 -6 410 23 c 1,46,47
 445 -9 445 -9 473 -9 c 0,48,49
 518 -9 518 -9 518 11 c 0,0,1
396 110 m 1,50,51
 327 76 327 76 266 76 c 0,52,53
 233 76 233 76 202 87 c 0,54,55
 164 104 164 104 164 132 c 0,56,57
 164 181 164 181 209 205 c 0,58,59
 244 224 244 224 299 224 c 0,60,61
 319 224 319 224 343.5 221 c 128,-1,62
 368 218 368 218 396 211 c 1,63,-1
 396 110 l 1,50,51
EndSplineSet
EndChar

StartChar: b
Encoding: 98 98 69
Width: 600
Flags: W
LayerCount: 2
Fore
SplineSet
141 689 m 0,0,1
 123 689 123 689 110 680 c 0,2,3
 95 669 95 669 95 652 c 2,4,-1
 94 29 l 2,5,6
 94 -8 94 -8 131 -8 c 0,7,8
 176 -8 176 -8 180 28 c 1,9,10
 226 -8 226 -8 264 -8 c 0,11,12
 378 -8 378 -8 443 64 c 0,13,14
 505 135 505 135 505 250 c 0,15,16
 505 351 505 351 444 418 c 0,17,18
 379 489 379 489 281 489 c 0,19,20
 237 489 237 489 180 458 c 1,21,-1
 180 651 l 2,22,23
 181 689 181 689 141 689 c 0,0,1
424 252 m 0,24,25
 424 178 424 178 389 128 c 0,26,27
 349 73 349 73 277 73 c 0,28,29
 233 73 233 73 180 122 c 1,30,-1
 180 350 l 1,31,32
 192 362 192 362 204 369.5 c 128,-1,33
 216 377 216 377 227 385 c 0,34,35
 255 401 255 401 281 401 c 0,36,37
 337 401 337 401 380 355 c 0,38,39
 424 308 424 308 424 252 c 0,24,25
EndSplineSet
EndChar

StartChar: c
Encoding: 99 99 70
Width: 600
Flags: W
LayerCount: 2
Fore
SplineSet
496 81 m 0,0,1
 496 96 496 96 487 111 c 0,2,3
 481 122 481 122 467 123.5 c 128,-1,4
 453 125 453 125 439 112 c 0,5,6
 420 89 420 89 400 81 c 128,-1,7
 380 73 380 73 309 73 c 1,8,9
 255 81 255 81 218 130 c 0,10,11
 182 175 182 175 182 250 c 0,12,13
 182 309 182 309 223 353 c 0,14,15
 265 397 265 397 326 397 c 0,16,17
 354 397 354 397 398 371 c 128,-1,18
 442 345 442 345 452 345 c 0,19,20
 467 345 467 345 482 354 c 0,21,22
 498 363 498 363 498 377 c 0,23,24
 498 419 498 419 430 452 c 0,25,26
 371 480 371 480 323 480 c 0,27,28
 216 480 216 480 154 415 c 0,29,30
 95 350 95 350 95 242 c 0,31,32
 95 125 95 125 155 59 c 0,33,34
 218 -7 218 -7 335 -7 c 0,35,36
 373 -7 373 -7 412 3 c 0,37,38
 443 13 443 13 459.5 25.5 c 128,-1,39
 476 38 476 38 485 52 c 0,40,41
 496 70 496 70 496 81 c 0,0,1
EndSplineSet
EndChar

StartChar: d
Encoding: 100 100 71
Width: 600
Flags: W
LayerCount: 2
Fore
SplineSet
509 143 m 1,0,-1
 509 656 l 2,1,2
 508 695 508 695 466 695 c 0,3,4
 449 695 449 695 435.5 684 c 128,-1,5
 422 673 422 673 422 656 c 2,6,-1
 422 452 l 1,7,8
 365 474 365 474 313 474 c 0,9,10
 219 474 219 474 153 399 c 0,11,12
 91 326 91 326 91 231 c 0,13,14
 91 131 91 131 153 63 c 0,15,16
 218 -8 218 -8 319 -8 c 0,17,18
 380 -8 380 -8 423 33 c 1,19,20
 423 11 423 11 433 1 c 128,-1,21
 443 -9 443 -9 467 -8 c 0,22,23
 508 -6 508 -6 508 29 c 0,24,25
 508 48 508 48 508 63 c 256,26,27
 508 78 508 78 509 90 c 2,28,-1
 509 143 l 1,0,-1
423 131 m 1,29,30
 373 82 373 82 339 81 c 0,31,32
 266 77 266 77 219 122 c 0,33,34
 174 165 174 165 174 237 c 0,35,36
 174 294 174 294 219 341 c 0,37,38
 264 387 264 387 323 387 c 0,39,40
 371 387 371 387 423 356 c 1,41,-1
 423 131 l 1,29,30
EndSplineSet
EndChar

StartChar: e
Encoding: 101 101 72
Width: 600
Flags: W
LayerCount: 2
Fore
SplineSet
503 253 m 0,0,1
 503 485 503 485 293 485 c 0,2,3
 197 485 197 485 137 417 c 0,4,5
 79 352 79 352 79 241 c 0,6,7
 79 136 79 136 130 69 c 0,8,9
 187 -6 187 -6 300 -6 c 0,10,11
 420 -6 420 -6 479 38 c 1,12,13
 512 69 512 69 502 93.5 c 128,-1,14
 492 118 492 118 470 115 c 1,15,16
 414 89 414 89 381.5 84 c 128,-1,17
 349 79 349 79 308 79 c 0,18,19
 177 79 177 79 173 195 c 1,20,-1
 434 195 l 2,21,22
 503 195 503 195 503 253 c 0,0,1
414 280 m 1,23,-1
 173 280 l 1,24,25
 175 332 175 332 209.5 367 c 128,-1,26
 244 402 244 402 281 402 c 0,27,28
 408 402 408 402 414 280 c 1,23,-1
EndSplineSet
EndChar

StartChar: f
Encoding: 102 102 73
Width: 600
Flags: W
HStem: 370 87<128.252 152 395 422.748> 591 85<308.315 404.812>
VStem: 199 86<1.34766 39 41 370 506 575.957>
LayerCount: 2
Fore
SplineSet
479 601 m 0,0,1
 478 634 478 634 417 660 c 0,2,3
 375 678 375 678 314 676 c 0,4,5
 268 675 268 675 244 652 c 0,6,7
 219 628 219 628 210 598 c 128,-1,8
 201 568 201 568 201 526 c 0,9,10
 201 523 201 523 200.5 506 c 128,-1,11
 200 489 200 489 199 457 c 1,12,-1
 152 457 l 2,13,14
 135 457 135 457 128 442 c 0,15,16
 119 428 119 428 119 412 c 256,17,18
 119 396 119 396 128 381 c 0,19,20
 136 370 136 370 152 370 c 2,21,-1
 199 370 l 1,22,-1
 199 41 l 2,23,24
 199 -9 199 -9 242 -10 c 0,25,26
 259 -10 259 -10 272 1 c 128,-1,27
 285 12 285 12 284 39 c 1,28,-1
 285 39 l 2,29,30
 287 41 287 41 285 41 c 2,31,-1
 285 370 l 1,32,-1
 398 370 l 2,33,34
 415 370 415 370 423 381 c 0,35,36
 430 396 430 396 429 412 c 0,37,38
 428 418 428 418 427 423.5 c 128,-1,39
 426 429 426 429 424 434 c 0,40,41
 413 457 413 457 395 457 c 2,42,-1
 285 457 l 1,43,44
 286 474 286 474 286 486 c 256,45,46
 286 498 286 498 286 506 c 0,47,48
 288 559 288 559 308 578 c 0,49,50
 318 591 318 591 340 591 c 0,51,52
 367 591 367 591 396 574 c 0,53,54
 408 567 408 567 420 562 c 128,-1,55
 432 557 432 557 445 555 c 0,56,57
 457 552 457 552 465 558 c 0,58,59
 481 575 481 575 479 601 c 0,0,1
EndSplineSet
EndChar

StartChar: g
Encoding: 103 103 74
Width: 600
Flags: W
LayerCount: 2
Fore
SplineSet
434 200 m 2,0,1
 434 148 434 148 386 114 c 0,2,3
 342 84 342 84 289 84 c 0,4,5
 172 84 172 84 172 235 c 0,6,7
 172 388 172 388 299 388 c 0,8,9
 373 388 373 388 434 338 c 1,10,-1
 434 200 l 2,0,1
520 200 m 2,11,12
 520 260 520 260 520 318 c 0,13,14
 520 377 520 377 519 436 c 0,15,16
 518 479 518 479 478 479 c 0,17,18
 432 479 432 479 434 434 c 1,19,20
 369 480 369 480 292 480 c 0,21,22
 195 480 195 480 136 409 c 0,23,24
 80 341 80 341 80 240 c 0,25,26
 80 174 80 174 100 123 c 0,27,28
 123 68 123 68 173 34 c 0,29,30
 225 0 225 0 282 0 c 0,31,32
 365 0 365 0 434 49 c 1,33,34
 439 -26 439 -26 399 -75 c 0,35,36
 355 -126 355 -126 270 -126 c 0,37,38
 231 -126 231 -126 172 -115 c 1,39,40
 144 -102 144 -102 112 -98.5 c 128,-1,41
 80 -95 80 -95 68 -126 c 0,42,43
 55 -161 55 -161 84 -179 c 128,-1,44
 113 -197 113 -197 172 -208 c 1,45,46
 236 -213 236 -213 290 -216 c 0,47,48
 389 -215 389 -215 454.5 -146.5 c 128,-1,49
 520 -78 520 -78 520 23 c 2,50,-1
 520 200 l 2,11,12
EndSplineSet
EndChar

StartChar: h
Encoding: 104 104 75
Width: 600
Flags: W
LayerCount: 2
Fore
SplineSet
504 328 m 2,0,1
 504 407 504 407 463 446 c 128,-1,2
 422 485 422 485 346 485 c 0,3,4
 298 485 298 485 260 469 c 128,-1,5
 222 453 222 453 183 426 c 1,6,-1
 183 671 l 2,7,8
 183 688 183 688 171 696 c 128,-1,9
 159 704 159 704 140 704 c 0,10,11
 122 704 122 704 109 694 c 128,-1,12
 96 684 96 684 96 666 c 2,13,-1
 96 23 l 2,14,15
 96 8 96 8 109 -1 c 128,-1,16
 122 -10 122 -10 136 -10 c 0,17,18
 153 -10 153 -10 168 -5 c 128,-1,19
 183 0 183 0 183 23 c 2,20,-1
 183 312 l 1,21,22
 203 340 203 340 219 354.5 c 128,-1,23
 235 369 235 369 253 379 c 0,24,25
 290 400 290 400 356 400 c 0,26,27
 417 400 417 400 417 341 c 2,28,-1
 417 31 l 2,29,30
 417 16 417 16 433 5.5 c 128,-1,31
 449 -5 449 -5 463 -5 c 0,32,33
 484 -5 484 -5 494 1.5 c 128,-1,34
 504 8 504 8 504 31 c 2,35,-1
 504 328 l 2,0,1
EndSplineSet
EndChar

StartChar: i
Encoding: 105 105 76
Width: 600
Flags: W
LayerCount: 2
Fore
SplineSet
356 608 m 4,0,1
 356 633 356 633 338 651 c 132,-1,2
 320 669 320 669 296 669 c 4,3,4
 271 669 271 669 252.5 651 c 132,-1,5
 234 633 234 633 234 608 c 4,6,7
 234 584 234 584 252.5 565.5 c 132,-1,8
 271 547 271 547 296 547 c 4,9,10
 356 547 356 547 356 608 c 4,0,1
362 12 m 1,11,-1
 362 430 l 2,12,13
 362 449 362 449 352 460 c 128,-1,14
 342 471 342 471 304 471 c 2,15,-1
 181 471 l 2,16,17
 165 471 165 471 155.5 457 c 128,-1,18
 146 443 146 443 146 421 c 0,19,20
 146 384 146 384 181 384 c 2,21,-1
 275 384 l 1,22,-1
 275 16 l 2,23,24
 275 -9 275 -9 319 -9 c 0,25,26
 361 -9 361 -9 361 14 c 1,27,-1
 362 12 l 1,11,-1
EndSplineSet
EndChar

StartChar: j
Encoding: 106 106 77
Width: 600
Flags: W
LayerCount: 2
Fore
SplineSet
424 615 m 260,0,1
 424 642 424 642 405.5 659 c 132,-1,2
 387 676 387 676 360 676 c 4,3,4
 337 676 337 676 319.5 657 c 132,-1,5
 302 638 302 638 302 615 c 4,6,7
 302 591 302 591 319 573.5 c 132,-1,8
 336 556 336 556 360 556 c 4,9,10
 387 556 387 556 405.5 572 c 132,-1,11
 424 588 424 588 424 615 c 260,0,1
431 3 m 2,12,-1
 431 476 l 1,13,-1
 235 476 l 2,14,15
 190 476 190 476 192 431 c 0,16,17
 193 389 193 389 235 389 c 2,18,-1
 343 389 l 1,19,-1
 343 -2 l 2,20,21
 343 -102 343 -102 196 -102 c 0,22,23
 176 -102 176 -102 164 -102.5 c 128,-1,24
 152 -103 152 -103 147 -104 c 0,25,26
 122 -111 122 -111 122 -141 c 0,27,28
 122 -190 122 -190 210 -190 c 0,29,30
 431 -190 431 -190 431 3 c 2,12,-1
EndSplineSet
EndChar

StartChar: k
Encoding: 107 107 78
Width: 600
Flags: W
LayerCount: 2
Fore
SplineSet
509 44 m 0,0,1
 509 64 509 64 490 89 c 2,2,-1
 329 295 l 1,3,4
 483 436 483 436 483 453 c 0,5,6
 483 469 483 469 472.5 483 c 128,-1,7
 462 497 462 497 446 497 c 0,8,9
 419 497 419 497 381 471 c 1,10,-1
 219 324 l 1,11,-1
 219 643 l 2,12,13
 220 652 220 652 215.5 659.5 c 128,-1,14
 211 667 211 667 204.5 673.5 c 128,-1,15
 198 680 198 680 190.5 684 c 128,-1,16
 183 688 183 688 177 688 c 0,17,18
 161 688 161 688 147 679 c 128,-1,19
 133 670 133 670 133 653 c 2,20,-1
 133 29 l 2,21,22
 133 -10 133 -10 177 -10 c 0,23,24
 194 -10 194 -10 207 1 c 128,-1,25
 220 12 220 12 219 37 c 2,26,-1
 219 190 l 1,27,-1
 250 234 l 1,28,-1
 427 5 l 2,29,30
 438 -9 438 -9 455 -9 c 0,31,32
 499 -9 499 -9 509 44 c 0,0,1
EndSplineSet
EndChar

StartChar: l
Encoding: 108 108 79
Width: 600
Flags: W
HStem: -13 86<318.553 356 391 422.171>
VStem: 218 86<84.7119 172 657 683.444>
LayerCount: 2
Fore
SplineSet
218 657 m 0,0,1
 218 104 218 104 218 165 c 1,2,3
 218 61 218 61 258 25 c 0,4,5
 295 -13 295 -13 356 -13 c 2,6,-1
 391 -13 l 2,7,8
 430 -13 430 -13 432 31 c 0,9,10
 433 51 433 51 422.5 62 c 128,-1,11
 412 73 412 73 398 73 c 0,12,13
 397 73 397 73 350.5 73 c 128,-1,14
 304 73 304 73 304 172 c 2,15,-1
 304 657 l 2,16,17
 304 686 304 686 260 686 c 0,18,19
 218 686 218 686 218 657 c 0,0,1
EndSplineSet
EndChar

StartChar: m
Encoding: 109 109 80
Width: 600
Flags: W
HStem: 396 86<144.328 238.62>
VStem: 32 86<-5.52368 15 303 368.897> 254 87<-3.84668 14 301 366.889> 465 87<-5.2373 13 277 369.5>
LayerCount: 2
Fore
SplineSet
552 290 m 2,0,1
 552 364 552 364 542 382 c 128,-1,2
 532 400 532 400 510 441 c 1,3,4
 474 479 474 479 410 479 c 0,5,6
 380 479 380 479 347 468 c 0,7,8
 311 454 311 454 298 431 c 1,9,10
 262 465 262 465 256 469 c 0,11,12
 236 482 236 482 197 482 c 0,13,14
 154 482 154 482 127 439 c 1,15,-1
 125 438 l 1,16,17
 122 446 122 446 119 455 c 128,-1,18
 116 464 116 464 113 473 c 0,19,20
 105 491 105 491 85 491 c 0,21,22
 59 491 59 491 45.5 475 c 128,-1,23
 32 459 32 459 32 421 c 2,24,-1
 32 247 l 2,25,26
 32 206 32 206 32 189 c 0,27,28
 32 173 32 173 31.5 167.5 c 128,-1,29
 31 162 31 162 31 160 c 0,30,31
 31 159 31 159 31.5 147 c 128,-1,32
 32 135 32 135 32 105 c 0,33,34
 32 76 32 76 33 15 c 0,35,36
 35 -8 35 -8 77 -8 c 256,37,38
 119 -8 119 -8 119 15 c 2,39,-1
 118 303 l 2,40,41
 118 334 118 334 136 363 c 0,42,43
 155 396 155 396 186 396 c 0,44,45
 213 396 213 396 232 380 c 0,46,47
 254 364 254 364 254 336 c 2,48,-1
 254 14 l 2,49,50
 254 -6 254 -6 293 -6 c 0,51,52
 341 -6 341 -6 341 13 c 2,53,-1
 341 301 l 2,54,55
 341 377 341 377 400 381 c 0,56,57
 446 384 446 384 459 347 c 0,58,59
 466 329 466 329 466 277 c 2,60,-1
 465 13 l 2,61,62
 465 -7 465 -7 508 -7 c 0,63,64
 552 -7 552 -7 552 13 c 2,65,-1
 552 290 l 2,0,1
EndSplineSet
EndChar

StartChar: n
Encoding: 110 110 81
Width: 600
Flags: W
LayerCount: 2
Fore
SplineSet
461 -8 m 0,0,1
 505 -8 505 -8 505 24 c 2,2,-1
 505 291 l 2,3,4
 505 389 505 389 466 433 c 0,5,6
 422 481 422 481 327 481 c 0,7,8
 304 481 304 481 255 461 c 0,9,10
 205 440 205 440 192 422 c 1,11,-1
 192 421 l 1,12,13
 188 431 188 431 185 441 c 128,-1,14
 182 451 182 451 179 461 c 0,15,16
 169 483 169 483 147 483 c 0,17,18
 129 483 129 483 113 471 c 0,19,20
 95 457 95 457 95 440 c 2,21,-1
 95 29 l 2,22,23
 95 13 95 13 109.5 1.5 c 128,-1,24
 124 -10 124 -10 140 -10 c 0,25,26
 183 -10 183 -10 182 28 c 2,27,-1
 182 267 l 2,28,29
 182 317 182 317 233 358 c 0,30,31
 282 398 282 398 333 398 c 0,32,33
 379 398 379 398 398 376 c 0,34,35
 416 356 416 356 416 309 c 2,36,-1
 416 24 l 2,37,38
 416 -8 416 -8 461 -8 c 0,0,1
EndSplineSet
EndChar

StartChar: o
Encoding: 111 111 82
Width: 600
Flags: W
LayerCount: 2
Fore
SplineSet
528 234 m 0,0,1
 528 350 528 350 472 415 c 0,2,3
 410 484 410 484 297 484 c 0,4,5
 188 484 188 484 128 414 c 0,6,7
 72 347 72 347 72 237 c 0,8,9
 72 124 72 124 131 57 c 0,10,11
 193 -11 193 -11 305 -11 c 256,12,13
 417 -11 417 -11 475 56 c 0,14,15
 528 121 528 121 528 234 c 0,0,1
436 233 m 0,16,17
 436 172 436 172 406 129 c 0,18,19
 372 80 372 80 314 80 c 0,20,21
 248 80 248 80 204 124 c 0,22,23
 162 169 162 169 162 237 c 0,24,25
 162 302 162 302 196 345 c 0,26,27
 233 393 233 393 296 393 c 0,28,29
 361 393 361 393 400 344 c 0,30,31
 436 299 436 299 436 233 c 0,16,17
EndSplineSet
EndChar

StartChar: p
Encoding: 112 112 83
Width: 600
Flags: W
LayerCount: 2
Fore
SplineSet
188 427 m 1,0,-1
 187 461 l 2,1,2
 188 489 188 489 144 493 c 0,3,4
 101 496 101 496 101 462 c 2,5,-1
 101 -203 l 2,6,7
 101 -219 101 -219 116 -226 c 0,8,9
 129 -235 129 -235 145 -235 c 0,10,11
 187 -235 187 -235 187 -201 c 2,12,-1
 186 28 l 1,13,14
 265 -12 265 -12 324 -12 c 0,15,16
 392 -12 392 -12 445 30 c 0,17,18
 490 67 490 67 510 122.5 c 128,-1,19
 530 178 530 178 527 238 c 0,20,21
 526 292 526 292 521 330 c 0,22,23
 510 435 510 435 425 469 c 0,24,25
 375 489 375 489 293 480 c 0,26,27
 266 477 266 477 241 465 c 128,-1,28
 216 453 216 453 188 427 c 1,0,-1
297 388 m 0,29,30
 345 398 345 398 375 391 c 0,31,32
 405 383 405 383 421 361 c 0,33,34
 448 327 448 327 446 233 c 0,35,36
 445 183 445 183 431 148 c 0,37,38
 400 70 400 70 305 81 c 0,39,40
 259 85 259 85 187 125 c 1,41,-1
 187 318 l 1,42,43
 198 329 198 329 211.5 340 c 128,-1,44
 225 351 225 351 241 362 c 0,45,46
 269 382 269 382 297 388 c 0,29,30
EndSplineSet
EndChar

StartChar: q
Encoding: 113 113 84
Width: 600
Flags: W
LayerCount: 2
Fore
SplineSet
423 427 m 1,0,-1
 424 461 l 2,1,2
 423 489 423 489 467 493 c 0,3,4
 510 496 510 496 510 462 c 2,5,-1
 510 -203 l 2,6,7
 510 -219 510 -219 495 -226 c 0,8,9
 482 -235 482 -235 466 -235 c 0,10,11
 424 -235 424 -235 424 -201 c 2,12,-1
 425 28 l 1,13,14
 346 -12 346 -12 287 -12 c 0,15,16
 219 -12 219 -12 166 30 c 0,17,18
 121 67 121 67 99 122.5 c 128,-1,19
 77 178 77 178 80 238 c 0,20,21
 81 292 81 292 86 330 c 0,22,23
 101 435 101 435 186 469 c 0,24,25
 236 489 236 489 318 480 c 0,26,27
 345 477 345 477 370 465 c 128,-1,28
 395 453 395 453 423 427 c 1,0,-1
314 388 m 0,29,30
 266 398 266 398 236 391 c 0,31,32
 206 383 206 383 190 361 c 0,33,34
 163 327 163 327 165 233 c 0,35,36
 166 183 166 183 180 148 c 0,37,38
 211 70 211 70 306 81 c 0,39,40
 352 85 352 85 424 125 c 1,41,-1
 424 318 l 1,42,43
 413 329 413 329 399.5 340 c 128,-1,44
 386 351 386 351 370 362 c 0,45,46
 342 382 342 382 314 388 c 0,29,30
EndSplineSet
EndChar

StartChar: r
Encoding: 114 114 85
Width: 600
Flags: W
LayerCount: 2
Fore
SplineSet
517 405 m 0,0,1
 517 444 517 444 469 464 c 0,2,3
 434 479 434 479 388 479 c 0,4,5
 294 479 294 479 215 419 c 1,6,7
 214 437 214 437 213 449.5 c 128,-1,8
 212 462 212 462 210 469 c 0,9,10
 200 494 200 494 172 494 c 0,11,12
 127 494 127 494 128 432 c 2,13,-1
 128 22 l 2,14,15
 128 -9 128 -9 172 -9 c 0,16,17
 214 -9 214 -9 214 22 c 2,18,-1
 214 300 l 1,19,20
 291 389 291 389 393 389 c 0,21,22
 427 389 427 389 496 364 c 1,23,24
 517 368 517 368 517 405 c 0,0,1
EndSplineSet
EndChar

StartChar: s
Encoding: 115 115 86
Width: 600
Flags: W
LayerCount: 2
Fore
SplineSet
481 132 m 0,0,1
 481 151 481 151 473 172 c 0,2,3
 447 236 447 236 376 261 c 0,4,5
 346 268 346 268 316 275 c 128,-1,6
 286 282 286 282 257 290 c 0,7,8
 199 303 199 303 199 340 c 0,9,10
 199 372 199 372 233 388 c 0,11,12
 260 399 260 399 295 399 c 0,13,14
 320 399 320 399 364 384 c 0,15,16
 409 369 409 369 431 369 c 0,17,18
 445 369 445 369 454 382 c 0,19,20
 462 395 462 395 462 409 c 0,21,22
 462 443 462 443 390 463 c 0,23,24
 337 478 337 478 288 478 c 0,25,26
 223 478 223 478 175 442 c 0,27,28
 121 404 121 404 121 342 c 0,29,30
 121 300 121 300 149 263 c 0,31,32
 176 228 176 228 242 211 c 0,33,34
 268 206 268 206 294 201 c 128,-1,35
 320 196 320 196 346 191 c 0,36,37
 395 176 395 176 395 137 c 0,38,39
 395 106 395 106 362 90 c 0,40,41
 336 77 336 77 303 77 c 256,42,43
 270 77 270 77 218 97 c 128,-1,44
 166 117 166 117 159 117 c 0,45,46
 143 117 143 117 130.5 104.5 c 128,-1,47
 118 92 118 92 118 76 c 0,48,49
 118 35 118 35 191 10 c 0,50,51
 248 -7 248 -7 299 -7 c 0,52,53
 368 -7 368 -7 420 27 c 0,54,55
 481 67 481 67 481 132 c 0,0,1
EndSplineSet
EndChar

StartChar: t
Encoding: 116 116 87
Width: 600
Flags: W
HStem: -11 78<303.369 414.908> 384 86<119.236 141 404 426.718>
VStem: 201 87<82.4805 170 641 676.146>
LayerCount: 2
Fore
SplineSet
200 646 m 2,0,-1
 200 470 l 1,1,-1
 141 470 l 2,2,3
 126 470 126 470 122 455 c 0,4,5
 116 443 116 443 116 431 c 0,6,7
 116 410 116 410 123 396 c 0,8,9
 127 384 127 384 138 384 c 2,10,-1
 201 384 l 1,11,-1
 201 169 l 2,12,13
 201 80 201 80 234 34 c 0,14,15
 266 -10 266 -10 358 -11 c 0,16,17
 389 -11 389 -11 412 -4.5 c 128,-1,18
 435 2 435 2 465 22 c 0,19,20
 480 32 480 32 483 48 c 2,21,-1
 484 56 l 2,22,23
 484 71 484 71 477.5 83 c 128,-1,24
 471 95 471 95 463 100 c 0,25,26
 458 103 458 103 451 103 c 0,27,28
 443 103 443 103 436 99 c 2,29,-1
 407 75 l 2,30,31
 396 68 396 68 360 67 c 0,32,33
 314 67 314 67 299 94 c 0,34,35
 288 114 288 114 288 170 c 2,36,-1
 288 384 l 1,37,-1
 404 384 l 2,38,39
 418 384 418 384 427 396 c 0,40,41
 435 410 435 410 438 435 c 0,42,43
 438 468 438 468 407 470 c 2,44,-1
 287 470 l 1,45,-1
 287 641 l 2,46,47
 287 679 287 679 243 681 c 2,48,-1
 241 681 l 2,49,50
 227 681 227 681 213.5 672 c 128,-1,51
 200 663 200 663 200 646 c 2,0,-1
EndSplineSet
EndChar

StartChar: u
Encoding: 117 117 88
Width: 600
Flags: W
LayerCount: 2
Fore
SplineSet
506 31 m 2,0,-1
 506 160 l 2,1,2
 506 183 506 183 506 218 c 0,3,4
 506 254 506 254 505 303 c 2,5,-1
 505 447 l 2,6,7
 505 483 505 483 469 483 c 0,8,9
 454 483 454 483 438 475 c 0,10,11
 420 464 420 464 420 450 c 2,12,-1
 420 140 l 2,13,14
 420 116 420 116 365 95 c 0,15,16
 317 78 317 78 287 78 c 0,17,18
 221 78 221 78 199 109 c 0,19,20
 184 133 184 133 182 204 c 2,21,-1
 181 451 l 2,22,23
 181 485 181 485 139 485 c 0,24,25
 122 485 122 485 108 472.5 c 128,-1,26
 94 460 94 460 94 443 c 2,27,-1
 94 207 l 2,28,29
 94 105 94 105 124 56 c 0,30,31
 161 -8 161 -8 256 -8 c 0,32,33
 370 -8 370 -8 418 34 c 1,34,35
 421 15 421 15 434 1 c 0,36,37
 448 -13 448 -13 466 -13 c 0,38,39
 493 -13 493 -13 500 -3 c 0,40,41
 506 4 506 4 506 31 c 2,0,-1
EndSplineSet
EndChar

StartChar: v
Encoding: 118 118 89
Width: 600
Flags: W
LayerCount: 2
Fore
SplineSet
502 455 m 0,0,1
 502 486 502 486 458 486 c 0,2,3
 409 486 409 486 399 453 c 2,4,-1
 297 180 l 1,5,-1
 199 456 l 2,6,7
 187 485 187 485 154 485 c 0,8,9
 97 485 97 485 97 452 c 0,10,11
 97 441 97 441 172 233 c 0,12,13
 247 34 247 34 260 12 c 0,14,15
 273 -12 273 -12 299 -12 c 0,16,17
 321 -12 321 -12 331 10 c 0,18,19
 341 30 341 30 364 83 c 128,-1,20
 387 136 387 136 422 233 c 0,21,22
 502 438 502 438 502 455 c 0,0,1
EndSplineSet
EndChar

StartChar: w
Encoding: 119 119 90
Width: 600
Flags: W
LayerCount: 2
Fore
SplineSet
534 451 m 0,0,1
 534 466 534 466 512 475.5 c 128,-1,2
 490 485 490 485 475 485 c 0,3,4
 456 485 456 485 449 454 c 2,5,-1
 385 171 l 1,6,-1
 303 294 l 1,7,-1
 220 179 l 1,8,-1
 154 443 l 2,9,10
 152 451 152 451 146 470 c 128,-1,11
 140 489 140 489 123 489 c 0,12,13
 105 489 105 489 85 476 c 128,-1,14
 65 463 65 463 65 445 c 0,15,16
 65 434 65 434 118 230 c 0,17,18
 170 30 170 30 180 9 c 0,19,20
 189 -10 189 -10 204 -10 c 0,21,22
 221 -10 221 -10 225 0 c 2,23,-1
 302 144 l 1,24,-1
 389 1 l 2,25,26
 397 -13 397 -13 415 -13 c 0,27,28
 427 -13 427 -13 435 5 c 0,29,30
 445 29 445 29 489 230 c 0,31,32
 534 431 534 431 534 451 c 0,0,1
EndSplineSet
EndChar

StartChar: x
Encoding: 120 120 91
Width: 600
Flags: W
LayerCount: 2
Fore
SplineSet
477 71 m 2,0,-1
 351 240 l 1,1,2
 492 436 492 436 492 451 c 0,3,4
 492 463 492 463 478 473 c 128,-1,5
 464 483 464 483 439 483 c 0,6,7
 415 483 415 483 404 466 c 2,8,-1
 300 311 l 1,9,-1
 172 471 l 1,10,11
 105 497 105 497 89 443 c 1,12,-1
 248 238 l 1,13,-1
 101 33 l 1,14,15
 89 -9 89 -9 143 -7 c 0,16,17
 175 -7 175 -7 194 15 c 2,18,-1
 300 166 l 1,19,-1
 403 22 l 2,20,21
 422 -6 422 -6 464 -6 c 1,22,23
 514 26 514 26 477 71 c 2,0,-1
EndSplineSet
EndChar

StartChar: y
Encoding: 121 121 92
Width: 600
Flags: W
LayerCount: 2
Fore
SplineSet
498 454 m 0,0,1
 498 479 498 479 444 479 c 0,2,3
 407 479 407 479 397 452 c 2,4,-1
 304 193 l 1,5,-1
 207 454 l 2,6,7
 196 481 196 481 144 481 c 0,8,9
 102 481 102 481 102 464 c 0,10,11
 102 448 102 448 249 73 c 1,12,13
 173 -115 173 -115 173 -127 c 0,14,15
 173 -136 173 -136 178 -144 c 128,-1,16
 183 -152 183 -152 197 -159.5 c 128,-1,17
 211 -167 211 -167 220 -170 c 128,-1,18
 229 -173 229 -173 237 -172 c 0,19,20
 257 -169 257 -169 278 -121 c 128,-1,21
 299 -73 299 -73 306.5 -53.5 c 128,-1,22
 314 -34 314 -34 322 -11 c 2,23,-1
 445 311 l 2,24,25
 498 449 498 449 498 454 c 0,0,1
EndSplineSet
EndChar

StartChar: z
Encoding: 122 122 93
Width: 600
Flags: W
LayerCount: 2
Fore
SplineSet
424 474 m 2,0,-1
 169 475 l 2,1,2
 153 475 153 475 145 461 c 128,-1,3
 137 447 137 447 138 430 c 0,4,5
 137 414 137 414 144.5 400.5 c 128,-1,6
 152 387 152 387 167 387 c 2,7,-1
 330 387 l 1,8,-1
 129 65 l 2,9,10
 115 45 115 45 117 22.5 c 128,-1,11
 119 0 119 0 133 0 c 2,12,-1
 453 0 l 2,13,14
 488 1 488 1 488.5 44.5 c 128,-1,15
 489 88 489 88 450 88 c 2,16,-1
 245 88 l 1,17,-1
 450 422 l 2,18,19
 464 442 464 442 456 457 c 0,20,21
 448 474 448 474 424 474 c 2,0,-1
EndSplineSet
EndChar

StartChar: braceleft
Encoding: 123 123 94
Width: 600
Flags: W
LayerCount: 2
Fore
SplineSet
470 -92 m 0,0,1
 470 -63 470 -63 450 -54 c 0,2,3
 439 -50 439 -50 428 -46.5 c 128,-1,4
 417 -43 417 -43 406 -39 c 0,5,6
 376 -25 376 -25 362 8 c 0,7,8
 350 36 350 36 342 114 c 1,9,10
 347 211 347 211 337 247 c 0,11,12
 322 311 322 311 272 328 c 1,13,14
 315 346 315 346 332 393 c 0,15,16
 342 423 342 423 342 483 c 0,17,18
 342 523 342 523 342.5 546.5 c 128,-1,19
 343 570 343 570 344 578 c 0,20,21
 350 639 350 639 380 662 c 0,22,23
 384 666 384 666 431 682 c 0,24,25
 462 692 462 692 462 719 c 0,26,27
 462 763 462 763 429 763 c 0,28,29
 332 763 332 763 297 704 c 0,30,31
 273 663 273 663 269 568 c 0,32,33
 267 514 267 514 262 477.5 c 128,-1,34
 257 441 257 441 250 422 c 0,35,36
 234 378 234 378 202 364 c 0,37,38
 189 361 189 361 177 358 c 128,-1,39
 165 355 165 355 152 353 c 0,40,41
 129 347 129 347 129 320 c 0,42,43
 129 294 129 294 151 288 c 0,44,45
 164 285 164 285 176 282 c 128,-1,46
 188 279 188 279 201 277 c 0,47,48
 233 263 233 263 248 221 c 0,49,50
 262 182 262 182 269 104 c 1,51,52
 266 21 266 21 276 -14 c 0,53,54
 293 -77 293 -77 345 -108 c 0,55,56
 384 -132 384 -132 431 -132 c 0,57,58
 470 -132 470 -132 470 -92 c 0,0,1
EndSplineSet
EndChar

StartChar: bar
Encoding: 124 124 95
Width: 600
Flags: W
LayerCount: 2
Fore
SplineSet
343 -78 m 2,0,-1
 343 718 l 2,1,2
 342 733 342 733 329.5 743.5 c 128,-1,3
 317 754 317 754 302 754 c 0,4,5
 256 754 256 754 256 715 c 2,6,-1
 256 -80 l 2,7,8
 256 -113 256 -113 296 -113 c 0,9,10
 343 -113 343 -113 343 -78 c 2,0,-1
EndSplineSet
EndChar

StartChar: braceright
Encoding: 125 125 96
Width: 600
Flags: W
LayerCount: 2
Fore
SplineSet
470 320 m 0,0,1
 470 347 470 347 448 353 c 0,2,3
 436 355 436 355 424 358 c 128,-1,4
 412 361 412 361 400 364 c 0,5,6
 367 378 367 378 351 422 c 0,7,8
 337 461 337 461 331 565 c 0,9,10
 326 666 326 666 305 702 c 0,11,12
 271 763 271 763 176 763 c 0,13,14
 138 763 138 763 138 723 c 0,15,16
 138 693 138 693 169 683 c 0,17,18
 217 663 217 663 226 656 c 0,19,20
 257 631 257 631 257 565 c 0,21,22
 257 560 257 560 257 551 c 0,23,24
 257 543 257 543 256 530 c 2,25,-1
 256 491 l 2,26,27
 256 359 256 359 325 328 c 1,28,29
 276 312 276 312 261 246 c 0,30,31
 253 209 253 209 257 119 c 1,32,33
 251 36 251 36 239 8 c 0,34,35
 224 -25 224 -25 195 -39 c 0,36,37
 184 -43 184 -43 173 -46.5 c 128,-1,38
 162 -50 162 -50 151 -54 c 0,39,40
 130 -65 130 -65 130 -92 c 0,41,42
 130 -132 130 -132 167 -132 c 0,43,44
 266 -132 266 -132 302 -69 c 0,45,46
 326 -28 326 -28 331 68 c 0,47,48
 338 179 338 179 352 220 c 0,49,50
 368 263 368 263 400 277 c 0,51,52
 412 280 412 280 424 283 c 128,-1,53
 436 286 436 286 448 288 c 0,54,55
 470 292 470 292 470 320 c 0,0,1
EndSplineSet
EndChar

StartChar: FL201Ah
Encoding: 8218 8218 97
Width: 600
Flags: W
LayerCount: 2
Fore
SplineSet
367 -18 m 0,0,1
 381 32 381 32 367 67 c 0,2,3
 347 115 347 115 295 115 c 0,4,5
 265 115 265 115 242 96.5 c 128,-1,6
 219 78 219 78 219 49 c 0,7,8
 219 -6 219 -6 271 -15 c 0,9,10
 308 -22 308 -22 308 -39 c 0,11,12
 308 -75 308 -75 256 -94 c 2,13,-1
 219 -107 l 1,14,-1
 219 -159 l 1,15,16
 339 -121 339 -121 367 -18 c 0,0,1
EndSplineSet
EndChar

StartChar: FL201Eh
Encoding: 8222 8222 98
Width: 600
Flags: W
LayerCount: 2
Fore
SplineSet
479 -18 m 0,0,1
 493 32 493 32 479 67 c 0,2,3
 459 115 459 115 407 115 c 0,4,5
 377 115 377 115 354 96.5 c 128,-1,6
 331 78 331 78 331 49 c 0,7,8
 331 -6 331 -6 383 -15 c 0,9,10
 420 -22 420 -22 420 -39 c 0,11,12
 420 -75 420 -75 368 -94 c 2,13,-1
 331 -107 l 1,14,-1
 331 -159 l 1,15,16
 451 -121 451 -121 479 -18 c 0,0,1
254 -18 m 0,17,18
 268 32 268 32 254 67 c 0,19,20
 234 115 234 115 182 115 c 0,21,22
 152 115 152 115 129 96.5 c 128,-1,23
 106 78 106 78 106 49 c 0,24,25
 106 -6 106 -6 158 -15 c 0,26,27
 195 -22 195 -22 195 -39 c 0,28,29
 195 -75 195 -75 143 -94 c 2,30,-1
 106 -107 l 1,31,-1
 106 -159 l 1,32,33
 226 -121 226 -121 254 -18 c 0,17,18
EndSplineSet
EndChar

StartChar: FL2026h
Encoding: 8230 8230 99
Width: 600
Flags: W
LayerCount: 2
Fore
SplineSet
568 48 m 256,0,1
 568 75 568 75 547.5 95.5 c 128,-1,2
 527 116 527 116 500 116 c 256,3,4
 473 116 473 116 452.5 95.5 c 128,-1,5
 432 75 432 75 432 48 c 256,6,7
 432 21 432 21 452.5 1 c 128,-1,8
 473 -19 473 -19 500 -19 c 256,9,10
 527 -19 527 -19 547.5 1 c 128,-1,11
 568 21 568 21 568 48 c 256,0,1
368 48 m 256,12,13
 368 75 368 75 347.5 95.5 c 128,-1,14
 327 116 327 116 300 116 c 256,15,16
 273 116 273 116 252.5 95.5 c 128,-1,17
 232 75 232 75 232 48 c 256,18,19
 232 21 232 21 252.5 1 c 128,-1,20
 273 -19 273 -19 300 -19 c 256,21,22
 327 -19 327 -19 347.5 1 c 128,-1,23
 368 21 368 21 368 48 c 256,12,13
168 48 m 256,24,25
 168 75 168 75 147.5 95.5 c 128,-1,26
 127 116 127 116 100 116 c 256,27,28
 73 116 73 116 52.5 95.5 c 128,-1,29
 32 75 32 75 32 48 c 256,30,31
 32 21 32 21 52.5 1 c 128,-1,32
 73 -19 73 -19 100 -19 c 256,33,34
 127 -19 127 -19 147.5 1 c 128,-1,35
 168 21 168 21 168 48 c 256,24,25
EndSplineSet
EndChar

StartChar: OpenSingle
Encoding: 8216 8216 100
Width: 600
Flags: W
LayerCount: 2
Fore
SplineSet
209 556 m 0,0,1
 195 506 195 506 209 471 c 0,2,3
 229 423 229 423 281 423 c 0,4,5
 311 423 311 423 334 441.5 c 128,-1,6
 357 460 357 460 357 489 c 0,7,8
 357 544 357 544 305 553 c 0,9,10
 268 560 268 560 268 577 c 0,11,12
 268 613 268 613 320 632 c 2,13,-1
 357 645 l 1,14,-1
 357 697 l 1,15,16
 237 659 237 659 209 556 c 0,0,1
EndSplineSet
EndChar

StartChar: CloseSingle
Encoding: 8217 8217 101
Width: 600
Flags: W
LayerCount: 2
Fore
SplineSet
337 549 m 0,0,1
 351 599 351 599 337 634 c 0,2,3
 317 682 317 682 265 682 c 0,4,5
 235 682 235 682 212 663.5 c 128,-1,6
 189 645 189 645 189 616 c 0,7,8
 189 561 189 561 241 552 c 0,9,10
 278 545 278 545 278 528 c 0,11,12
 278 492 278 492 226 473 c 2,13,-1
 189 460 l 1,14,-1
 189 408 l 1,15,16
 309 446 309 446 337 549 c 0,0,1
EndSplineSet
EndChar

StartChar: OpenDouble
Encoding: 8220 8220 102
Width: 600
Flags: W
LayerCount: 2
Fore
SplineSet
116 553 m 0,0,1
 102 503 102 503 116 468 c 0,2,3
 136 420 136 420 188 420 c 0,4,5
 218 420 218 420 241 438.5 c 128,-1,6
 264 457 264 457 264 486 c 0,7,8
 264 541 264 541 212 550 c 0,9,10
 175 557 175 557 175 574 c 0,11,12
 175 610 175 610 227 629 c 2,13,-1
 264 642 l 1,14,-1
 264 694 l 1,15,16
 144 656 144 656 116 553 c 0,0,1
341 553 m 0,17,18
 327 503 327 503 341 468 c 0,19,20
 361 420 361 420 413 420 c 0,21,22
 443 420 443 420 466 438.5 c 128,-1,23
 489 457 489 457 489 486 c 0,24,25
 489 541 489 541 437 550 c 0,26,27
 400 557 400 557 400 574 c 0,28,29
 400 610 400 610 452 629 c 2,30,-1
 489 642 l 1,31,-1
 489 694 l 1,32,33
 369 656 369 656 341 553 c 0,17,18
EndSplineSet
EndChar

StartChar: CloseDouble
Encoding: 8221 8221 103
Width: 600
Flags: W
LayerCount: 2
Fore
SplineSet
476 545 m 0,0,1
 490 595 490 595 476 630 c 0,2,3
 456 678 456 678 404 678 c 0,4,5
 374 678 374 678 351 659.5 c 128,-1,6
 328 641 328 641 328 612 c 0,7,8
 328 557 328 557 380 548 c 0,9,10
 417 541 417 541 417 524 c 0,11,12
 417 488 417 488 365 469 c 2,13,-1
 328 456 l 1,14,-1
 328 404 l 1,15,16
 448 442 448 442 476 545 c 0,0,1
251 545 m 0,17,18
 265 595 265 595 251 630 c 0,19,20
 231 678 231 678 179 678 c 0,21,22
 149 678 149 678 126 659.5 c 128,-1,23
 103 641 103 641 103 612 c 0,24,25
 103 557 103 557 155 548 c 0,26,27
 192 541 192 541 192 524 c 0,28,29
 192 488 192 488 140 469 c 2,30,-1
 103 456 l 1,31,-1
 103 404 l 1,32,33
 223 442 223 442 251 545 c 0,17,18
EndSplineSet
EndChar

StartChar: FL00A1h
Encoding: 161 161 105
Width: 600
Flags: W
LayerCount: 2
Fore
SplineSet
337 458 m 2,0,-1
 337 2 l 2,1,2
 337 -15 337 -15 324.5 -26.5 c 128,-1,3
 312 -38 312 -38 294 -38 c 0,4,5
 275 -38 275 -38 263 -25.5 c 128,-1,6
 251 -13 251 -13 251 4 c 2,7,-1
 251 455 l 2,8,9
 251 473 251 473 264 485.5 c 128,-1,10
 277 498 277 498 294 498 c 0,11,12
 310 498 310 498 323.5 486.5 c 128,-1,13
 337 475 337 475 337 458 c 2,0,-1
369 679 m 0,14,15
 372 622 372 622 354.5 608 c 128,-1,16
 337 594 337 594 295 594 c 0,17,18
 251 594 251 594 240.5 611 c 128,-1,19
 230 628 230 628 227 688 c 0,20,21
 227 736 227 736 231.5 752 c 128,-1,22
 236 768 236 768 296 767 c 0,23,24
 355 768 355 768 362 750.5 c 128,-1,25
 369 733 369 733 369 679 c 0,14,15
EndSplineSet
EndChar

StartChar: cent
Encoding: 162 162 106
Width: 600
Flags: W
LayerCount: 2
Fore
SplineSet
279 88 m 1,0,1
 182 118 182 118 182 250 c 0,2,3
 182 296 182 296 208 335 c 128,-1,4
 234 374 234 374 279 389 c 1,5,-1
 279 88 l 1,0,1
364 475 m 0,6,7
 364 479 364 479 365 495.5 c 128,-1,8
 366 512 366 512 366 521 c 0,9,10
 366 583 366 583 325 583 c 0,11,12
 277 583 277 583 277 525 c 0,13,14
 277 517 277 517 278 500.5 c 128,-1,15
 279 484 279 484 279 477 c 1,16,17
 188 464 188 464 140 398 c 0,18,19
 95 336 95 336 95 242 c 0,20,21
 95 143 95 143 138 81 c 0,22,23
 185 11 185 11 279 -2 c 1,24,25
 279 -9 279 -9 277.5 -27 c 128,-1,26
 276 -45 276 -45 276 -55 c 0,27,28
 276 -113 276 -113 318 -113 c 0,29,30
 366 -113 366 -113 366 -55 c 0,31,32
 366 -47 366 -47 364.5 -30 c 128,-1,33
 363 -13 363 -13 363 -5 c 1,34,35
 417 -1 417 -1 441 13 c 0,36,37
 473 28 473 28 494 69 c 0,38,39
 504 86 504 86 504 97 c 0,40,41
 504 112 504 112 495 127 c 0,42,43
 484 144 484 144 472 144 c 0,44,45
 467 144 467 144 435 118 c 0,46,47
 401 89 401 89 364 83 c 1,48,-1
 364 389 l 2,49,50
 367 388 367 388 378.5 381.5 c 128,-1,51
 390 375 390 375 410 364 c 0,52,53
 441 345 441 345 452 345 c 0,54,55
 467 345 467 345 482 354 c 0,56,57
 498 363 498 363 498 377 c 0,58,59
 498 413 498 413 447 442 c 0,60,61
 409 465 409 465 364 475 c 0,6,7
EndSplineSet
EndChar

StartChar: sterling
Encoding: 163 163 107
Width: 600
Flags: W
LayerCount: 2
Fore
SplineSet
545 67 m 0,0,1
 545 99 545 99 514 108 c 1,2,3
 493 98 493 98 472.5 88 c 128,-1,4
 452 78 452 78 427 78 c 0,5,6
 396 78 396 78 360 105 c 0,7,8
 345 116 345 116 330 128 c 128,-1,9
 315 140 315 140 300 151 c 1,10,11
 307 183 307 183 307 214 c 0,12,13
 307 246 307 246 295 291 c 1,14,-1
 394 291 l 2,15,16
 430 291 430 291 430 333 c 0,17,18
 430 349 430 349 420 362 c 0,19,20
 410 378 410 378 395 378 c 2,21,-1
 284 378 l 1,22,23
 269 471 269 471 269 499 c 0,24,25
 269 535 269 535 288.5 558.5 c 128,-1,26
 308 582 308 582 343 582 c 256,27,28
 378 582 378 582 425 544 c 128,-1,29
 472 506 472 506 482 506 c 0,30,31
 498 506 498 506 510 522.5 c 128,-1,32
 522 539 522 539 522 555 c 0,33,34
 522 583 522 583 429 640 c 0,35,36
 384 667 384 667 339 667 c 0,37,38
 183 667 183 667 183 498 c 0,39,40
 183 475 183 475 195 378 c 1,41,42
 174 378 174 378 161.5 377.5 c 128,-1,43
 149 377 149 377 144 376 c 0,44,45
 118 368 118 368 118 337 c 0,46,47
 118 288 118 288 169 290 c 2,48,-1
 205 291 l 1,49,50
 219 233 219 233 219 186 c 1,51,52
 177 205 177 205 147 205 c 0,53,54
 109 205 109 205 81 175 c 0,55,56
 54 146 54 146 54 107 c 0,57,58
 54 61 54 61 87 28 c 0,59,60
 121 -5 121 -5 167 -5 c 0,61,62
 197 -5 197 -5 234 18 c 0,63,64
 270 42 270 42 279 70 c 1,65,66
 298 58 298 58 317 46 c 128,-1,67
 336 34 336 34 355 23 c 0,68,69
 399 -2 399 -2 438 -2 c 0,70,71
 462 -2 462 -2 500 10 c 1,72,73
 545 46 545 46 545 67 c 0,0,1
207 109 m 1,74,75
 201 70 201 70 164 70 c 0,76,77
 153 70 153 70 143.5 79 c 128,-1,78
 134 88 134 88 134 100 c 0,79,80
 134 109 134 109 142.5 119 c 128,-1,81
 151 129 151 129 160 129 c 0,82,83
 182 129 182 129 207 109 c 1,74,75
EndSplineSet
EndChar

StartChar: Diamond
Encoding: 9674 9674 108
Width: 600
Flags: W
LayerCount: 2
Fore
SplineSet
533 320 m 0,0,1
 533 335 533 335 423 462 c 0,2,3
 313 588 313 588 300 588 c 0,4,5
 282 588 282 588 174 463 c 128,-1,6
 66 338 66 338 66 320 c 0,7,8
 66 301 66 301 174 178 c 128,-1,9
 282 55 282 55 300 55 c 0,10,11
 314 55 314 55 423 179 c 0,12,13
 533 304 533 304 533 320 c 0,0,1
443 322 m 1,14,-1
 298 155 l 1,15,-1
 156 320 l 1,16,-1
 297 482 l 1,17,-1
 443 322 l 1,14,-1
EndSplineSet
EndChar

StartChar: dieresis
Encoding: 168 168 109
Width: 600
Flags: W
LayerCount: 2
Fore
SplineSet
232 693 m 0,0,1
 232 707 232 707 225.5 720.5 c 128,-1,2
 219 734 219 734 208.5 744.5 c 128,-1,3
 198 755 198 755 185 761.5 c 128,-1,4
 172 768 172 768 158 768 c 0,5,6
 133 768 133 768 108.5 742.5 c 128,-1,7
 84 717 84 717 84 693 c 0,8,9
 84 667 84 667 108 643 c 128,-1,10
 132 619 132 619 158 619 c 0,11,12
 173 619 173 619 186 625 c 128,-1,13
 199 631 199 631 209.5 641.5 c 128,-1,14
 220 652 220 652 226 665 c 128,-1,15
 232 678 232 678 232 693 c 0,0,1
514 693 m 0,16,17
 514 707 514 707 507.5 720.5 c 128,-1,18
 501 734 501 734 490.5 744.5 c 128,-1,19
 480 755 480 755 467 761.5 c 128,-1,20
 454 768 454 768 440 768 c 0,21,22
 415 768 415 768 390.5 742.5 c 128,-1,23
 366 717 366 717 366 693 c 0,24,25
 366 667 366 667 390 643 c 128,-1,26
 414 619 414 619 440 619 c 0,27,28
 455 619 455 619 468 625 c 128,-1,29
 481 631 481 631 491.5 641.5 c 128,-1,30
 502 652 502 652 508 665 c 128,-1,31
 514 678 514 678 514 693 c 0,16,17
EndSplineSet
EndChar

StartChar: LE
Encoding: 8804 8804 110
Width: 600
Flags: W
LayerCount: 2
Fore
SplineSet
496 487 m 0,0,1
 496 504 496 504 483 517.5 c 128,-1,2
 470 531 470 531 452 531 c 0,3,4
 426 531 426 531 159 375 c 0,5,6
 113 348 113 348 113 327 c 0,7,8
 113 305 113 305 156 280 c 0,9,10
 194 257 194 257 231.5 235 c 128,-1,11
 269 213 269 213 307 190 c 0,12,13
 428 121 428 121 448 121 c 0,14,15
 465 121 465 121 478 133.5 c 128,-1,16
 491 146 491 146 491 164 c 0,17,18
 491 184 491 184 463 200 c 2,19,-1
 245 325 l 1,20,-1
 467 445 l 2,21,22
 496 460 496 460 496 487 c 0,0,1
487 28 m 0,23,24
 487 71 487 71 442 71 c 2,25,-1
 148 71 l 2,26,27
 132 71 132 71 121 59 c 128,-1,28
 110 47 110 47 104 28 c 1,29,30
 110 15 110 15 118.5 0.5 c 128,-1,31
 127 -14 127 -14 143 -14 c 2,32,-1
 367 -15 l 2,33,34
 373 -15 373 -15 387 -15.5 c 128,-1,35
 401 -16 401 -16 431 -15 c 0,36,37
 487 -16 487 -16 487 28 c 0,23,24
EndSplineSet
EndChar

StartChar: macron
Encoding: 175 175 111
Width: 600
Flags: W
LayerCount: 2
Fore
SplineSet
531 625 m 260,0,1
 531 645 531 645 516 657.5 c 132,-1,2
 501 670 501 670 472 670 c 6,3,-1
 116 670 l 6,4,5
 69 670 69 670 69 630 c 4,6,7
 69 610 69 610 82 596.5 c 132,-1,8
 95 583 95 583 111 583 c 6,9,-1
 472 583 l 6,10,11
 506 583 506 583 518.5 594 c 132,-1,12
 531 605 531 605 531 625 c 260,0,1
EndSplineSet
EndChar

StartChar: GE
Encoding: 8805 8805 112
Width: 600
Flags: W
LayerCount: 2
Fore
SplineSet
491 322 m 0,0,1
 491 345 491 345 442 373 c 2,2,-1
 173 522 l 2,3,4
 162 528 162 528 151 528 c 0,5,6
 134 528 134 528 120 514 c 128,-1,7
 106 500 106 500 106 482 c 0,8,9
 106 458 106 458 134 442 c 2,10,-1
 357 322 l 1,11,-1
 138 197 l 2,12,13
 113 184 113 184 113 159 c 0,14,15
 113 143 113 143 126 130.5 c 128,-1,16
 139 118 139 118 155 118 c 0,17,18
 184 118 184 118 337 211 c 0,19,20
 491 304 491 304 491 322 c 0,0,1
494 24 m 0,21,22
 494 68 494 68 454 68 c 2,23,-1
 160 68 l 2,24,25
 116 68 116 68 116 27 c 256,26,27
 116 -14 116 -14 155 -15 c 2,28,-1
 457 -17 l 2,29,30
 494 -17 494 -17 494 24 c 0,21,22
EndSplineSet
EndChar

StartChar: divide
Encoding: 247 247 113
Width: 600
Flags: W
LayerCount: 2
Fore
SplineSet
376 517 m 0,0,1
 374 531 374 531 368 544 c 128,-1,2
 362 557 362 557 351.5 567 c 128,-1,3
 341 577 341 577 328 583 c 128,-1,4
 315 589 315 589 300 589 c 0,5,6
 286 589 286 589 273.5 583 c 128,-1,7
 261 577 261 577 251.5 566.5 c 128,-1,8
 242 556 242 556 236 543 c 128,-1,9
 230 530 230 530 232 514 c 0,10,11
 230 483 230 483 248.5 460 c 128,-1,12
 267 437 267 437 301 437 c 0,13,14
 334 437 334 437 354 460 c 128,-1,15
 374 483 374 483 376 517 c 0,0,1
522 321 m 0,16,17
 522 368 522 368 486 368 c 2,18,-1
 108 368 l 2,19,20
 94 368 94 368 85 352 c 0,21,22
 78 339 78 339 78 323 c 0,23,24
 78 281 78 281 106 281 c 2,25,-1
 488 281 l 2,26,27
 522 281 522 281 522 321 c 0,16,17
376 128 m 0,28,29
 376 144 376 144 369.5 157.5 c 128,-1,30
 363 171 363 171 352.5 181.5 c 128,-1,31
 342 192 342 192 329 198.5 c 128,-1,32
 316 205 316 205 302 205 c 0,33,34
 276 205 276 205 254 181 c 0,35,36
 232 158 232 158 232 130 c 0,37,38
 232 57 232 57 305 57 c 2,39,-1
 306 57 l 1,40,-1
 305 57 l 2,41,42
 335 57 335 57 355.5 79 c 128,-1,43
 376 101 376 101 376 128 c 0,28,29
EndSplineSet
EndChar

StartChar: Delta
Encoding: 8710 8710 114
Width: 600
Flags: W
LayerCount: 2
Fore
SplineSet
560 46 m 0,0,1
 560 54 560 54 446.5 308 c 128,-1,2
 333 562 333 562 325 578 c 0,3,4
 316 595 316 595 306 595 c 0,5,6
 291 595 291 595 280 578 c 0,7,8
 267 560 267 560 153.5 306.5 c 128,-1,9
 40 53 40 53 40 48 c 0,10,11
 40 0 40 0 80 0 c 2,12,-1
 516 0 l 2,13,14
 534 0 534 0 547 14 c 128,-1,15
 560 28 560 28 560 46 c 0,0,1
443 82 m 1,16,-1
 150 82 l 1,17,-1
 300 413 l 1,18,-1
 443 82 l 1,16,-1
EndSplineSet
EndChar

StartChar: NEQ
Encoding: 8800 8800 115
Width: 600
Flags: W
LayerCount: 2
Fore
SplineSet
536 426 m 0,0,1
 536 471 536 471 482 470 c 2,2,-1
 448 470 l 1,3,4
 503 547 503 547 503 554 c 0,5,6
 503 580 503 580 460 580 c 0,7,8
 423 580 423 580 408 560 c 2,9,-1
 340 470 l 1,10,-1
 101 470 l 2,11,12
 84 470 84 470 73.5 456 c 128,-1,13
 63 442 63 442 63 425 c 256,14,15
 63 408 63 408 73.5 395.5 c 128,-1,16
 84 383 84 383 101 383 c 2,17,-1
 295 383 l 1,18,-1
 223 267 l 1,19,-1
 101 267 l 2,20,21
 86 267 86 267 76 252.5 c 128,-1,22
 66 238 66 238 66 222 c 0,23,24
 66 178 66 178 119 178 c 0,25,26
 127 178 127 178 143.5 179 c 128,-1,27
 160 180 160 180 167 180 c 1,28,29
 160 169 160 169 140 139.5 c 128,-1,30
 120 110 120 110 120 96 c 0,31,32
 120 69 120 69 159 60 c 1,33,34
 194 69 194 69 206 88 c 2,35,-1
 268 180 l 1,36,-1
 494 180 l 2,37,38
 531 180 531 180 531 218 c 0,39,40
 531 235 531 235 517.5 251 c 128,-1,41
 504 267 504 267 485 267 c 2,42,-1
 331 267 l 1,43,-1
 399 383 l 1,44,45
 406 383 406 383 427 381.5 c 128,-1,46
 448 380 448 380 484 383 c 1,47,48
 536 380 536 380 536 426 c 0,0,1
EndSplineSet
EndChar

StartChar: paragraph
Encoding: 182 182 116
Width: 600
Flags: W
LayerCount: 2
Fore
SplineSet
565 628 m 0,0,1
 565 646 565 646 555 659 c 128,-1,2
 545 672 545 672 528 672 c 2,3,-1
 262 670 l 2,4,5
 35 670 35 670 35 484 c 0,6,7
 35 395 35 395 103 327 c 128,-1,8
 171 259 171 259 261 259 c 1,9,-1
 261 -41 l 2,10,11
 261 -61 261 -61 273 -74 c 0,12,13
 285 -89 285 -89 304 -89 c 0,14,15
 349 -89 349 -89 347 -40 c 2,16,-1
 347 583 l 1,17,-1
 413 584 l 1,18,-1
 413 -40 l 2,19,20
 413 -60 413 -60 426 -75 c 128,-1,21
 439 -90 439 -90 458 -90 c 0,22,23
 498 -90 498 -90 498 -40 c 2,24,-1
 498 585 l 1,25,26
 536 585 536 585 538 585 c 0,27,28
 565 597 565 597 565 628 c 0,0,1
261 584 m 1,29,-1
 261 364 l 1,30,31
 211 364 211 364 171 389 c 0,32,33
 123 417 123 417 123 464 c 0,34,35
 123 532 123 532 159 561 c 0,36,37
 191 585 191 585 261 584 c 1,29,-1
EndSplineSet
EndChar

StartChar: yen
Encoding: 165 165 117
Width: 600
Flags: W
LayerCount: 2
Fore
SplineSet
485 124 m 0,0,1
 485 139 485 139 477 153 c 0,2,3
 468 168 468 168 453 168 c 2,4,-1
 342 168 l 1,5,-1
 342 225 l 1,6,-1
 453 225 l 2,7,8
 468 225 468 225 477 239 c 0,9,10
 485 252 485 252 485 267 c 0,11,12
 485 315 485 315 430 315 c 0,13,14
 425 315 425 315 416.5 314.5 c 128,-1,15
 408 314 408 314 397 313 c 128,-1,16
 386 312 386 312 377 312 c 0,17,18
 369 312 369 312 364 312 c 1,19,20
 427 437 427 437 468.5 522 c 128,-1,21
 510 607 510 607 530 655 c 1,22,23
 522 678 522 678 497 678 c 0,24,25
 448 678 448 678 435 651 c 2,26,-1
 297 382 l 1,27,-1
 167 653 l 2,28,29
 156 676 156 676 113 676 c 0,30,31
 69 676 69 676 69 657 c 0,32,33
 69 649 69 649 234 312 c 1,34,-1
 143 312 l 2,35,36
 128 312 128 312 119 296 c 0,37,38
 111 282 111 282 111 267 c 0,39,40
 111 225 111 225 137 225 c 2,41,-1
 256 225 l 1,42,-1
 255 168 l 1,43,-1
 145 168 l 2,44,45
 130 168 130 168 120.5 154 c 128,-1,46
 111 140 111 140 111 124 c 0,47,48
 111 109 111 109 119 96 c 0,49,50
 128 81 128 81 143 81 c 2,51,-1
 255 81 l 1,52,53
 255 74 255 74 253 54.5 c 128,-1,54
 251 35 251 35 251 25 c 0,55,56
 251 -27 251 -27 293 -27 c 0,57,58
 343 -27 343 -27 343 31 c 0,59,60
 343 39 343 39 342 56 c 128,-1,61
 341 73 341 73 341 81 c 1,62,-1
 451 81 l 2,63,64
 485 81 485 81 485 124 c 0,0,1
EndSplineSet
EndChar

StartChar: section
Encoding: 167 167 118
Width: 600
Flags: W
LayerCount: 2
Fore
SplineSet
518 126 m 0,0,1
 518 186 518 186 476 233 c 1,2,3
 494 236 494 236 508 260 c 0,4,5
 518 279 518 279 518 302 c 0,6,7
 518 384 518 384 443 434 c 1,8,9
 408 451 408 451 373 468.5 c 128,-1,10
 338 486 338 486 303 503 c 0,11,12
 228 540 228 540 228 592 c 0,13,14
 228 624 228 624 264 645 c 0,15,16
 295 662 295 662 328 662 c 256,17,18
 361 662 361 662 415 626 c 0,19,20
 470 590 470 590 476 590 c 0,21,22
 514 590 514 590 514 628 c 0,23,24
 514 672 514 672 441 706 c 0,25,26
 377 735 377 735 328 735 c 0,27,28
 258 735 258 735 205 700 c 0,29,30
 144 660 144 660 144 592 c 0,31,32
 144 545 144 545 166 511 c 1,33,34
 116 467 116 467 116 407 c 0,35,36
 116 313 116 313 200 270 c 1,37,-1
 356 216 l 2,38,39
 440 186 440 186 440 126 c 0,40,41
 440 41 440 41 316 41 c 0,42,43
 232 41 232 41 195 81 c 0,44,45
 178 100 178 100 160 155 c 0,46,47
 147 195 147 195 119 195 c 0,48,49
 81 195 81 195 81 154 c 0,50,51
 81 56 81 56 152 9 c 0,52,53
 214 -29 214 -29 316 -29 c 0,54,55
 401 -29 401 -29 455 4 c 0,56,57
 518 44 518 44 518 126 c 0,0,1
442 290 m 1,58,-1
 437 280 l 1,59,-1
 437 270 l 1,60,-1
 435 266 l 1,61,62
 425 271 425 271 402.5 278 c 128,-1,63
 380 285 380 285 344 295 c 0,64,65
 309 305 309 305 283.5 314 c 128,-1,66
 258 323 258 323 242 333 c 0,67,68
 194 361 194 361 194 407 c 0,69,70
 194 429 194 429 224 455 c 1,71,72
 285 427 285 427 317.5 412 c 128,-1,73
 350 397 350 397 354 395 c 0,74,75
 442 346 442 346 442 300 c 2,76,-1
 442 290 l 1,58,-1
EndSplineSet
EndChar

StartChar: ntilde
Encoding: 241 241 119
Width: 600
Flags: W
LayerCount: 2
Fore
SplineSet
461 -8 m 0,0,1
 505 -8 505 -8 505 24 c 2,2,-1
 505 291 l 2,3,4
 505 389 505 389 466 433 c 0,5,6
 422 481 422 481 327 481 c 0,7,8
 304 481 304 481 255 461 c 0,9,10
 205 440 205 440 192 422 c 1,11,-1
 192 421 l 1,12,13
 188 431 188 431 185 441 c 128,-1,14
 182 451 182 451 179 461 c 0,15,16
 169 483 169 483 147 483 c 0,17,18
 129 483 129 483 113 471 c 0,19,20
 95 457 95 457 95 440 c 2,21,-1
 95 29 l 2,22,23
 95 13 95 13 109.5 1.5 c 128,-1,24
 124 -10 124 -10 140 -10 c 0,25,26
 183 -10 183 -10 183 25 c 2,27,-1
 182 267 l 2,28,29
 182 317 182 317 233 358 c 0,30,31
 282 398 282 398 333 398 c 0,32,33
 379 398 379 398 398 376 c 0,34,35
 416 356 416 356 416 309 c 2,36,-1
 416 24 l 2,37,38
 416 -8 416 -8 461 -8 c 0,0,1
488 668 m 0,39,40
 488 710 488 710 463 710 c 0,41,42
 450 710 450 710 439 693 c 0,43,44
 424 667 424 667 416 661 c 0,45,46
 396 643 396 643 365 643 c 0,47,48
 336 643 336 643 287 671 c 0,49,50
 240 699 240 699 210 699 c 0,51,52
 182 699 182 699 153 676 c 0,53,54
 123 652 123 652 123 624 c 0,55,56
 123 611 123 611 131 595 c 0,57,58
 142 578 142 578 154 578 c 0,59,60
 159 578 159 578 173 599 c 0,61,62
 188 620 188 620 204 620 c 0,63,64
 233 620 233 620 288 594 c 0,65,66
 341 569 341 569 372 569 c 0,67,68
 420 569 420 569 452 594 c 0,69,70
 488 621 488 621 488 668 c 0,39,40
EndSplineSet
EndChar

StartChar: FL005Eh
Encoding: 94 94 120
Width: 600
Flags: W
LayerCount: 2
Fore
SplineSet
504 344 m 0,0,1
 504 364 504 364 433 489 c 0,2,3
 411 527 411 527 389.5 564.5 c 128,-1,4
 368 602 368 602 346 640 c 0,5,6
 320 687 320 687 301 687 c 0,7,8
 278 687 278 687 252 643 c 2,9,-1
 101 378 l 2,10,11
 95 367 95 367 95 354 c 0,12,13
 95 336 95 336 107 322.5 c 128,-1,14
 119 309 119 309 136 309 c 0,15,16
 156 309 156 309 172 337 c 2,17,-1
 296 555 l 1,18,-1
 416 333 l 2,19,20
 431 304 431 304 459 304 c 0,21,22
 476 304 476 304 490 315.5 c 128,-1,23
 504 327 504 327 504 344 c 0,0,1
EndSplineSet
EndChar

StartChar: FL007Eh
Encoding: 126 126 121
Width: 600
Flags: W
LayerCount: 2
Fore
SplineSet
542 366 m 0,0,1
 542 382 542 382 534 396 c 0,2,3
 525 414 525 414 509 414 c 0,4,5
 491 414 491 414 478 396 c 0,6,7
 467 383 467 383 460 374.5 c 128,-1,8
 453 366 453 366 448 362 c 0,9,10
 422 345 422 345 379 345 c 0,11,12
 341 345 341 345 275 373 c 0,13,14
 210 401 210 401 172 401 c 0,15,16
 136 401 136 401 98 375 c 0,17,18
 57 348 57 348 57 314 c 0,19,20
 57 297 57 297 68 280 c 0,21,22
 80 261 80 261 97 261 c 0,23,24
 103 261 103 261 123 281 c 128,-1,25
 143 301 143 301 164 301 c 0,26,27
 201 301 201 301 276 275 c 0,28,29
 348 250 348 250 388 250 c 0,30,31
 447 250 447 250 476 266 c 0,32,33
 511 284 511 284 534 334 c 0,34,35
 542 355 542 355 542 366 c 0,0,1
EndSplineSet
EndChar

StartChar: agrave
Encoding: 224 224 122
Width: 600
Flags: W
LayerCount: 2
Fore
SplineSet
518 11 m 0,0,1
 518 24 518 24 500 42 c 0,2,3
 483 62 483 62 483 95 c 0,4,5
 483 99 483 99 483 114 c 0,6,7
 483 130 483 130 484 156 c 128,-1,8
 485 182 485 182 485 201 c 0,9,10
 485 221 485 221 485 235 c 0,11,12
 485 277 485 277 482 288 c 0,13,14
 482 359 482 359 483 357 c 1,15,16
 474 418 474 418 411 449 c 0,17,18
 357 475 357 475 291 475 c 0,19,20
 240 475 240 475 182 460 c 0,21,22
 103 439 103 439 103 405 c 0,23,24
 103 358 103 358 131 358 c 0,25,26
 155 358 155 358 208 376 c 0,27,28
 260 394 260 394 290 394 c 0,29,30
 331 394 331 394 361 379 c 0,31,32
 399 359 399 359 399 324 c 2,33,-1
 399 291 l 1,34,35
 341 305 341 305 296 305 c 0,36,37
 215 305 215 305 154 265 c 0,38,39
 82 218 82 218 82 142 c 0,40,41
 82 70 82 70 146 28 c 0,42,43
 201 -6 201 -6 277 -6 c 0,44,45
 332 -6 332 -6 410 23 c 1,46,47
 445 -9 445 -9 473 -9 c 0,48,49
 518 -9 518 -9 518 11 c 0,0,1
396 110 m 1,50,51
 327 76 327 76 266 76 c 0,52,53
 233 76 233 76 202 87 c 0,54,55
 164 104 164 104 164 132 c 0,56,57
 164 181 164 181 209 205 c 0,58,59
 244 224 244 224 299 224 c 0,60,61
 319 224 319 224 343.5 221 c 128,-1,62
 368 218 368 218 396 211 c 1,63,-1
 396 110 l 1,50,51
399 572 m 4,64,65
 399 586 399 586 319 663 c 132,-1,66
 239 740 239 740 223 740 c 4,67,68
 208 740 208 740 195.5 727.5 c 132,-1,69
 183 715 183 715 183 699 c 4,70,71
 183 688 183 688 194 675 c 4,72,73
 332 526 332 526 353 526 c 4,74,75
 370 526 370 526 384.5 541 c 132,-1,76
 399 556 399 556 399 572 c 4,64,65
EndSplineSet
EndChar

StartChar: aacute
Encoding: 225 225 123
Width: 600
Flags: W
LayerCount: 2
Fore
SplineSet
518 11 m 0,0,1
 518 24 518 24 500 42 c 0,2,3
 483 62 483 62 483 95 c 0,4,5
 483 99 483 99 483 114 c 0,6,7
 483 130 483 130 484 156 c 128,-1,8
 485 182 485 182 485 201 c 0,9,10
 485 221 485 221 485 235 c 0,11,12
 485 277 485 277 482 288 c 0,13,14
 482 359 482 359 483 357 c 1,15,16
 474 418 474 418 411 449 c 0,17,18
 357 475 357 475 291 475 c 0,19,20
 240 475 240 475 182 460 c 0,21,22
 103 439 103 439 103 405 c 0,23,24
 103 358 103 358 131 358 c 0,25,26
 155 358 155 358 208 376 c 0,27,28
 260 394 260 394 290 394 c 0,29,30
 331 394 331 394 361 379 c 0,31,32
 399 359 399 359 399 324 c 2,33,-1
 399 291 l 1,34,35
 341 305 341 305 296 305 c 0,36,37
 215 305 215 305 154 265 c 0,38,39
 82 218 82 218 82 142 c 0,40,41
 82 70 82 70 146 28 c 0,42,43
 201 -6 201 -6 277 -6 c 0,44,45
 332 -6 332 -6 410 23 c 1,46,47
 445 -9 445 -9 473 -9 c 0,48,49
 518 -9 518 -9 518 11 c 0,0,1
396 110 m 1,50,51
 327 76 327 76 266 76 c 0,52,53
 233 76 233 76 202 87 c 0,54,55
 164 104 164 104 164 132 c 0,56,57
 164 181 164 181 209 205 c 0,58,59
 244 224 244 224 299 224 c 0,60,61
 319 224 319 224 343.5 221 c 128,-1,62
 368 218 368 218 396 211 c 1,63,-1
 396 110 l 1,50,51
183 572 m 4,64,65
 183 586 183 586 263 663 c 132,-1,66
 343 740 343 740 359 740 c 4,67,68
 376 740 376 740 390 725 c 132,-1,69
 404 710 404 710 404 693 c 4,70,71
 404 680 404 680 394 670 c 4,72,73
 380 655 380 655 359 635.5 c 132,-1,74
 338 616 338 616 312 591 c 4,75,76
 242 526 242 526 229 526 c 4,77,78
 212 526 212 526 197.5 541 c 132,-1,79
 183 556 183 556 183 572 c 4,64,65
EndSplineSet
EndChar

StartChar: acircumflex
Encoding: 226 226 124
Width: 600
Flags: W
LayerCount: 2
Fore
SplineSet
518 11 m 0,0,1
 518 24 518 24 500 42 c 0,2,3
 483 62 483 62 483 95 c 0,4,5
 483 99 483 99 483 114 c 0,6,7
 483 130 483 130 484 156 c 128,-1,8
 485 182 485 182 485 201 c 0,9,10
 485 221 485 221 485 235 c 0,11,12
 485 277 485 277 482 288 c 0,13,14
 482 359 482 359 483 357 c 1,15,16
 474 418 474 418 411 449 c 0,17,18
 357 475 357 475 291 475 c 0,19,20
 240 475 240 475 182 460 c 0,21,22
 103 439 103 439 103 405 c 0,23,24
 103 358 103 358 131 358 c 0,25,26
 155 358 155 358 208 376 c 0,27,28
 260 394 260 394 290 394 c 0,29,30
 331 394 331 394 361 379 c 0,31,32
 399 359 399 359 399 324 c 2,33,-1
 399 291 l 1,34,35
 341 305 341 305 296 305 c 0,36,37
 215 305 215 305 154 265 c 0,38,39
 82 218 82 218 82 142 c 0,40,41
 82 70 82 70 146 28 c 0,42,43
 201 -6 201 -6 277 -6 c 0,44,45
 332 -6 332 -6 410 23 c 1,46,47
 445 -9 445 -9 473 -9 c 0,48,49
 518 -9 518 -9 518 11 c 0,0,1
396 110 m 1,50,51
 327 76 327 76 266 76 c 0,52,53
 233 76 233 76 202 87 c 0,54,55
 164 104 164 104 164 132 c 0,56,57
 164 181 164 181 209 205 c 0,58,59
 244 224 244 224 299 224 c 0,60,61
 319 224 319 224 343.5 221 c 128,-1,62
 368 218 368 218 396 211 c 1,63,-1
 396 110 l 1,50,51
441 587 m 0,64,65
 441 600 441 600 372 677 c 128,-1,66
 303 754 303 754 295 754 c 0,67,68
 279 754 279 754 210 676 c 0,69,70
 142 599 142 599 142 584 c 0,71,72
 142 566 142 566 156 552 c 128,-1,73
 170 538 170 538 188 538 c 0,74,75
 208 538 208 538 246 577 c 2,76,-1
 294 631 l 1,77,78
 306 617 306 617 318 604 c 128,-1,79
 330 591 330 591 342 578 c 0,80,81
 379 538 379 538 395 538 c 0,82,83
 412 538 412 538 426.5 554 c 128,-1,84
 441 570 441 570 441 587 c 0,64,65
EndSplineSet
EndChar

StartChar: atilde
Encoding: 227 227 125
Width: 600
Flags: W
LayerCount: 2
Fore
SplineSet
518 11 m 0,0,1
 518 24 518 24 500 42 c 0,2,3
 483 62 483 62 483 95 c 0,4,5
 483 99 483 99 483 114 c 0,6,7
 483 130 483 130 484 156 c 128,-1,8
 485 182 485 182 485 201 c 0,9,10
 485 221 485 221 485 235 c 0,11,12
 485 277 485 277 482 288 c 0,13,14
 482 359 482 359 483 357 c 1,15,16
 474 418 474 418 411 449 c 0,17,18
 357 475 357 475 291 475 c 0,19,20
 240 475 240 475 182 460 c 0,21,22
 103 439 103 439 103 405 c 0,23,24
 103 358 103 358 131 358 c 0,25,26
 155 358 155 358 208 376 c 0,27,28
 260 394 260 394 290 394 c 0,29,30
 331 394 331 394 361 379 c 0,31,32
 399 359 399 359 399 324 c 2,33,-1
 399 291 l 1,34,35
 341 305 341 305 296 305 c 0,36,37
 215 305 215 305 154 265 c 0,38,39
 82 218 82 218 82 142 c 0,40,41
 82 70 82 70 146 28 c 0,42,43
 201 -6 201 -6 277 -6 c 0,44,45
 332 -6 332 -6 410 23 c 1,46,47
 445 -9 445 -9 473 -9 c 0,48,49
 518 -9 518 -9 518 11 c 0,0,1
396 110 m 1,50,51
 327 76 327 76 266 76 c 0,52,53
 233 76 233 76 202 87 c 0,54,55
 164 104 164 104 164 132 c 0,56,57
 164 181 164 181 209 205 c 0,58,59
 244 224 244 224 299 224 c 0,60,61
 319 224 319 224 343.5 221 c 128,-1,62
 368 218 368 218 396 211 c 1,63,-1
 396 110 l 1,50,51
482 668 m 0,64,65
 482 710 482 710 457 710 c 0,66,67
 444 710 444 710 433 693 c 0,68,69
 418 667 418 667 410 661 c 0,70,71
 390 643 390 643 359 643 c 0,72,73
 330 643 330 643 281 671 c 0,74,75
 234 699 234 699 204 699 c 0,76,77
 176 699 176 699 147 676 c 0,78,79
 117 652 117 652 117 624 c 0,80,81
 117 611 117 611 125 595 c 0,82,83
 136 578 136 578 148 578 c 0,84,85
 153 578 153 578 167 599 c 0,86,87
 182 620 182 620 198 620 c 0,88,89
 227 620 227 620 282 594 c 0,90,91
 335 569 335 569 366 569 c 0,92,93
 414 569 414 569 446 594 c 0,94,95
 482 621 482 621 482 668 c 0,64,65
EndSplineSet
EndChar

StartChar: adieresis
Encoding: 228 228 126
Width: 600
Flags: W
LayerCount: 2
Fore
SplineSet
518 11 m 0,0,1
 518 24 518 24 500 42 c 0,2,3
 483 62 483 62 483 95 c 0,4,5
 483 99 483 99 483 114 c 0,6,7
 483 130 483 130 484 156 c 128,-1,8
 485 182 485 182 485 201 c 0,9,10
 485 221 485 221 485 235 c 0,11,12
 485 277 485 277 482 288 c 0,13,14
 482 359 482 359 483 357 c 1,15,16
 474 418 474 418 411 449 c 0,17,18
 357 475 357 475 291 475 c 0,19,20
 240 475 240 475 182 460 c 0,21,22
 103 439 103 439 103 405 c 0,23,24
 103 358 103 358 131 358 c 0,25,26
 155 358 155 358 208 376 c 0,27,28
 260 394 260 394 290 394 c 0,29,30
 331 394 331 394 361 379 c 0,31,32
 399 359 399 359 399 324 c 2,33,-1
 399 291 l 1,34,35
 341 305 341 305 296 305 c 0,36,37
 215 305 215 305 154 265 c 0,38,39
 82 218 82 218 82 142 c 0,40,41
 82 70 82 70 146 28 c 0,42,43
 201 -6 201 -6 277 -6 c 0,44,45
 332 -6 332 -6 410 23 c 1,46,47
 445 -9 445 -9 473 -9 c 0,48,49
 518 -9 518 -9 518 11 c 0,0,1
396 110 m 1,50,51
 327 76 327 76 266 76 c 0,52,53
 233 76 233 76 202 87 c 0,54,55
 164 104 164 104 164 132 c 0,56,57
 164 181 164 181 209 205 c 0,58,59
 244 224 244 224 299 224 c 0,60,61
 319 224 319 224 343.5 221 c 128,-1,62
 368 218 368 218 396 211 c 1,63,-1
 396 110 l 1,50,51
445 628 m 0,64,65
 445 638 445 638 440 648 c 128,-1,66
 435 658 435 658 426.5 666 c 128,-1,67
 418 674 418 674 408 679 c 128,-1,68
 398 684 398 684 388 684 c 0,69,70
 379 684 379 684 369 679 c 128,-1,71
 359 674 359 674 351 665.5 c 128,-1,72
 343 657 343 657 338 647 c 128,-1,73
 333 637 333 637 333 628 c 0,74,75
 333 618 333 618 338 608 c 128,-1,76
 343 598 343 598 350.5 590 c 128,-1,77
 358 582 358 582 368 577 c 128,-1,78
 378 572 378 572 388 572 c 0,79,80
 409 572 409 572 427 589 c 128,-1,81
 445 606 445 606 445 628 c 0,64,65
256 627 m 0,82,83
 256 648 256 648 238.5 665.5 c 128,-1,84
 221 683 221 683 200 683 c 0,85,86
 191 683 191 683 181 678 c 128,-1,87
 171 673 171 673 163 664.5 c 128,-1,88
 155 656 155 656 150 646 c 128,-1,89
 145 636 145 636 145 627 c 256,90,91
 145 618 145 618 150 608 c 128,-1,92
 155 598 155 598 163 590 c 128,-1,93
 171 582 171 582 181 577 c 128,-1,94
 191 572 191 572 200 572 c 0,95,96
 222 572 222 572 239 588.5 c 128,-1,97
 256 605 256 605 256 627 c 0,82,83
EndSplineSet
EndChar

StartChar: aring
Encoding: 229 229 127
Width: 600
Flags: W
LayerCount: 2
Fore
SplineSet
518 11 m 0,0,1
 518 24 518 24 500 42 c 0,2,3
 483 62 483 62 483 95 c 0,4,5
 483 99 483 99 483 114 c 0,6,7
 483 130 483 130 484 156 c 128,-1,8
 485 182 485 182 485 201 c 0,9,10
 485 221 485 221 485 235 c 0,11,12
 485 277 485 277 482 288 c 0,13,14
 482 359 482 359 483 357 c 1,15,16
 474 418 474 418 411 449 c 0,17,18
 357 475 357 475 291 475 c 0,19,20
 240 475 240 475 182 460 c 0,21,22
 103 439 103 439 103 405 c 0,23,24
 103 358 103 358 131 358 c 0,25,26
 155 358 155 358 208 376 c 0,27,28
 260 394 260 394 290 394 c 0,29,30
 331 394 331 394 361 379 c 0,31,32
 399 359 399 359 399 324 c 2,33,-1
 399 291 l 1,34,35
 341 305 341 305 296 305 c 0,36,37
 215 305 215 305 154 265 c 0,38,39
 82 218 82 218 82 142 c 0,40,41
 82 70 82 70 146 28 c 0,42,43
 201 -6 201 -6 277 -6 c 0,44,45
 332 -6 332 -6 410 23 c 1,46,47
 445 -9 445 -9 473 -9 c 0,48,49
 518 -9 518 -9 518 11 c 0,0,1
396 110 m 1,50,51
 327 76 327 76 266 76 c 0,52,53
 233 76 233 76 202 87 c 0,54,55
 164 104 164 104 164 132 c 0,56,57
 164 181 164 181 209 205 c 0,58,59
 244 224 244 224 299 224 c 0,60,61
 319 224 319 224 343.5 221 c 128,-1,62
 368 218 368 218 396 211 c 1,63,-1
 396 110 l 1,50,51
410 652 m 0,64,65
 410 704 410 704 380 736 c 0,66,67
 349 770 349 770 297 770 c 0,68,69
 246 770 246 770 213 737 c 128,-1,70
 180 704 180 704 180 653 c 0,71,72
 180 629 180 629 188.5 608 c 128,-1,73
 197 587 197 587 212 571 c 128,-1,74
 227 555 227 555 247.5 546 c 128,-1,75
 268 537 268 537 292 537 c 0,76,77
 346 537 346 537 378 567.5 c 128,-1,78
 410 598 410 598 410 652 c 0,64,65
355 650 m 0,79,80
 355 625 355 625 339 607.5 c 128,-1,81
 323 590 323 590 298 590 c 0,82,83
 270 590 270 590 253 607.5 c 128,-1,84
 236 625 236 625 236 652 c 0,85,86
 236 678 236 678 253.5 693 c 128,-1,87
 271 708 271 708 297 708 c 0,88,89
 355 708 355 708 355 650 c 0,79,80
EndSplineSet
EndChar

StartChar: ae
Encoding: 230 230 128
Width: 600
Flags: W
LayerCount: 2
Fore
SplineSet
569 261 m 0,0,1
 569 343 569 343 537 402 c 0,2,3
 496 476 496 476 423 476 c 0,4,5
 357 476 357 476 320 427 c 1,6,7
 299 478 299 478 201 478 c 0,8,9
 166 478 166 478 124 458 c 0,10,11
 75 436 75 436 75 403 c 0,12,13
 75 390 75 390 84 378.5 c 128,-1,14
 93 367 93 367 105 367 c 0,15,16
 107 367 107 367 153 384 c 0,17,18
 201 401 201 401 225 401 c 0,19,20
 274 401 274 401 274 356 c 0,21,22
 274 340 274 340 271 322 c 128,-1,23
 268 304 268 304 263 282 c 1,24,25
 225 294 225 294 175 294 c 0,26,27
 115 294 115 294 72 236 c 0,28,29
 30 183 30 183 30 122 c 0,30,31
 30 41 30 41 82 13 c 0,32,33
 117 -6 117 -6 208 -6 c 0,34,35
 265 -6 265 -6 319 20 c 1,36,37
 343 -4 343 -4 402 -4 c 0,38,39
 459 -4 459 -4 487 3 c 0,40,41
 530 17 530 17 555 52 c 0,42,43
 566 68 566 68 566 80 c 0,44,45
 566 96 566 96 558 112 c 0,46,47
 549 131 549 131 534 131 c 0,48,49
 529 131 529 131 501 107 c 0,50,51
 472 83 472 83 436 83 c 0,52,53
 379 83 379 83 358 121 c 0,54,55
 344 146 344 146 342 211 c 1,56,-1
 513 212 l 2,57,58
 549 212 549 212 557 219 c 0,59,60
 569 228 569 228 569 261 c 0,0,1
492 296 m 1,61,-1
 349 296 l 1,62,63
 358 345 358 345 370 364 c 0,64,65
 389 395 389 395 429 399 c 1,66,67
 489 383 489 383 492 296 c 1,61,-1
265 99 m 1,68,69
 234 77 234 77 177 77 c 0,70,71
 113 77 113 77 113 128 c 0,72,73
 113 168 113 168 136 193 c 128,-1,74
 159 218 159 218 201 218 c 0,75,76
 228 218 228 218 251 208 c 1,77,78
 252 178 252 178 255.5 151 c 128,-1,79
 259 124 259 124 265 99 c 1,68,69
EndSplineSet
EndChar

StartChar: egrave
Encoding: 232 232 129
Width: 600
Flags: W
LayerCount: 2
Fore
SplineSet
406 572 m 0,0,1
 406 586 406 586 326 663 c 128,-1,2
 246 740 246 740 230 740 c 0,3,4
 215 740 215 740 202.5 727.5 c 128,-1,5
 190 715 190 715 190 699 c 0,6,7
 190 688 190 688 201 675 c 0,8,9
 339 526 339 526 360 526 c 0,10,11
 377 526 377 526 391.5 541 c 128,-1,12
 406 556 406 556 406 572 c 0,0,1
512 266 m 0,13,14
 512 480 512 480 302 480 c 0,15,16
 206 480 206 480 146 415 c 0,17,18
 88 351 88 351 88 254 c 0,19,20
 88 136 88 136 139 69 c 0,21,22
 196 -6 196 -6 309 -6 c 0,23,24
 429 -6 429 -6 491 63 c 0,25,26
 507 80 507 80 507 94 c 0,27,28
 507 113 507 113 491.5 125.5 c 128,-1,29
 476 138 476 138 458 138 c 0,30,31
 452 138 452 138 434 123 c 0,32,33
 422 113 422 113 411.5 106 c 128,-1,34
 401 99 401 99 391 94 c 0,35,36
 358 79 358 79 317 79 c 0,37,38
 186 79 186 79 182 208 c 1,39,-1
 443 208 l 2,40,41
 512 208 512 208 512 266 c 0,13,14
423 293 m 1,42,-1
 183 293 l 1,43,44
 185 332 185 332 218 364 c 0,45,46
 251 397 251 397 290 397 c 0,47,48
 351 397 351 397 383 376 c 0,49,50
 420 354 420 354 423 293 c 1,42,-1
EndSplineSet
EndChar

StartChar: eacute
Encoding: 233 233 130
Width: 600
Flags: W
LayerCount: 2
Fore
SplineSet
512 266 m 0,0,1
 512 480 512 480 302 480 c 0,2,3
 206 480 206 480 146 415 c 0,4,5
 88 351 88 351 88 254 c 0,6,7
 88 136 88 136 139 69 c 0,8,9
 196 -6 196 -6 309 -6 c 0,10,11
 429 -6 429 -6 491 63 c 0,12,13
 507 80 507 80 507 94 c 0,14,15
 507 113 507 113 491.5 125.5 c 128,-1,16
 476 138 476 138 458 138 c 0,17,18
 452 138 452 138 434 123 c 0,19,20
 422 113 422 113 411.5 106 c 128,-1,21
 401 99 401 99 391 94 c 0,22,23
 358 79 358 79 317 79 c 0,24,25
 186 79 186 79 182 208 c 1,26,-1
 443 208 l 2,27,28
 512 208 512 208 512 266 c 0,0,1
423 293 m 1,29,-1
 183 293 l 1,30,31
 185 332 185 332 218 364 c 0,32,33
 251 397 251 397 290 397 c 0,34,35
 351 397 351 397 383 376 c 0,36,37
 420 354 420 354 423 293 c 1,29,-1
190 572 m 0,38,39
 190 586 190 586 270 663 c 128,-1,40
 350 740 350 740 366 740 c 0,41,42
 383 740 383 740 397 725 c 128,-1,43
 411 710 411 710 411 693 c 0,44,45
 411 680 411 680 401 670 c 0,46,47
 387 655 387 655 366 635.5 c 128,-1,48
 345 616 345 616 319 591 c 0,49,50
 249 526 249 526 236 526 c 0,51,52
 219 526 219 526 204.5 541 c 128,-1,53
 190 556 190 556 190 572 c 0,38,39
EndSplineSet
EndChar

StartChar: ecircumflex
Encoding: 234 234 131
Width: 600
Flags: W
LayerCount: 2
Fore
SplineSet
512 266 m 0,0,1
 512 480 512 480 302 480 c 0,2,3
 206 480 206 480 146 415 c 0,4,5
 88 351 88 351 88 254 c 0,6,7
 88 136 88 136 139 69 c 0,8,9
 196 -6 196 -6 309 -6 c 0,10,11
 429 -6 429 -6 491 63 c 0,12,13
 507 80 507 80 507 94 c 0,14,15
 507 113 507 113 491.5 125.5 c 128,-1,16
 476 138 476 138 458 138 c 0,17,18
 452 138 452 138 434 123 c 0,19,20
 422 113 422 113 411.5 106 c 128,-1,21
 401 99 401 99 391 94 c 0,22,23
 358 79 358 79 317 79 c 0,24,25
 186 79 186 79 182 208 c 1,26,-1
 443 208 l 2,27,28
 512 208 512 208 512 266 c 0,0,1
423 293 m 1,29,-1
 183 293 l 1,30,31
 185 332 185 332 218 364 c 0,32,33
 251 397 251 397 290 397 c 0,34,35
 351 397 351 397 383 376 c 0,36,37
 420 354 420 354 423 293 c 1,29,-1
448 587 m 0,38,39
 448 600 448 600 379 677 c 128,-1,40
 310 754 310 754 302 754 c 0,41,42
 286 754 286 754 217 676 c 0,43,44
 149 599 149 599 149 584 c 0,45,46
 149 566 149 566 163 552 c 128,-1,47
 177 538 177 538 195 538 c 0,48,49
 215 538 215 538 253 577 c 2,50,-1
 301 631 l 1,51,52
 313 617 313 617 325 604 c 128,-1,53
 337 591 337 591 349 578 c 0,54,55
 386 538 386 538 402 538 c 0,56,57
 419 538 419 538 433.5 554 c 128,-1,58
 448 570 448 570 448 587 c 0,38,39
EndSplineSet
EndChar

StartChar: edieresis
Encoding: 235 235 132
Width: 600
Flags: W
LayerCount: 2
Fore
SplineSet
512 266 m 0,0,1
 512 480 512 480 302 480 c 0,2,3
 206 480 206 480 146 415 c 0,4,5
 88 351 88 351 88 254 c 0,6,7
 88 136 88 136 139 69 c 0,8,9
 196 -6 196 -6 309 -6 c 0,10,11
 429 -6 429 -6 491 63 c 0,12,13
 507 80 507 80 507 94 c 0,14,15
 507 113 507 113 491.5 125.5 c 128,-1,16
 476 138 476 138 458 138 c 0,17,18
 452 138 452 138 434 123 c 0,19,20
 422 113 422 113 411.5 106 c 128,-1,21
 401 99 401 99 391 94 c 0,22,23
 358 79 358 79 317 79 c 0,24,25
 186 79 186 79 182 208 c 1,26,-1
 443 208 l 2,27,28
 512 208 512 208 512 266 c 0,0,1
423 293 m 1,29,-1
 183 293 l 1,30,31
 185 332 185 332 218 364 c 0,32,33
 251 397 251 397 290 397 c 0,34,35
 351 397 351 397 383 376 c 0,36,37
 420 354 420 354 423 293 c 1,29,-1
452 628 m 0,38,39
 452 638 452 638 447 648 c 128,-1,40
 442 658 442 658 433.5 666 c 128,-1,41
 425 674 425 674 415 679 c 128,-1,42
 405 684 405 684 395 684 c 0,43,44
 386 684 386 684 376 679 c 128,-1,45
 366 674 366 674 358 665.5 c 128,-1,46
 350 657 350 657 345 647 c 128,-1,47
 340 637 340 637 340 628 c 0,48,49
 340 618 340 618 345 608 c 128,-1,50
 350 598 350 598 357.5 590 c 128,-1,51
 365 582 365 582 375 577 c 128,-1,52
 385 572 385 572 395 572 c 0,53,54
 416 572 416 572 434 589 c 128,-1,55
 452 606 452 606 452 628 c 0,38,39
263 627 m 0,56,57
 263 648 263 648 245.5 665.5 c 128,-1,58
 228 683 228 683 207 683 c 0,59,60
 198 683 198 683 188 678 c 128,-1,61
 178 673 178 673 170 664.5 c 128,-1,62
 162 656 162 656 157 646 c 128,-1,63
 152 636 152 636 152 627 c 256,64,65
 152 618 152 618 157 608 c 128,-1,66
 162 598 162 598 170 590 c 128,-1,67
 178 582 178 582 188 577 c 128,-1,68
 198 572 198 572 207 572 c 0,69,70
 229 572 229 572 246 588.5 c 128,-1,71
 263 605 263 605 263 627 c 0,56,57
EndSplineSet
EndChar

StartChar: igrave
Encoding: 236 236 133
Width: 600
Flags: W
LayerCount: 2
Fore
SplineSet
420 572 m 0,0,1
 420 586 420 586 340 663 c 128,-1,2
 260 740 260 740 244 740 c 0,3,4
 229 740 229 740 216.5 727.5 c 128,-1,5
 204 715 204 715 204 699 c 0,6,7
 204 688 204 688 215 675 c 0,8,9
 353 526 353 526 374 526 c 0,10,11
 391 526 391 526 405.5 541 c 128,-1,12
 420 556 420 556 420 572 c 0,0,1
392 14 m 2,13,-1
 392 430 l 2,14,15
 392 468 392 468 331 468 c 2,16,-1
 212 468 l 2,17,18
 180 468 180 468 180 430 c 0,19,20
 180 417 180 417 186 402 c 0,21,22
 194 382 194 382 203 382 c 0,23,24
 207 382 207 382 232.5 382.5 c 128,-1,25
 258 383 258 383 306 384 c 1,26,-1
 306 16 l 2,27,28
 306 -9 306 -9 350 -9 c 0,29,30
 392 -9 392 -9 392 14 c 2,13,-1
EndSplineSet
EndChar

StartChar: iacute
Encoding: 237 237 134
Width: 600
Flags: W
LayerCount: 2
Fore
SplineSet
201 572 m 0,0,1
 201 586 201 586 281 663 c 128,-1,2
 361 740 361 740 377 740 c 0,3,4
 394 740 394 740 408 725 c 128,-1,5
 422 710 422 710 422 693 c 0,6,7
 422 680 422 680 412 670 c 0,8,9
 398 655 398 655 377 635.5 c 128,-1,10
 356 616 356 616 330 591 c 0,11,12
 260 526 260 526 247 526 c 0,13,14
 230 526 230 526 215.5 541 c 128,-1,15
 201 556 201 556 201 572 c 0,0,1
389 14 m 2,16,-1
 389 430 l 2,17,18
 389 468 389 468 328 468 c 2,19,-1
 209 468 l 2,20,21
 177 468 177 468 177 430 c 0,22,23
 177 417 177 417 183 402 c 0,24,25
 191 382 191 382 200 382 c 0,26,27
 204 382 204 382 229.5 382.5 c 128,-1,28
 255 383 255 383 303 384 c 1,29,-1
 303 16 l 2,30,31
 303 -9 303 -9 347 -9 c 0,32,33
 389 -9 389 -9 389 14 c 2,16,-1
EndSplineSet
EndChar

StartChar: icircumflex
Encoding: 238 238 135
Width: 600
Flags: W
LayerCount: 2
Fore
SplineSet
449 587 m 0,0,1
 449 600 449 600 380 677 c 128,-1,2
 311 754 311 754 303 754 c 0,3,4
 287 754 287 754 218 676 c 0,5,6
 150 599 150 599 150 584 c 0,7,8
 150 566 150 566 164 552 c 128,-1,9
 178 538 178 538 196 538 c 0,10,11
 216 538 216 538 254 577 c 2,12,-1
 302 631 l 1,13,14
 314 617 314 617 326 604 c 128,-1,15
 338 591 338 591 350 578 c 0,16,17
 387 538 387 538 403 538 c 0,18,19
 420 538 420 538 434.5 554 c 128,-1,20
 449 570 449 570 449 587 c 0,0,1
379 14 m 6,21,-1
 379 430 l 6,22,23
 379 468 379 468 318 468 c 6,24,-1
 199 468 l 6,25,26
 167 468 167 468 167 430 c 4,27,28
 167 417 167 417 173 402 c 4,29,30
 181 382 181 382 190 382 c 4,31,32
 194 382 194 382 219.5 382.5 c 132,-1,33
 245 383 245 383 293 384 c 5,34,-1
 293 16 l 6,35,36
 293 -9 293 -9 337 -9 c 4,37,38
 379 -9 379 -9 379 14 c 6,21,-1
EndSplineSet
EndChar

StartChar: idieresis
Encoding: 239 239 136
Width: 600
Flags: W
LayerCount: 2
Fore
SplineSet
450 628 m 0,0,1
 450 638 450 638 445 648 c 128,-1,2
 440 658 440 658 431.5 666 c 128,-1,3
 423 674 423 674 413 679 c 128,-1,4
 403 684 403 684 393 684 c 0,5,6
 384 684 384 684 374 679 c 128,-1,7
 364 674 364 674 356 665.5 c 128,-1,8
 348 657 348 657 343 647 c 128,-1,9
 338 637 338 637 338 628 c 0,10,11
 338 618 338 618 343 608 c 128,-1,12
 348 598 348 598 355.5 590 c 128,-1,13
 363 582 363 582 373 577 c 128,-1,14
 383 572 383 572 393 572 c 0,15,16
 414 572 414 572 432 589 c 128,-1,17
 450 606 450 606 450 628 c 0,0,1
261 627 m 0,18,19
 261 648 261 648 243.5 665.5 c 128,-1,20
 226 683 226 683 205 683 c 0,21,22
 196 683 196 683 186 678 c 128,-1,23
 176 673 176 673 168 664.5 c 128,-1,24
 160 656 160 656 155 646 c 128,-1,25
 150 636 150 636 150 627 c 256,26,27
 150 618 150 618 155 608 c 128,-1,28
 160 598 160 598 168 590 c 128,-1,29
 176 582 176 582 186 577 c 128,-1,30
 196 572 196 572 205 572 c 0,31,32
 227 572 227 572 244 588.5 c 128,-1,33
 261 605 261 605 261 627 c 0,18,19
376 14 m 2,34,-1
 376 430 l 2,35,36
 376 468 376 468 315 468 c 2,37,-1
 196 468 l 2,38,39
 164 468 164 468 164 430 c 0,40,41
 164 417 164 417 170 402 c 0,42,43
 178 382 178 382 187 382 c 0,44,45
 191 382 191 382 216.5 382.5 c 128,-1,46
 242 383 242 383 290 384 c 1,47,-1
 290 16 l 2,48,49
 290 -9 290 -9 334 -9 c 0,50,51
 376 -9 376 -9 376 14 c 2,34,-1
EndSplineSet
EndChar

StartChar: ograve
Encoding: 242 242 137
Width: 600
Flags: W
LayerCount: 2
Fore
SplineSet
528 234 m 0,0,1
 528 350 528 350 472 415 c 0,2,3
 410 484 410 484 297 484 c 0,4,5
 188 484 188 484 128 414 c 0,6,7
 72 347 72 347 72 237 c 0,8,9
 72 124 72 124 131 57 c 0,10,11
 193 -11 193 -11 305 -11 c 256,12,13
 417 -11 417 -11 475 56 c 0,14,15
 528 121 528 121 528 234 c 0,0,1
436 233 m 0,16,17
 436 172 436 172 406 129 c 0,18,19
 372 80 372 80 314 80 c 0,20,21
 248 80 248 80 204 124 c 0,22,23
 162 169 162 169 162 237 c 0,24,25
 162 302 162 302 196 345 c 0,26,27
 233 393 233 393 296 393 c 0,28,29
 361 393 361 393 400 344 c 0,30,31
 436 299 436 299 436 233 c 0,16,17
407 572 m 0,32,33
 407 586 407 586 327 663 c 128,-1,34
 247 740 247 740 231 740 c 0,35,36
 216 740 216 740 203.5 727.5 c 128,-1,37
 191 715 191 715 191 699 c 0,38,39
 191 688 191 688 202 675 c 0,40,41
 340 526 340 526 361 526 c 0,42,43
 378 526 378 526 392.5 541 c 128,-1,44
 407 556 407 556 407 572 c 0,32,33
EndSplineSet
EndChar

StartChar: oacute
Encoding: 243 243 138
Width: 600
Flags: W
LayerCount: 2
Fore
SplineSet
528 234 m 0,0,1
 528 350 528 350 472 415 c 0,2,3
 410 484 410 484 297 484 c 0,4,5
 188 484 188 484 128 414 c 0,6,7
 72 347 72 347 72 237 c 0,8,9
 72 124 72 124 131 57 c 0,10,11
 193 -11 193 -11 305 -11 c 256,12,13
 417 -11 417 -11 475 56 c 0,14,15
 528 121 528 121 528 234 c 0,0,1
436 233 m 0,16,17
 436 172 436 172 406 129 c 0,18,19
 372 80 372 80 314 80 c 0,20,21
 248 80 248 80 204 124 c 0,22,23
 162 169 162 169 162 237 c 0,24,25
 162 302 162 302 196 345 c 0,26,27
 233 393 233 393 296 393 c 0,28,29
 361 393 361 393 400 344 c 0,30,31
 436 299 436 299 436 233 c 0,16,17
191 572 m 4,32,33
 191 586 191 586 271 663 c 132,-1,34
 351 740 351 740 367 740 c 4,35,36
 384 740 384 740 398 725 c 132,-1,37
 412 710 412 710 412 693 c 4,38,39
 412 680 412 680 402 670 c 4,40,41
 388 655 388 655 367 635.5 c 132,-1,42
 346 616 346 616 320 591 c 4,43,44
 250 526 250 526 237 526 c 4,45,46
 220 526 220 526 205.5 541 c 132,-1,47
 191 556 191 556 191 572 c 4,32,33
EndSplineSet
EndChar

StartChar: ocircumflex
Encoding: 244 244 139
Width: 600
Flags: W
LayerCount: 2
Fore
SplineSet
528 234 m 0,0,1
 528 350 528 350 472 415 c 0,2,3
 410 484 410 484 297 484 c 0,4,5
 188 484 188 484 128 414 c 0,6,7
 72 347 72 347 72 237 c 0,8,9
 72 124 72 124 131 57 c 0,10,11
 193 -11 193 -11 305 -11 c 256,12,13
 417 -11 417 -11 475 56 c 0,14,15
 528 121 528 121 528 234 c 0,0,1
436 233 m 0,16,17
 436 172 436 172 406 129 c 0,18,19
 372 80 372 80 314 80 c 0,20,21
 248 80 248 80 204 124 c 0,22,23
 162 169 162 169 162 237 c 0,24,25
 162 302 162 302 196 345 c 0,26,27
 233 393 233 393 296 393 c 0,28,29
 361 393 361 393 400 344 c 0,30,31
 436 299 436 299 436 233 c 0,16,17
449 587 m 0,32,33
 449 600 449 600 380 677 c 128,-1,34
 311 754 311 754 303 754 c 0,35,36
 287 754 287 754 218 676 c 0,37,38
 150 599 150 599 150 584 c 0,39,40
 150 566 150 566 164 552 c 128,-1,41
 178 538 178 538 196 538 c 0,42,43
 216 538 216 538 254 577 c 2,44,-1
 302 631 l 1,45,46
 314 617 314 617 326 604 c 128,-1,47
 338 591 338 591 350 578 c 0,48,49
 387 538 387 538 403 538 c 0,50,51
 420 538 420 538 434.5 554 c 128,-1,52
 449 570 449 570 449 587 c 0,32,33
EndSplineSet
EndChar

StartChar: otilde
Encoding: 245 245 140
Width: 600
Flags: W
LayerCount: 2
Fore
SplineSet
528 234 m 0,0,1
 528 350 528 350 472 415 c 0,2,3
 410 484 410 484 297 484 c 0,4,5
 188 484 188 484 128 414 c 0,6,7
 72 347 72 347 72 237 c 0,8,9
 72 124 72 124 131 57 c 0,10,11
 193 -11 193 -11 305 -11 c 256,12,13
 417 -11 417 -11 475 56 c 0,14,15
 528 121 528 121 528 234 c 0,0,1
436 233 m 0,16,17
 436 172 436 172 406 129 c 0,18,19
 372 80 372 80 314 80 c 0,20,21
 248 80 248 80 204 124 c 0,22,23
 162 169 162 169 162 237 c 0,24,25
 162 302 162 302 196 345 c 0,26,27
 233 393 233 393 296 393 c 0,28,29
 361 393 361 393 400 344 c 0,30,31
 436 299 436 299 436 233 c 0,16,17
490 668 m 0,32,33
 490 710 490 710 465 710 c 0,34,35
 452 710 452 710 441 693 c 0,36,37
 426 667 426 667 418 661 c 0,38,39
 398 643 398 643 367 643 c 0,40,41
 338 643 338 643 289 671 c 0,42,43
 242 699 242 699 212 699 c 0,44,45
 184 699 184 699 155 676 c 0,46,47
 125 652 125 652 125 624 c 0,48,49
 125 611 125 611 133 595 c 0,50,51
 144 578 144 578 156 578 c 0,52,53
 161 578 161 578 175 599 c 0,54,55
 190 620 190 620 206 620 c 0,56,57
 235 620 235 620 290 594 c 0,58,59
 343 569 343 569 374 569 c 0,60,61
 422 569 422 569 454 594 c 0,62,63
 490 621 490 621 490 668 c 0,32,33
EndSplineSet
EndChar

StartChar: odieresis
Encoding: 246 246 141
Width: 600
Flags: W
LayerCount: 2
Fore
SplineSet
528 234 m 0,0,1
 528 350 528 350 472 415 c 0,2,3
 410 484 410 484 297 484 c 0,4,5
 188 484 188 484 128 414 c 0,6,7
 72 347 72 347 72 237 c 0,8,9
 72 124 72 124 131 57 c 0,10,11
 193 -11 193 -11 305 -11 c 256,12,13
 417 -11 417 -11 475 56 c 0,14,15
 528 121 528 121 528 234 c 0,0,1
436 233 m 0,16,17
 436 172 436 172 406 129 c 0,18,19
 372 80 372 80 314 80 c 0,20,21
 248 80 248 80 204 124 c 0,22,23
 162 169 162 169 162 237 c 0,24,25
 162 302 162 302 196 345 c 0,26,27
 233 393 233 393 296 393 c 0,28,29
 361 393 361 393 400 344 c 0,30,31
 436 299 436 299 436 233 c 0,16,17
453 628 m 0,32,33
 453 638 453 638 448 648 c 128,-1,34
 443 658 443 658 434.5 666 c 128,-1,35
 426 674 426 674 416 679 c 128,-1,36
 406 684 406 684 396 684 c 0,37,38
 387 684 387 684 377 679 c 128,-1,39
 367 674 367 674 359 665.5 c 128,-1,40
 351 657 351 657 346 647 c 128,-1,41
 341 637 341 637 341 628 c 0,42,43
 341 618 341 618 346 608 c 128,-1,44
 351 598 351 598 358.5 590 c 128,-1,45
 366 582 366 582 376 577 c 128,-1,46
 386 572 386 572 396 572 c 0,47,48
 417 572 417 572 435 589 c 128,-1,49
 453 606 453 606 453 628 c 0,32,33
264 627 m 0,50,51
 264 648 264 648 246.5 665.5 c 128,-1,52
 229 683 229 683 208 683 c 0,53,54
 199 683 199 683 189 678 c 128,-1,55
 179 673 179 673 171 664.5 c 128,-1,56
 163 656 163 656 158 646 c 128,-1,57
 153 636 153 636 153 627 c 256,58,59
 153 618 153 618 158 608 c 128,-1,60
 163 598 163 598 171 590 c 128,-1,61
 179 582 179 582 189 577 c 128,-1,62
 199 572 199 572 208 572 c 0,63,64
 230 572 230 572 247 588.5 c 128,-1,65
 264 605 264 605 264 627 c 0,50,51
EndSplineSet
EndChar

StartChar: FL00F9h
Encoding: 249 249 142
Width: 600
Flags: W
LayerCount: 2
Fore
SplineSet
506 31 m 2,0,-1
 506 160 l 2,1,2
 506 183 506 183 506 218 c 0,3,4
 506 254 506 254 505 303 c 2,5,-1
 505 447 l 2,6,7
 505 483 505 483 469 483 c 0,8,9
 454 483 454 483 438 475 c 0,10,11
 420 464 420 464 420 450 c 2,12,-1
 420 140 l 2,13,14
 420 116 420 116 365 95 c 0,15,16
 317 78 317 78 287 78 c 0,17,18
 221 78 221 78 199 109 c 0,19,20
 184 133 184 133 182 204 c 2,21,-1
 181 451 l 2,22,23
 181 485 181 485 139 485 c 0,24,25
 122 485 122 485 108 472.5 c 128,-1,26
 94 460 94 460 94 443 c 2,27,-1
 94 207 l 2,28,29
 94 105 94 105 124 56 c 0,30,31
 161 -8 161 -8 256 -8 c 0,32,33
 370 -8 370 -8 418 34 c 1,34,35
 421 15 421 15 434 1 c 0,36,37
 448 -13 448 -13 466 -13 c 0,38,39
 493 -13 493 -13 500 -3 c 0,40,41
 506 4 506 4 506 31 c 2,0,-1
405 572 m 4,42,43
 405 586 405 586 325 663 c 132,-1,44
 245 740 245 740 229 740 c 4,45,46
 214 740 214 740 201.5 727.5 c 132,-1,47
 189 715 189 715 189 699 c 4,48,49
 189 688 189 688 200 675 c 4,50,51
 338 526 338 526 359 526 c 4,52,53
 376 526 376 526 390.5 541 c 132,-1,54
 405 556 405 556 405 572 c 4,42,43
EndSplineSet
EndChar

StartChar: FL00FAh
Encoding: 250 250 143
Width: 600
Flags: W
LayerCount: 2
Fore
SplineSet
506 31 m 2,0,-1
 506 160 l 2,1,2
 506 183 506 183 506 218 c 0,3,4
 506 254 506 254 505 303 c 2,5,-1
 505 447 l 2,6,7
 505 483 505 483 469 483 c 0,8,9
 454 483 454 483 438 475 c 0,10,11
 420 464 420 464 420 450 c 2,12,-1
 420 140 l 2,13,14
 420 116 420 116 365 95 c 0,15,16
 317 78 317 78 287 78 c 0,17,18
 221 78 221 78 199 109 c 0,19,20
 184 133 184 133 182 204 c 2,21,-1
 181 451 l 2,22,23
 181 485 181 485 139 485 c 0,24,25
 122 485 122 485 108 472.5 c 128,-1,26
 94 460 94 460 94 443 c 2,27,-1
 94 207 l 2,28,29
 94 105 94 105 124 56 c 0,30,31
 161 -8 161 -8 256 -8 c 0,32,33
 370 -8 370 -8 418 34 c 1,34,35
 421 15 421 15 434 1 c 0,36,37
 448 -13 448 -13 466 -13 c 0,38,39
 493 -13 493 -13 500 -3 c 0,40,41
 506 4 506 4 506 31 c 2,0,-1
189 572 m 0,42,43
 189 586 189 586 269 663 c 128,-1,44
 349 740 349 740 365 740 c 0,45,46
 382 740 382 740 396 725 c 128,-1,47
 410 710 410 710 410 693 c 0,48,49
 410 680 410 680 400 670 c 0,50,51
 386 655 386 655 365 635.5 c 128,-1,52
 344 616 344 616 318 591 c 0,53,54
 248 526 248 526 235 526 c 0,55,56
 218 526 218 526 203.5 541 c 128,-1,57
 189 556 189 556 189 572 c 0,42,43
EndSplineSet
EndChar

StartChar: FL00FBh
Encoding: 251 251 144
Width: 600
Flags: W
LayerCount: 2
Fore
SplineSet
506 31 m 2,0,-1
 506 160 l 2,1,2
 506 183 506 183 506 218 c 0,3,4
 506 254 506 254 505 303 c 2,5,-1
 505 447 l 2,6,7
 505 483 505 483 469 483 c 0,8,9
 454 483 454 483 438 475 c 0,10,11
 420 464 420 464 420 450 c 2,12,-1
 420 140 l 2,13,14
 420 116 420 116 365 95 c 0,15,16
 317 78 317 78 287 78 c 0,17,18
 221 78 221 78 199 109 c 0,19,20
 184 133 184 133 182 204 c 2,21,-1
 181 451 l 2,22,23
 181 485 181 485 139 485 c 0,24,25
 122 485 122 485 108 472.5 c 128,-1,26
 94 460 94 460 94 443 c 2,27,-1
 94 207 l 2,28,29
 94 105 94 105 124 56 c 0,30,31
 161 -8 161 -8 256 -8 c 0,32,33
 370 -8 370 -8 418 34 c 1,34,35
 421 15 421 15 434 1 c 0,36,37
 448 -13 448 -13 466 -13 c 0,38,39
 493 -13 493 -13 500 -3 c 0,40,41
 506 4 506 4 506 31 c 2,0,-1
447 587 m 0,42,43
 447 600 447 600 378 677 c 128,-1,44
 309 754 309 754 301 754 c 0,45,46
 285 754 285 754 216 676 c 0,47,48
 148 599 148 599 148 584 c 0,49,50
 148 566 148 566 162 552 c 128,-1,51
 176 538 176 538 194 538 c 0,52,53
 214 538 214 538 252 577 c 2,54,-1
 300 631 l 1,55,56
 312 617 312 617 324 604 c 128,-1,57
 336 591 336 591 348 578 c 0,58,59
 385 538 385 538 401 538 c 0,60,61
 418 538 418 538 432.5 554 c 128,-1,62
 447 570 447 570 447 587 c 0,42,43
EndSplineSet
EndChar

StartChar: FL00FCh
Encoding: 252 252 145
Width: 600
Flags: W
LayerCount: 2
Fore
SplineSet
506 31 m 2,0,-1
 506 160 l 2,1,2
 506 183 506 183 506 218 c 0,3,4
 506 254 506 254 505 303 c 2,5,-1
 505 447 l 2,6,7
 505 483 505 483 469 483 c 0,8,9
 454 483 454 483 438 475 c 0,10,11
 420 464 420 464 420 450 c 2,12,-1
 420 140 l 2,13,14
 420 116 420 116 365 95 c 0,15,16
 317 78 317 78 287 78 c 0,17,18
 221 78 221 78 199 109 c 0,19,20
 184 133 184 133 182 204 c 2,21,-1
 181 451 l 2,22,23
 181 485 181 485 139 485 c 0,24,25
 122 485 122 485 108 472.5 c 128,-1,26
 94 460 94 460 94 443 c 2,27,-1
 94 207 l 2,28,29
 94 105 94 105 124 56 c 0,30,31
 161 -8 161 -8 256 -8 c 0,32,33
 370 -8 370 -8 418 34 c 1,34,35
 421 15 421 15 434 1 c 0,36,37
 448 -13 448 -13 466 -13 c 0,38,39
 493 -13 493 -13 500 -3 c 0,40,41
 506 4 506 4 506 31 c 2,0,-1
451 628 m 0,42,43
 451 638 451 638 446 648 c 128,-1,44
 441 658 441 658 432.5 666 c 128,-1,45
 424 674 424 674 414 679 c 128,-1,46
 404 684 404 684 394 684 c 0,47,48
 385 684 385 684 375 679 c 128,-1,49
 365 674 365 674 357 665.5 c 128,-1,50
 349 657 349 657 344 647 c 128,-1,51
 339 637 339 637 339 628 c 0,52,53
 339 618 339 618 344 608 c 128,-1,54
 349 598 349 598 356.5 590 c 128,-1,55
 364 582 364 582 374 577 c 128,-1,56
 384 572 384 572 394 572 c 0,57,58
 415 572 415 572 433 589 c 128,-1,59
 451 606 451 606 451 628 c 0,42,43
262 627 m 0,60,61
 262 648 262 648 244.5 665.5 c 128,-1,62
 227 683 227 683 206 683 c 0,63,64
 197 683 197 683 187 678 c 128,-1,65
 177 673 177 673 169 664.5 c 128,-1,66
 161 656 161 656 156 646 c 128,-1,67
 151 636 151 636 151 627 c 256,68,69
 151 618 151 618 156 608 c 128,-1,70
 161 598 161 598 169 590 c 128,-1,71
 177 582 177 582 187 577 c 128,-1,72
 197 572 197 572 206 572 c 0,73,74
 228 572 228 572 245 588.5 c 128,-1,75
 262 605 262 605 262 627 c 0,60,61
EndSplineSet
EndChar

StartChar: ydieresis
Encoding: 255 255 146
Width: 600
Flags: W
LayerCount: 2
Fore
SplineSet
501 454 m 0,0,1
 501 479 501 479 456 479 c 0,2,3
 419 479 419 479 409 452 c 2,4,-1
 304 182 l 1,5,-1
 191 455 l 2,6,7
 180 481 180 481 128 481 c 0,8,9
 98 481 98 481 100 464 c 1,10,11
 154 330 154 330 193.5 231 c 128,-1,12
 233 132 233 132 260 65 c 1,13,14
 188 -124 188 -124 188 -130 c 0,15,16
 188 -147 188 -147 206 -160 c 0,17,18
 222 -172 222 -172 240 -172 c 0,19,20
 259 -172 259 -172 270 -155 c 0,21,22
 290 -108 290 -108 303.5 -72.5 c 128,-1,23
 317 -37 317 -37 325 -11 c 2,24,-1
 448 311 l 2,25,26
 501 449 501 449 501 454 c 0,0,1
451 628 m 0,27,28
 451 638 451 638 446 648 c 128,-1,29
 441 658 441 658 433 666 c 128,-1,30
 425 674 425 674 414.5 679 c 128,-1,31
 404 684 404 684 394 684 c 0,32,33
 385 684 385 684 375 679 c 128,-1,34
 365 674 365 674 357 665.5 c 128,-1,35
 349 657 349 657 344 647 c 128,-1,36
 339 637 339 637 339 628 c 0,37,38
 339 618 339 618 344 608 c 128,-1,39
 349 598 349 598 356.5 590 c 128,-1,40
 364 582 364 582 374 577 c 128,-1,41
 384 572 384 572 394 572 c 0,42,43
 416 572 416 572 433.5 589 c 128,-1,44
 451 606 451 606 451 628 c 0,27,28
262 627 m 0,45,46
 262 648 262 648 244.5 665.5 c 128,-1,47
 227 683 227 683 206 683 c 0,48,49
 197 683 197 683 187 678 c 128,-1,50
 177 673 177 673 169 664.5 c 128,-1,51
 161 656 161 656 156 646 c 128,-1,52
 151 636 151 636 151 627 c 0,53,54
 151 607 151 607 168.5 589.5 c 128,-1,55
 186 572 186 572 206 572 c 0,56,57
 228 572 228 572 245 588.5 c 128,-1,58
 262 605 262 605 262 627 c 0,45,46
EndSplineSet
EndChar

StartChar: germandbls
Encoding: 223 223 147
Width: 600
Flags: W
LayerCount: 2
Fore
SplineSet
485 189 m 0,0,1
 479 252 479 252 443 303 c 0,2,3
 402 359 402 359 349 360 c 1,4,5
 395 378 395 378 419.5 430 c 128,-1,6
 444 482 444 482 439 536 c 0,7,8
 432 605 432 605 376 646 c 0,9,10
 324 681 324 681 259 673 c 0,11,12
 196 667 196 667 152 610.5 c 128,-1,13
 108 554 108 554 107 484 c 2,14,-1
 107 28 l 1,15,-1
 107 24 l 2,16,17
 108 8 108 8 122 -2 c 128,-1,18
 136 -12 136 -12 152 -11 c 0,19,20
 186 -7 186 -7 186 29 c 2,21,-1
 185 474 l 2,22,23
 182 579 182 579 273 589 c 0,24,25
 304 593 304 593 328 580 c 0,26,27
 356 564 356 564 359 524 c 0,28,29
 364 466 364 466 320 428 c 1,30,-1
 239 392 l 2,31,32
 219 381 219 381 223 341 c 0,33,34
 225 321 225 321 238 318 c 0,35,36
 264 311 264 311 280 310 c 0,37,38
 397 280 397 280 405 187 c 0,39,40
 413 90 413 90 348 82 c 0,41,42
 327 80 327 80 286 91 c 0,43,44
 249 103 249 103 245 102 c 0,45,46
 231 101 231 101 223 82 c 0,47,48
 216 66 216 66 218 51 c 0,49,50
 221 13 221 13 272 2 c 0,51,52
 307 -8 307 -8 352 -2 c 0,53,54
 500 14 500 14 485 189 c 0,0,1
EndSplineSet
EndChar

StartChar: AE
Encoding: 198 198 148
Width: 600
Flags: W
LayerCount: 2
Fore
SplineSet
540 44 m 0,0,1
 539 80 539 80 488 80 c 0,2,3
 405 80 405 80 398 80 c 128,-1,4
 391 80 391 80 366 80 c 1,5,-1
 366 272 l 1,6,7
 372 272 372 272 386.5 271.5 c 128,-1,8
 401 271 401 271 411 272 c 0,9,10
 473 271 473 271 473 317 c 0,11,12
 473 361 473 361 417 359 c 0,13,14
 404 361 404 361 389 360 c 128,-1,15
 374 359 374 359 367 359 c 1,16,-1
 366 584 l 1,17,-1
 491 584 l 2,18,19
 510 584 510 584 523.5 595.5 c 128,-1,20
 537 607 537 607 537 626 c 0,21,22
 537 670 537 670 491 670 c 2,23,-1
 286 671 l 2,24,25
 227 671 227 671 205 584 c 0,26,27
 185 509 185 509 164.5 434.5 c 128,-1,28
 144 360 144 360 124 285 c 0,29,30
 60 42 60 42 60 17 c 0,31,32
 60 -3 60 -3 99 -3 c 0,33,34
 145 -3 145 -3 153 21 c 2,35,-1
 220 272 l 1,36,-1
 279 272 l 1,37,38
 279 262 279 262 279.5 244.5 c 128,-1,39
 280 227 280 227 280 203 c 128,-1,40
 280 179 280 179 280 168 c 128,-1,41
 280 157 280 157 280 139 c 0,42,43
 276 0 276 0 324 0 c 2,44,-1
 479 0 l 2,45,46
 540 0 540 0 540 44 c 0,0,1
280 359 m 1,47,-1
 236 359 l 1,48,-1
 279 536 l 1,49,-1
 280 359 l 1,47,-1
EndSplineSet
EndChar

StartChar: Ccedilla
Encoding: 199 199 149
Width: 600
Flags: W
LayerCount: 2
Fore
SplineSet
522 507 m 0,0,1
 522 519 522 519 518 531 c 0,2,3
 492 610 492 610 455 642 c 0,4,5
 415 673 415 673 332 673 c 0,6,7
 222 673 222 673 147 572 c 0,8,9
 77 480 77 480 77 366 c 0,10,11
 77 232 77 232 121 139 c 0,12,13
 177 23 177 23 294 1 c 1,14,-1
 294 -50 l 1,15,16
 313 -52 313 -52 327 -71 c 128,-1,17
 341 -90 341 -90 341 -110 c 0,18,19
 341 -134 341 -134 321 -134 c 0,20,21
 309 -134 309 -134 289 -123 c 0,22,23
 270 -113 270 -113 264 -113 c 0,24,25
 250 -113 250 -113 241 -126.5 c 128,-1,26
 232 -140 232 -140 232 -154 c 0,27,28
 232 -179 232 -179 271 -195 c 0,29,30
 302 -207 302 -207 332 -207 c 0,31,32
 350 -207 350 -207 367 -200 c 128,-1,33
 384 -193 384 -193 396.5 -180.5 c 128,-1,34
 409 -168 409 -168 416.5 -151 c 128,-1,35
 424 -134 424 -134 424 -115 c 0,36,37
 424 -61 424 -61 379 -50 c 1,38,-1
 379 -2 l 1,39,40
 440 7 440 7 480 55 c 0,41,42
 521 105 521 105 521 165 c 0,43,44
 521 208 521 208 483 208 c 0,45,46
 471 208 471 208 456 176 c 0,47,48
 445 153 445 153 437 138 c 128,-1,49
 429 123 429 123 424 115 c 0,50,51
 398 83 398 83 359 83 c 0,52,53
 264 83 264 83 210 165 c 1,54,55
 162 253 162 253 162 354 c 0,56,57
 162 434 162 434 209 505 c 0,58,59
 263 585 263 585 339 585 c 0,60,61
 390 585 390 585 421 548 c 0,62,63
 437 527 437 527 457 479 c 0,64,65
 470 443 470 443 482 443 c 0,66,67
 522 443 522 443 522 507 c 0,0,1
EndSplineSet
EndChar

StartChar: Egrave
Encoding: 200 200 150
Width: 600
Flags: W
LayerCount: 2
Fore
SplineSet
444 0 m 2,0,1
 484 0 484 0 484 44 c 0,2,3
 484 65 484 65 444 87 c 1,4,-1
 202 87 l 1,5,-1
 202 308 l 1,6,-1
 354 308 l 2,7,8
 374 308 374 308 384 316.5 c 128,-1,9
 394 325 394 325 394 349 c 0,10,11
 394 395 394 395 358 395 c 2,12,-1
 202 395 l 1,13,-1
 202 584 l 1,14,-1
 442 584 l 2,15,16
 480 584 480 584 480 627 c 0,17,18
 480 671 480 671 441 671 c 2,19,-1
 200 670 l 2,20,21
 157 669 157 669 136 647 c 128,-1,22
 115 625 115 625 115 584 c 2,23,-1
 115 87 l 2,24,25
 115 48 115 48 138.5 24 c 128,-1,26
 162 0 162 0 201 0 c 2,27,-1
 444 0 l 2,0,1
404 759 m 0,28,29
 404 771 404 771 397 778 c 0,30,31
 253 927 253 927 228 927 c 0,32,33
 213 927 213 927 200.5 914 c 128,-1,34
 188 901 188 901 188 886 c 0,35,36
 188 873 188 873 199 862 c 0,37,38
 340 713 340 713 358 713 c 0,39,40
 375 713 375 713 389.5 727.5 c 128,-1,41
 404 742 404 742 404 759 c 0,28,29
EndSplineSet
EndChar

StartChar: Eacute
Encoding: 201 201 151
Width: 600
Flags: W
LayerCount: 2
Fore
SplineSet
444 0 m 2,0,1
 484 0 484 0 484 44 c 0,2,3
 484 65 484 65 444 87 c 1,4,-1
 202 87 l 1,5,-1
 202 308 l 1,6,-1
 354 308 l 2,7,8
 374 308 374 308 384 316.5 c 128,-1,9
 394 325 394 325 394 349 c 0,10,11
 394 395 394 395 358 395 c 2,12,-1
 202 395 l 1,13,-1
 202 584 l 1,14,-1
 442 584 l 2,15,16
 480 584 480 584 480 627 c 0,17,18
 480 671 480 671 441 671 c 2,19,-1
 200 670 l 2,20,21
 157 669 157 669 136 647 c 128,-1,22
 115 625 115 625 115 584 c 2,23,-1
 115 87 l 2,24,25
 115 48 115 48 138.5 24 c 128,-1,26
 162 0 162 0 201 0 c 2,27,-1
 444 0 l 2,0,1
188 766 m 0,28,29
 188 749 188 749 202.5 734.5 c 128,-1,30
 217 720 217 720 234 720 c 0,31,32
 256 720 256 720 399 864 c 0,33,34
 409 874 409 874 409 887 c 0,35,36
 409 904 409 904 395 918.5 c 128,-1,37
 381 933 381 933 364 933 c 0,38,39
 338 933 338 933 196 785 c 0,40,41
 188 777 188 777 188 766 c 0,28,29
EndSplineSet
EndChar

StartChar: Adieresis
Encoding: 196 196 152
Width: 600
Flags: W
LayerCount: 2
Fore
SplineSet
533 27 m 0,0,1
 533 39 533 39 449 313 c 0,2,3
 406 449 406 449 380 530 c 128,-1,4
 354 611 354 611 343 640 c 0,5,6
 328 681 328 681 304 681 c 0,7,8
 277 681 277 681 262 636 c 0,9,10
 229 538 229 538 157 312 c 1,11,12
 67 50 67 50 67 27 c 0,13,14
 67 -6 67 -6 108 -6 c 0,15,16
 142 -6 142 -6 154 29 c 2,17,-1
 213 193 l 1,18,-1
 390 193 l 1,19,-1
 443 26 l 2,20,21
 453 -4 453 -4 491 -4 c 0,22,23
 533 -4 533 -4 533 27 c 0,0,1
371 280 m 1,24,-1
 238 280 l 1,25,-1
 303 501 l 1,26,-1
 371 280 l 1,24,-1
230 793 m 0,27,28
 230 807 230 807 223.5 820.5 c 128,-1,29
 217 834 217 834 206.5 844.5 c 128,-1,30
 196 855 196 855 183 861.5 c 128,-1,31
 170 868 170 868 156 868 c 0,32,33
 131 868 131 868 106.5 842.5 c 128,-1,34
 82 817 82 817 82 793 c 0,35,36
 82 767 82 767 106 743 c 128,-1,37
 130 719 130 719 156 719 c 0,38,39
 171 719 171 719 184 725 c 128,-1,40
 197 731 197 731 207.5 741.5 c 128,-1,41
 218 752 218 752 224 765 c 128,-1,42
 230 778 230 778 230 793 c 0,27,28
512 793 m 0,43,44
 512 807 512 807 505.5 820.5 c 128,-1,45
 499 834 499 834 488.5 844.5 c 128,-1,46
 478 855 478 855 465 861.5 c 128,-1,47
 452 868 452 868 438 868 c 0,48,49
 413 868 413 868 388.5 842.5 c 128,-1,50
 364 817 364 817 364 793 c 0,51,52
 364 767 364 767 388 743 c 128,-1,53
 412 719 412 719 438 719 c 0,54,55
 453 719 453 719 466 725 c 128,-1,56
 479 731 479 731 489.5 741.5 c 128,-1,57
 500 752 500 752 506 765 c 128,-1,58
 512 778 512 778 512 793 c 0,43,44
EndSplineSet
EndChar

StartChar: Aring
Encoding: 197 197 153
Width: 600
Flags: W
LayerCount: 2
Fore
SplineSet
533 27 m 0,0,1
 533 39 533 39 449 313 c 0,2,3
 406 449 406 449 380 530 c 128,-1,4
 354 611 354 611 343 640 c 0,5,6
 328 681 328 681 304 681 c 0,7,8
 277 681 277 681 262 636 c 0,9,10
 229 538 229 538 157 312 c 1,11,12
 67 50 67 50 67 27 c 0,13,14
 67 -6 67 -6 108 -6 c 0,15,16
 142 -6 142 -6 154 29 c 2,17,-1
 213 193 l 1,18,-1
 390 193 l 1,19,-1
 443 26 l 2,20,21
 453 -4 453 -4 491 -4 c 0,22,23
 533 -4 533 -4 533 27 c 0,0,1
371 280 m 1,24,-1
 238 280 l 1,25,-1
 303 501 l 1,26,-1
 371 280 l 1,24,-1
422 800 m 0,27,28
 422 852 422 852 392 884 c 0,29,30
 361 918 361 918 309 918 c 0,31,32
 258 918 258 918 225 885 c 128,-1,33
 192 852 192 852 192 801 c 0,34,35
 192 777 192 777 200.5 756 c 128,-1,36
 209 735 209 735 224 719 c 128,-1,37
 239 703 239 703 259.5 694 c 128,-1,38
 280 685 280 685 304 685 c 0,39,40
 358 685 358 685 390 715.5 c 128,-1,41
 422 746 422 746 422 800 c 0,27,28
367 798 m 0,42,43
 367 773 367 773 351 755.5 c 128,-1,44
 335 738 335 738 310 738 c 0,45,46
 282 738 282 738 265 755.5 c 128,-1,47
 248 773 248 773 248 800 c 0,48,49
 248 826 248 826 265.5 841 c 128,-1,50
 283 856 283 856 309 856 c 0,51,52
 367 856 367 856 367 798 c 0,42,43
EndSplineSet
EndChar

StartChar: Ntilde
Encoding: 209 209 154
Width: 600
Flags: W
LayerCount: 2
Fore
SplineSet
509 37 m 1,0,-1
 509 634 l 2,1,2
 509 679 509 679 469 679 c 0,3,4
 451 679 451 679 436.5 665.5 c 128,-1,5
 422 652 422 652 422 634 c 2,6,-1
 422 216 l 1,7,-1
 238 586 l 2,8,9
 194 673 194 673 172 673 c 0,10,11
 133 673 133 673 115 665 c 0,12,13
 102 659 102 659 96 643.5 c 128,-1,14
 90 628 90 628 90 611 c 2,15,-1
 90 23 l 2,16,17
 90 8 90 8 104 -2 c 128,-1,18
 118 -12 118 -12 134 -12 c 0,19,20
 177 -12 177 -12 177 28 c 2,21,-1
 177 543 l 1,22,-1
 430 48 l 2,23,24
 463 -14 463 -14 485 -14 c 0,25,26
 509 -14 509 -14 509 41 c 2,27,-1
 509 37 l 1,0,-1
480 847 m 0,28,29
 480 889 480 889 455 889 c 0,30,31
 441 889 441 889 431 871 c 0,32,33
 414 845 414 845 408 839 c 0,34,35
 388 822 388 822 357 822 c 0,36,37
 328 822 328 822 279 850 c 128,-1,38
 230 878 230 878 202 878 c 0,39,40
 172 878 172 878 144 854 c 0,41,42
 115 831 115 831 115 803 c 0,43,44
 115 791 115 791 123 773 c 0,45,46
 132 757 132 757 146 757 c 0,47,48
 147 758 147 758 152.5 764 c 128,-1,49
 158 770 158 770 169 782 c 0,50,51
 183 799 183 799 196 799 c 0,52,53
 222 799 222 799 280 773 c 128,-1,54
 338 747 338 747 364 747 c 0,55,56
 409 747 409 747 433 762.5 c 128,-1,57
 457 778 457 778 473 820 c 0,58,59
 480 834 480 834 480 847 c 0,28,29
EndSplineSet
EndChar

StartChar: ccedilla
Encoding: 231 231 155
Width: 600
Flags: W
LayerCount: 2
Fore
SplineSet
504 97 m 0,0,1
 504 112 504 112 495 127 c 0,2,3
 484 144 484 144 472 144 c 0,4,5
 463 144 463 144 447 128 c 0,6,7
 424 107 424 107 406 97 c 0,8,9
 375 81 375 81 329 81 c 0,10,11
 255 81 255 81 218 130 c 0,12,13
 182 175 182 175 182 250 c 0,14,15
 182 309 182 309 223 353 c 0,16,17
 265 397 265 397 326 397 c 0,18,19
 354 397 354 397 398 371 c 128,-1,20
 442 345 442 345 452 345 c 0,21,22
 467 345 467 345 482 354 c 0,23,24
 498 363 498 363 498 377 c 0,25,26
 498 419 498 419 430 452 c 0,27,28
 373 480 373 480 323 480 c 0,29,30
 216 480 216 480 154 415 c 0,31,32
 95 350 95 350 95 242 c 0,33,34
 95 143 95 143 137 82 c 0,35,36
 183 13 183 13 277 -2 c 1,37,-1
 277 -52 l 1,38,39
 296 -55 296 -55 310 -74 c 128,-1,40
 324 -93 324 -93 324 -112 c 0,41,42
 324 -137 324 -137 304 -137 c 0,43,44
 292 -137 292 -137 272 -126 c 0,45,46
 253 -116 253 -116 246 -116 c 0,47,48
 233 -116 233 -116 224 -129.5 c 128,-1,49
 215 -143 215 -143 215 -156 c 0,50,51
 215 -181 215 -181 254 -197 c 0,52,53
 284 -210 284 -210 315 -210 c 0,54,55
 333 -210 333 -210 350 -202.5 c 128,-1,56
 367 -195 367 -195 379.5 -182.5 c 128,-1,57
 392 -170 392 -170 399.5 -153 c 128,-1,58
 407 -136 407 -136 407 -118 c 0,59,60
 407 -63 407 -63 362 -52 c 1,61,-1
 362 -5 l 1,62,63
 414 -1 414 -1 441 12 c 0,64,65
 475 29 475 29 494 69 c 0,66,67
 504 86 504 86 504 97 c 0,0,1
EndSplineSet
EndChar

StartChar: questiondown
Encoding: 191 191 156
Width: 600
Flags: W
LayerCount: 2
Fore
SplineSet
146 -20 m 0,0,1
 146 -32 146 -32 153 -54 c 0,2,3
 173 -122 173 -122 215 -148 c 0,4,5
 255 -173 255 -173 327 -173 c 0,6,7
 364 -173 364 -173 405 -150 c 0,8,9
 453 -125 453 -125 453 -91 c 0,10,11
 453 -51 453 -51 415 -39 c 1,12,13
 407 -41 407 -41 370 -66 c 0,14,15
 345 -82 345 -82 319 -82 c 0,16,17
 284 -82 284 -82 264 -61.5 c 128,-1,18
 244 -41 244 -41 244 -6 c 0,19,20
 244 22 244 22 253 40 c 0,21,22
 264 56 264 56 273 67.5 c 128,-1,23
 282 79 282 79 289 86 c 0,24,25
 387 210 387 210 387 275 c 0,26,27
 387 293 387 293 373.5 304.5 c 128,-1,28
 360 316 360 316 342 316 c 0,29,30
 320 316 320 316 306 302 c 0,31,32
 298 290 298 290 292 266 c 0,33,34
 285 239 285 239 280 229 c 0,35,36
 265 200 265 200 225 150 c 0,37,38
 184 100 184 100 171 72 c 0,39,40
 146 26 146 26 146 -20 c 0,0,1
286 447 m 0,41,42
 286 437 286 437 291.5 427 c 128,-1,43
 297 417 297 417 305.5 408.5 c 128,-1,44
 314 400 314 400 324.5 395 c 128,-1,45
 335 390 335 390 345 390 c 0,46,47
 368 390 368 390 385 410 c 0,48,49
 400 429 400 429 400 454 c 0,50,51
 400 475 400 475 383 491.5 c 128,-1,52
 366 508 366 508 345 508 c 0,53,54
 319 508 319 508 302.5 490 c 128,-1,55
 286 472 286 472 286 447 c 0,41,42
EndSplineSet
EndChar

StartChar: Iacute
Encoding: 205 205 157
Width: 600
Flags: W
LayerCount: 2
Fore
SplineSet
486 42 m 0,0,1
 486 58 486 58 478 72 c 0,2,3
 469 87 469 87 453 87 c 2,4,-1
 340 87 l 1,5,-1
 340 583 l 1,6,-1
 455 583 l 2,7,8
 485 583 485 583 485 626 c 0,9,10
 485 670 485 670 455 670 c 2,11,-1
 139 670 l 2,12,13
 113 670 113 670 113 630 c 0,14,15
 113 612 113 612 124 597.5 c 128,-1,16
 135 583 135 583 152 583 c 2,17,-1
 255 583 l 1,18,-1
 255 87 l 1,19,-1
 148 87 l 2,20,21
 132 87 132 87 122 72 c 0,22,23
 113 58 113 58 113 42 c 0,24,25
 113 0 113 0 142 0 c 2,26,-1
 452 0 l 2,27,28
 486 0 486 0 486 42 c 0,0,1
188 759 m 0,29,30
 188 742 188 742 202.5 727.5 c 128,-1,31
 217 713 217 713 234 713 c 0,32,33
 256 713 256 713 399 857 c 0,34,35
 409 867 409 867 409 880 c 0,36,37
 409 897 409 897 395 911.5 c 128,-1,38
 381 926 381 926 364 926 c 0,39,40
 338 926 338 926 196 778 c 0,41,42
 188 770 188 770 188 759 c 0,29,30
EndSplineSet
EndChar

StartChar: Odieresis
Encoding: 214 214 158
Width: 600
Flags: W
LayerCount: 2
Fore
SplineSet
560 335 m 0,0,1
 560 472 560 472 504 566 c 0,2,3
 436 677 436 677 307 677 c 256,4,5
 178 677 178 677 104 576 c 0,6,7
 39 487 39 487 39 352 c 0,8,9
 39 202 39 202 92 110 c 0,10,11
 158 -3 158 -3 297 -3 c 0,12,13
 560 -3 560 -3 560 335 c 0,0,1
473 338 m 0,14,15
 473 231 473 231 440 167 c 0,16,17
 397 79 397 79 302 79 c 0,18,19
 120 79 120 79 120 330 c 0,20,21
 120 593 120 593 307 593 c 0,22,23
 394 593 394 593 438 504 c 0,24,25
 473 434 473 434 473 338 c 0,14,15
243 824 m 0,26,27
 243 838 243 838 236.5 851.5 c 128,-1,28
 230 865 230 865 219.5 875.5 c 128,-1,29
 209 886 209 886 196 892.5 c 128,-1,30
 183 899 183 899 169 899 c 0,31,32
 144 899 144 899 119.5 873.5 c 128,-1,33
 95 848 95 848 95 824 c 0,34,35
 95 798 95 798 119 774 c 128,-1,36
 143 750 143 750 169 750 c 0,37,38
 184 750 184 750 197 756 c 128,-1,39
 210 762 210 762 220.5 772.5 c 128,-1,40
 231 783 231 783 237 796 c 128,-1,41
 243 809 243 809 243 824 c 0,26,27
525 824 m 0,42,43
 525 838 525 838 518.5 851.5 c 128,-1,44
 512 865 512 865 501.5 875.5 c 128,-1,45
 491 886 491 886 478 892.5 c 128,-1,46
 465 899 465 899 451 899 c 0,47,48
 426 899 426 899 401.5 873.5 c 128,-1,49
 377 848 377 848 377 824 c 0,50,51
 377 798 377 798 401 774 c 128,-1,52
 425 750 425 750 451 750 c 0,53,54
 466 750 466 750 479 756 c 128,-1,55
 492 762 492 762 502.5 772.5 c 128,-1,56
 513 783 513 783 519 796 c 128,-1,57
 525 809 525 809 525 824 c 0,42,43
EndSplineSet
EndChar

StartChar: Oslash
Encoding: 216 216 159
Width: 600
Flags: W
LayerCount: 2
Fore
SplineSet
162 145 m 1,0,1
 120 206 120 206 120 333 c 0,2,3
 120 593 120 593 307 593 c 0,4,5
 339 593 339 593 365 581 c 1,6,7
 296 434 296 434 245 325.5 c 128,-1,8
 194 217 194 217 162 145 c 1,0,1
430 520 m 1,9,10
 473 447 473 447 473 338 c 0,11,12
 473 231 473 231 440 167 c 0,13,14
 397 79 397 79 302 79 c 0,15,16
 260 79 260 79 229 91 c 1,17,18
 365 377 365 377 430 520 c 1,9,10
499 686 m 0,19,20
 499 700 499 700 486.5 710.5 c 128,-1,21
 474 721 474 721 460 721 c 0,22,23
 436 721 436 721 421 700 c 1,24,25
 421 700 421 700 401 658 c 1,26,27
 360 677 360 677 307 677 c 0,28,29
 178 677 178 677 104 576 c 0,30,31
 39 487 39 487 39 352 c 0,32,33
 39 154 39 154 126 63 c 1,34,35
 89 -20 89 -20 89 -31 c 0,36,37
 89 -63 89 -63 131 -63 c 0,38,39
 153 -63 153 -63 170 -33 c 0,40,41
 176 -20 176 -20 182 -8 c 128,-1,42
 188 4 188 4 193 16 c 1,43,44
 238 -3 238 -3 297 -3 c 0,45,46
 560 -3 560 -3 560 335 c 0,47,48
 560 515 560 515 470 610 c 1,49,50
 499 679 499 679 499 686 c 0,19,20
EndSplineSet
EndChar

StartChar: Udieresis
Encoding: 220 220 160
Width: 600
Flags: W
LayerCount: 2
Fore
SplineSet
298 -2 m 0,0,1
 514 -2 514 -2 514 185 c 2,2,-1
 514 634 l 2,3,4
 514 653 514 653 499 665 c 128,-1,5
 484 677 484 677 464 677 c 0,6,7
 449 677 449 677 438 661.5 c 128,-1,8
 427 646 427 646 427 631 c 2,9,-1
 427 213 l 2,10,11
 427 131 427 131 394.5 105 c 128,-1,12
 362 79 362 79 297 79 c 0,13,14
 238 79 238 79 205.5 111 c 128,-1,15
 173 143 173 143 173 213 c 2,16,-1
 173 637 l 2,17,18
 173 678 173 678 134 678 c 0,19,20
 123 678 123 678 114 679 c 128,-1,21
 105 680 105 680 99 677 c 128,-1,22
 93 674 93 674 89.5 665 c 128,-1,23
 86 656 86 656 86 637 c 2,24,-1
 86 185 l 2,25,26
 86 122 86 122 129.5 60 c 128,-1,27
 173 -2 173 -2 298 -2 c 0,0,1
243 824 m 0,28,29
 243 838 243 838 236.5 851.5 c 128,-1,30
 230 865 230 865 219.5 875.5 c 128,-1,31
 209 886 209 886 196 892.5 c 128,-1,32
 183 899 183 899 169 899 c 0,33,34
 144 899 144 899 119.5 873.5 c 128,-1,35
 95 848 95 848 95 824 c 0,36,37
 95 798 95 798 119 774 c 128,-1,38
 143 750 143 750 169 750 c 0,39,40
 184 750 184 750 197 756 c 128,-1,41
 210 762 210 762 220.5 772.5 c 128,-1,42
 231 783 231 783 237 796 c 128,-1,43
 243 809 243 809 243 824 c 0,28,29
525 824 m 0,44,45
 525 838 525 838 518.5 851.5 c 128,-1,46
 512 865 512 865 501.5 875.5 c 128,-1,47
 491 886 491 886 478 892.5 c 128,-1,48
 465 899 465 899 451 899 c 0,49,50
 426 899 426 899 401.5 873.5 c 128,-1,51
 377 848 377 848 377 824 c 0,52,53
 377 798 377 798 401 774 c 128,-1,54
 425 750 425 750 451 750 c 0,55,56
 466 750 466 750 479 756 c 128,-1,57
 492 762 492 762 502.5 772.5 c 128,-1,58
 513 783 513 783 519 796 c 128,-1,59
 525 809 525 809 525 824 c 0,44,45
EndSplineSet
EndChar

StartChar: oslash
Encoding: 248 248 161
Width: 600
Flags: W
LayerCount: 2
Fore
SplineSet
528 234 m 0,0,1
 528 360 528 360 461 426 c 1,2,3
 490 476 490 476 490 485 c 0,4,5
 490 501 490 501 477 513.5 c 128,-1,6
 464 526 464 526 448 526 c 0,7,8
 431 526 431 526 415 504 c 2,9,-1
 394 468 l 1,10,11
 352 484 352 484 297 484 c 0,12,13
 188 484 188 484 128 414 c 0,14,15
 72 347 72 347 72 237 c 0,16,17
 72 109 72 109 143 43 c 1,18,19
 114 -6 114 -6 114 -14 c 0,20,21
 114 -30 114 -30 127.5 -42.5 c 128,-1,22
 141 -55 141 -55 157 -55 c 0,23,24
 175 -55 175 -55 190 -34 c 0,25,26
 195 -25 195 -25 200.5 -16 c 128,-1,27
 206 -7 206 -7 211 1 c 1,28,29
 250 -11 250 -11 297 -11 c 0,30,31
 410 -11 410 -11 470 55 c 0,32,33
 528 119 528 119 528 234 c 0,0,1
436 233 m 0,34,35
 436 172 436 172 406 129 c 0,36,37
 372 80 372 80 314 80 c 0,38,39
 289 80 289 80 262 88 c 1,40,-1
 408 333 l 1,41,42
 436 292 436 292 436 233 c 0,34,35
345 385 m 1,43,-1
 196 134 l 1,44,45
 162 175 162 175 162 237 c 0,46,47
 162 302 162 302 196 345 c 0,48,49
 233 393 233 393 296 393 c 0,50,51
 321 393 321 393 345 385 c 1,43,-1
EndSplineSet
EndChar

StartChar: Igrave
Encoding: 204 204 162
Width: 600
Flags: W
LayerCount: 2
Fore
SplineSet
486 42 m 0,0,1
 486 58 486 58 478 72 c 0,2,3
 469 87 469 87 453 87 c 2,4,-1
 340 87 l 1,5,-1
 340 583 l 1,6,-1
 455 583 l 2,7,8
 485 583 485 583 485 626 c 0,9,10
 485 670 485 670 455 670 c 2,11,-1
 139 670 l 2,12,13
 113 670 113 670 113 630 c 0,14,15
 113 612 113 612 124 597.5 c 128,-1,16
 135 583 135 583 152 583 c 2,17,-1
 255 583 l 1,18,-1
 255 87 l 1,19,-1
 148 87 l 2,20,21
 132 87 132 87 122 72 c 0,22,23
 113 58 113 58 113 42 c 0,24,25
 113 0 113 0 142 0 c 2,26,-1
 452 0 l 2,27,28
 486 0 486 0 486 42 c 0,0,1
404 759 m 0,29,30
 404 771 404 771 397 778 c 0,31,32
 253 927 253 927 228 927 c 0,33,34
 213 927 213 927 200.5 914 c 128,-1,35
 188 901 188 901 188 886 c 0,36,37
 188 873 188 873 199 862 c 0,38,39
 340 713 340 713 358 713 c 0,40,41
 375 713 375 713 389.5 727.5 c 128,-1,42
 404 742 404 742 404 759 c 0,29,30
EndSplineSet
EndChar

StartChar: Icircumflex
Encoding: 206 206 163
Width: 600
Flags: W
LayerCount: 2
Fore
SplineSet
486 42 m 0,0,1
 486 58 486 58 478 72 c 0,2,3
 469 87 469 87 453 87 c 2,4,-1
 340 87 l 1,5,-1
 340 583 l 1,6,-1
 455 583 l 2,7,8
 485 583 485 583 485 626 c 0,9,10
 485 670 485 670 455 670 c 2,11,-1
 139 670 l 2,12,13
 113 670 113 670 113 630 c 0,14,15
 113 612 113 612 124 597.5 c 128,-1,16
 135 583 135 583 152 583 c 2,17,-1
 255 583 l 1,18,-1
 255 87 l 1,19,-1
 148 87 l 2,20,21
 132 87 132 87 122 72 c 0,22,23
 113 58 113 58 113 42 c 0,24,25
 113 0 113 0 142 0 c 2,26,-1
 452 0 l 2,27,28
 486 0 486 0 486 42 c 0,0,1
448 755 m 0,29,30
 448 763 448 763 443 768 c 0,31,32
 317 921 317 921 302 921 c 256,33,34
 287 921 287 921 218 843 c 128,-1,35
 149 765 149 765 149 751 c 0,36,37
 149 733 149 733 163 719 c 128,-1,38
 177 705 177 705 195 705 c 0,39,40
 216 705 216 705 253 745 c 2,41,-1
 301 799 l 1,42,43
 312 785 312 785 324 772 c 128,-1,44
 336 759 336 759 348 745 c 0,45,46
 385 705 385 705 402 705 c 256,47,48
 419 705 419 705 433.5 721 c 128,-1,49
 448 737 448 737 448 755 c 0,29,30
EndSplineSet
EndChar

StartChar: Idieresis
Encoding: 207 207 164
Width: 600
Flags: W
LayerCount: 2
Fore
SplineSet
486 42 m 0,0,1
 486 58 486 58 478 72 c 0,2,3
 469 87 469 87 453 87 c 2,4,-1
 340 87 l 1,5,-1
 340 583 l 1,6,-1
 455 583 l 2,7,8
 485 583 485 583 485 626 c 0,9,10
 485 670 485 670 455 670 c 2,11,-1
 139 670 l 2,12,13
 113 670 113 670 113 630 c 0,14,15
 113 612 113 612 124 597.5 c 128,-1,16
 135 583 135 583 152 583 c 2,17,-1
 255 583 l 1,18,-1
 255 87 l 1,19,-1
 148 87 l 2,20,21
 132 87 132 87 122 72 c 0,22,23
 113 58 113 58 113 42 c 0,24,25
 113 0 113 0 142 0 c 2,26,-1
 452 0 l 2,27,28
 486 0 486 0 486 42 c 0,0,1
243 824 m 0,29,30
 243 838 243 838 236.5 851.5 c 128,-1,31
 230 865 230 865 219.5 875.5 c 128,-1,32
 209 886 209 886 196 892.5 c 128,-1,33
 183 899 183 899 169 899 c 0,34,35
 144 899 144 899 119.5 873.5 c 128,-1,36
 95 848 95 848 95 824 c 0,37,38
 95 798 95 798 119 774 c 128,-1,39
 143 750 143 750 169 750 c 0,40,41
 184 750 184 750 197 756 c 128,-1,42
 210 762 210 762 220.5 772.5 c 128,-1,43
 231 783 231 783 237 796 c 128,-1,44
 243 809 243 809 243 824 c 0,29,30
525 824 m 0,45,46
 525 838 525 838 518.5 851.5 c 128,-1,47
 512 865 512 865 501.5 875.5 c 128,-1,48
 491 886 491 886 478 892.5 c 128,-1,49
 465 899 465 899 451 899 c 0,50,51
 426 899 426 899 401.5 873.5 c 128,-1,52
 377 848 377 848 377 824 c 0,53,54
 377 798 377 798 401 774 c 128,-1,55
 425 750 425 750 451 750 c 0,56,57
 466 750 466 750 479 756 c 128,-1,58
 492 762 492 762 502.5 772.5 c 128,-1,59
 513 783 513 783 519 796 c 128,-1,60
 525 809 525 809 525 824 c 0,45,46
EndSplineSet
EndChar

StartChar: Ograve
Encoding: 210 210 165
Width: 600
Flags: W
LayerCount: 2
Fore
SplineSet
560 335 m 0,0,1
 560 472 560 472 504 566 c 0,2,3
 436 677 436 677 307 677 c 256,4,5
 178 677 178 677 104 576 c 0,6,7
 39 487 39 487 39 352 c 0,8,9
 39 202 39 202 92 110 c 0,10,11
 158 -3 158 -3 297 -3 c 0,12,13
 560 -3 560 -3 560 335 c 0,0,1
473 338 m 0,14,15
 473 231 473 231 440 167 c 0,16,17
 397 79 397 79 302 79 c 0,18,19
 120 79 120 79 120 330 c 0,20,21
 120 593 120 593 307 593 c 0,22,23
 394 593 394 593 438 504 c 0,24,25
 473 434 473 434 473 338 c 0,14,15
404 759 m 0,26,27
 404 771 404 771 397 778 c 0,28,29
 253 927 253 927 228 927 c 0,30,31
 213 927 213 927 200.5 914 c 128,-1,32
 188 901 188 901 188 886 c 0,33,34
 188 873 188 873 199 862 c 0,35,36
 340 713 340 713 358 713 c 0,37,38
 375 713 375 713 389.5 727.5 c 128,-1,39
 404 742 404 742 404 759 c 0,26,27
EndSplineSet
EndChar

StartChar: OAcute
Encoding: 211 211 166
Width: 600
Flags: W
LayerCount: 2
Fore
SplineSet
560 335 m 0,0,1
 560 472 560 472 504 566 c 0,2,3
 436 677 436 677 307 677 c 256,4,5
 178 677 178 677 104 576 c 0,6,7
 39 487 39 487 39 352 c 0,8,9
 39 202 39 202 92 110 c 0,10,11
 158 -3 158 -3 297 -3 c 0,12,13
 560 -3 560 -3 560 335 c 0,0,1
473 338 m 0,14,15
 473 231 473 231 440 167 c 0,16,17
 397 79 397 79 302 79 c 0,18,19
 120 79 120 79 120 330 c 0,20,21
 120 593 120 593 307 593 c 0,22,23
 394 593 394 593 438 504 c 0,24,25
 473 434 473 434 473 338 c 0,14,15
188 759 m 4,26,27
 188 742 188 742 202.5 727.5 c 132,-1,28
 217 713 217 713 234 713 c 4,29,30
 256 713 256 713 399 857 c 4,31,32
 409 867 409 867 409 880 c 4,33,34
 409 897 409 897 395 911.5 c 132,-1,35
 381 926 381 926 364 926 c 4,36,37
 338 926 338 926 196 778 c 4,38,39
 188 770 188 770 188 759 c 4,26,27
EndSplineSet
EndChar

StartChar: OCircumflex
Encoding: 212 212 167
Width: 600
Flags: W
LayerCount: 2
Fore
SplineSet
560 335 m 0,0,1
 560 472 560 472 504 566 c 0,2,3
 436 677 436 677 307 677 c 256,4,5
 178 677 178 677 104 576 c 0,6,7
 39 487 39 487 39 352 c 0,8,9
 39 202 39 202 92 110 c 0,10,11
 158 -3 158 -3 297 -3 c 0,12,13
 560 -3 560 -3 560 335 c 0,0,1
473 338 m 0,14,15
 473 231 473 231 440 167 c 0,16,17
 397 79 397 79 302 79 c 0,18,19
 120 79 120 79 120 330 c 0,20,21
 120 593 120 593 307 593 c 0,22,23
 394 593 394 593 438 504 c 0,24,25
 473 434 473 434 473 338 c 0,14,15
448 755 m 0,26,27
 448 763 448 763 443 768 c 0,28,29
 317 921 317 921 302 921 c 256,30,31
 287 921 287 921 218 843 c 128,-1,32
 149 765 149 765 149 751 c 0,33,34
 149 733 149 733 163 719 c 128,-1,35
 177 705 177 705 195 705 c 0,36,37
 216 705 216 705 253 745 c 2,38,-1
 301 799 l 1,39,40
 312 785 312 785 324 772 c 128,-1,41
 336 759 336 759 348 745 c 0,42,43
 385 705 385 705 402 705 c 256,44,45
 419 705 419 705 433.5 721 c 128,-1,46
 448 737 448 737 448 755 c 0,26,27
EndSplineSet
EndChar

StartChar: OTilde
Encoding: 213 213 168
Width: 600
Flags: W
LayerCount: 2
Fore
SplineSet
560 335 m 0,0,1
 560 472 560 472 504 566 c 0,2,3
 436 677 436 677 307 677 c 256,4,5
 178 677 178 677 104 576 c 0,6,7
 39 487 39 487 39 352 c 0,8,9
 39 202 39 202 92 110 c 0,10,11
 158 -3 158 -3 297 -3 c 0,12,13
 560 -3 560 -3 560 335 c 0,0,1
473 338 m 0,14,15
 473 231 473 231 440 167 c 0,16,17
 397 79 397 79 302 79 c 0,18,19
 120 79 120 79 120 330 c 0,20,21
 120 593 120 593 307 593 c 0,22,23
 394 593 394 593 438 504 c 0,24,25
 473 434 473 434 473 338 c 0,14,15
480 847 m 0,26,27
 480 889 480 889 455 889 c 0,28,29
 441 889 441 889 431 871 c 0,30,31
 414 845 414 845 408 839 c 0,32,33
 388 822 388 822 357 822 c 0,34,35
 328 822 328 822 279 850 c 128,-1,36
 230 878 230 878 202 878 c 0,37,38
 172 878 172 878 144 854 c 0,39,40
 115 831 115 831 115 803 c 0,41,42
 115 791 115 791 123 773 c 0,43,44
 132 757 132 757 146 757 c 0,45,46
 147 758 147 758 152.5 764 c 128,-1,47
 158 770 158 770 169 782 c 0,48,49
 183 799 183 799 196 799 c 0,50,51
 222 799 222 799 280 773 c 128,-1,52
 338 747 338 747 364 747 c 0,53,54
 409 747 409 747 433 762.5 c 128,-1,55
 457 778 457 778 473 820 c 0,56,57
 480 834 480 834 480 847 c 0,26,27
EndSplineSet
EndChar

StartChar: Ugrave
Encoding: 217 217 169
Width: 600
Flags: W
LayerCount: 2
Fore
SplineSet
298 -2 m 0,0,1
 514 -2 514 -2 514 185 c 2,2,-1
 514 634 l 2,3,4
 514 653 514 653 499 665 c 128,-1,5
 484 677 484 677 464 677 c 0,6,7
 449 677 449 677 438 661.5 c 128,-1,8
 427 646 427 646 427 631 c 2,9,-1
 427 213 l 2,10,11
 427 131 427 131 394.5 105 c 128,-1,12
 362 79 362 79 297 79 c 0,13,14
 238 79 238 79 205.5 111 c 128,-1,15
 173 143 173 143 173 213 c 2,16,-1
 173 637 l 2,17,18
 173 678 173 678 134 678 c 0,19,20
 123 678 123 678 114 679 c 128,-1,21
 105 680 105 680 99 677 c 128,-1,22
 93 674 93 674 89.5 665 c 128,-1,23
 86 656 86 656 86 637 c 2,24,-1
 86 185 l 2,25,26
 86 122 86 122 129.5 60 c 128,-1,27
 173 -2 173 -2 298 -2 c 0,0,1
404 759 m 0,28,29
 404 771 404 771 397 778 c 0,30,31
 253 927 253 927 228 927 c 0,32,33
 213 927 213 927 200.5 914 c 128,-1,34
 188 901 188 901 188 886 c 0,35,36
 188 873 188 873 199 862 c 0,37,38
 340 713 340 713 358 713 c 0,39,40
 375 713 375 713 389.5 727.5 c 128,-1,41
 404 742 404 742 404 759 c 0,28,29
EndSplineSet
EndChar

StartChar: Uacute
Encoding: 218 218 170
Width: 600
Flags: W
LayerCount: 2
Fore
SplineSet
298 -2 m 0,0,1
 514 -2 514 -2 514 185 c 2,2,-1
 514 634 l 2,3,4
 514 653 514 653 499 665 c 128,-1,5
 484 677 484 677 464 677 c 0,6,7
 449 677 449 677 438 661.5 c 128,-1,8
 427 646 427 646 427 631 c 2,9,-1
 427 213 l 2,10,11
 427 131 427 131 394.5 105 c 128,-1,12
 362 79 362 79 297 79 c 0,13,14
 238 79 238 79 205.5 111 c 128,-1,15
 173 143 173 143 173 213 c 2,16,-1
 173 637 l 2,17,18
 173 678 173 678 134 678 c 0,19,20
 123 678 123 678 114 679 c 128,-1,21
 105 680 105 680 99 677 c 128,-1,22
 93 674 93 674 89.5 665 c 128,-1,23
 86 656 86 656 86 637 c 2,24,-1
 86 185 l 2,25,26
 86 122 86 122 129.5 60 c 128,-1,27
 173 -2 173 -2 298 -2 c 0,0,1
188 759 m 0,28,29
 188 742 188 742 202.5 727.5 c 128,-1,30
 217 713 217 713 234 713 c 0,31,32
 256 713 256 713 399 857 c 0,33,34
 409 867 409 867 409 880 c 0,35,36
 409 897 409 897 395 911.5 c 128,-1,37
 381 926 381 926 364 926 c 0,38,39
 338 926 338 926 196 778 c 0,40,41
 188 770 188 770 188 759 c 0,28,29
EndSplineSet
EndChar

StartChar: Ucircumflex
Encoding: 219 219 171
Width: 600
Flags: W
LayerCount: 2
Fore
SplineSet
298 -2 m 0,0,1
 514 -2 514 -2 514 185 c 2,2,-1
 514 634 l 2,3,4
 514 653 514 653 499 665 c 128,-1,5
 484 677 484 677 464 677 c 0,6,7
 449 677 449 677 438 661.5 c 128,-1,8
 427 646 427 646 427 631 c 2,9,-1
 427 213 l 2,10,11
 427 131 427 131 394.5 105 c 128,-1,12
 362 79 362 79 297 79 c 0,13,14
 238 79 238 79 205.5 111 c 128,-1,15
 173 143 173 143 173 213 c 2,16,-1
 173 637 l 2,17,18
 173 678 173 678 134 678 c 0,19,20
 123 678 123 678 114 679 c 128,-1,21
 105 680 105 680 99 677 c 128,-1,22
 93 674 93 674 89.5 665 c 128,-1,23
 86 656 86 656 86 637 c 2,24,-1
 86 185 l 2,25,26
 86 122 86 122 129.5 60 c 128,-1,27
 173 -2 173 -2 298 -2 c 0,0,1
448 755 m 0,28,29
 448 763 448 763 443 768 c 0,30,31
 317 921 317 921 302 921 c 256,32,33
 287 921 287 921 218 843 c 128,-1,34
 149 765 149 765 149 751 c 0,35,36
 149 733 149 733 163 719 c 128,-1,37
 177 705 177 705 195 705 c 0,38,39
 216 705 216 705 253 745 c 2,40,-1
 301 799 l 1,41,42
 312 785 312 785 324 772 c 128,-1,43
 336 759 336 759 348 745 c 0,44,45
 385 705 385 705 402 705 c 256,46,47
 419 705 419 705 433.5 721 c 128,-1,48
 448 737 448 737 448 755 c 0,28,29
EndSplineSet
EndChar

StartChar: Agrave
Encoding: 192 192 172
Width: 600
Flags: W
LayerCount: 2
Fore
SplineSet
533 27 m 0,0,1
 533 39 533 39 449 313 c 0,2,3
 406 449 406 449 380 530 c 128,-1,4
 354 611 354 611 343 640 c 0,5,6
 328 681 328 681 304 681 c 0,7,8
 277 681 277 681 262 636 c 0,9,10
 229 538 229 538 157 312 c 1,11,12
 67 50 67 50 67 27 c 0,13,14
 67 -6 67 -6 108 -6 c 0,15,16
 142 -6 142 -6 154 29 c 2,17,-1
 213 193 l 1,18,-1
 390 193 l 1,19,-1
 443 26 l 2,20,21
 453 -4 453 -4 491 -4 c 0,22,23
 533 -4 533 -4 533 27 c 0,0,1
371 280 m 1,24,-1
 238 280 l 1,25,-1
 303 501 l 1,26,-1
 371 280 l 1,24,-1
404 759 m 4,27,28
 404 771 404 771 397 778 c 4,29,30
 253 927 253 927 228 927 c 4,31,32
 213 927 213 927 200.5 914 c 132,-1,33
 188 901 188 901 188 886 c 4,34,35
 188 873 188 873 199 862 c 4,36,37
 340 713 340 713 358 713 c 4,38,39
 375 713 375 713 389.5 727.5 c 132,-1,40
 404 742 404 742 404 759 c 4,27,28
EndSplineSet
EndChar

StartChar: Aacute
Encoding: 193 193 173
Width: 600
Flags: W
LayerCount: 2
Fore
SplineSet
533 27 m 0,0,1
 533 39 533 39 449 313 c 0,2,3
 406 449 406 449 380 530 c 128,-1,4
 354 611 354 611 343 640 c 0,5,6
 328 681 328 681 304 681 c 0,7,8
 277 681 277 681 262 636 c 0,9,10
 229 538 229 538 157 312 c 1,11,12
 67 50 67 50 67 27 c 0,13,14
 67 -6 67 -6 108 -6 c 0,15,16
 142 -6 142 -6 154 29 c 2,17,-1
 213 193 l 1,18,-1
 390 193 l 1,19,-1
 443 26 l 2,20,21
 453 -4 453 -4 491 -4 c 0,22,23
 533 -4 533 -4 533 27 c 0,0,1
371 280 m 1,24,-1
 238 280 l 1,25,-1
 303 501 l 1,26,-1
 371 280 l 1,24,-1
188 766 m 4,27,28
 188 749 188 749 202.5 734.5 c 132,-1,29
 217 720 217 720 234 720 c 4,30,31
 256 720 256 720 399 864 c 4,32,33
 409 874 409 874 409 887 c 4,34,35
 409 904 409 904 395 918.5 c 132,-1,36
 381 933 381 933 364 933 c 4,37,38
 338 933 338 933 196 785 c 4,39,40
 188 777 188 777 188 766 c 4,27,28
EndSplineSet
EndChar

StartChar: Acircumflex
Encoding: 194 194 174
Width: 600
Flags: W
LayerCount: 2
Fore
SplineSet
533 27 m 0,0,1
 533 39 533 39 449 313 c 0,2,3
 406 449 406 449 380 530 c 128,-1,4
 354 611 354 611 343 640 c 0,5,6
 328 681 328 681 304 681 c 0,7,8
 277 681 277 681 262 636 c 0,9,10
 229 538 229 538 157 312 c 1,11,12
 67 50 67 50 67 27 c 0,13,14
 67 -6 67 -6 108 -6 c 0,15,16
 142 -6 142 -6 154 29 c 2,17,-1
 213 193 l 1,18,-1
 390 193 l 1,19,-1
 443 26 l 2,20,21
 453 -4 453 -4 491 -4 c 0,22,23
 533 -4 533 -4 533 27 c 0,0,1
371 280 m 1,24,-1
 238 280 l 1,25,-1
 303 501 l 1,26,-1
 371 280 l 1,24,-1
448 755 m 0,27,28
 448 763 448 763 443 768 c 0,29,30
 317 921 317 921 302 921 c 256,31,32
 287 921 287 921 218 843 c 128,-1,33
 149 765 149 765 149 751 c 0,34,35
 149 733 149 733 163 719 c 128,-1,36
 177 705 177 705 195 705 c 0,37,38
 216 705 216 705 253 745 c 2,39,-1
 301 799 l 1,40,41
 312 785 312 785 324 772 c 128,-1,42
 336 759 336 759 348 745 c 0,43,44
 385 705 385 705 402 705 c 256,45,46
 419 705 419 705 433.5 721 c 128,-1,47
 448 737 448 737 448 755 c 0,27,28
EndSplineSet
EndChar

StartChar: Atilde
Encoding: 195 195 175
Width: 600
Flags: W
LayerCount: 2
Fore
SplineSet
533 27 m 0,0,1
 533 39 533 39 449 313 c 0,2,3
 406 449 406 449 380 530 c 128,-1,4
 354 611 354 611 343 640 c 0,5,6
 328 681 328 681 304 681 c 0,7,8
 277 681 277 681 262 636 c 0,9,10
 229 538 229 538 157 312 c 1,11,12
 67 50 67 50 67 27 c 0,13,14
 67 -6 67 -6 108 -6 c 0,15,16
 142 -6 142 -6 154 29 c 2,17,-1
 213 193 l 1,18,-1
 390 193 l 1,19,-1
 443 26 l 2,20,21
 453 -4 453 -4 491 -4 c 0,22,23
 533 -4 533 -4 533 27 c 0,0,1
371 280 m 1,24,-1
 238 280 l 1,25,-1
 303 501 l 1,26,-1
 371 280 l 1,24,-1
480 847 m 0,27,28
 480 889 480 889 455 889 c 0,29,30
 441 889 441 889 431 871 c 0,31,32
 414 845 414 845 408 839 c 0,33,34
 388 822 388 822 357 822 c 0,35,36
 328 822 328 822 279 850 c 128,-1,37
 230 878 230 878 202 878 c 0,38,39
 172 878 172 878 144 854 c 0,40,41
 115 831 115 831 115 803 c 0,42,43
 115 791 115 791 123 773 c 0,44,45
 132 757 132 757 146 757 c 0,46,47
 147 758 147 758 152.5 764 c 128,-1,48
 158 770 158 770 169 782 c 0,49,50
 183 799 183 799 196 799 c 0,51,52
 222 799 222 799 280 773 c 128,-1,53
 338 747 338 747 364 747 c 0,54,55
 409 747 409 747 433 762.5 c 128,-1,56
 457 778 457 778 473 820 c 0,57,58
 480 834 480 834 480 847 c 0,27,28
EndSplineSet
EndChar

StartChar: ordmasculine
Encoding: 186 186 176
Width: 600
Flags: W
LayerCount: 2
Fore
SplineSet
210 757 m 0,0,1
 134 757 134 757 89 705 c 0,2,3
 45 653 45 653 42 579 c 0,4,5
 40 499 40 499 86 448 c 0,6,7
 134 392 134 392 215 394 c 0,8,9
 303 395 303 395 340.5 443 c 128,-1,10
 378 491 378 491 382 576 c 0,11,12
 384 619 384 619 372.5 651 c 128,-1,13
 361 683 361 683 337 707 c 0,14,15
 287 759 287 759 210 757 c 0,0,1
208 677 m 0,16,17
 229 677 229 677 246 669 c 128,-1,18
 263 661 263 661 275.5 647 c 128,-1,19
 288 633 288 633 295.5 614.5 c 128,-1,20
 303 596 303 596 303 575 c 0,21,22
 304 535 304 535 283 506 c 128,-1,23
 262 477 262 477 215 475 c 0,24,25
 171 473 171 473 147 502 c 0,26,27
 121 536 121 536 121 576 c 0,28,29
 121 617 121 617 144 646 c 0,30,31
 168 677 168 677 208 677 c 0,16,17
EndSplineSet
EndChar

StartChar: Ecircumflex
Encoding: 202 202 177
Width: 600
Flags: W
LayerCount: 2
Fore
SplineSet
444 0 m 2,0,1
 484 0 484 0 484 44 c 0,2,3
 484 65 484 65 444 87 c 1,4,-1
 202 87 l 1,5,-1
 202 308 l 1,6,-1
 354 308 l 2,7,8
 374 308 374 308 384 316.5 c 128,-1,9
 394 325 394 325 394 349 c 0,10,11
 394 395 394 395 358 395 c 2,12,-1
 202 395 l 1,13,-1
 202 584 l 1,14,-1
 442 584 l 2,15,16
 480 584 480 584 480 627 c 0,17,18
 480 671 480 671 441 671 c 2,19,-1
 200 670 l 2,20,21
 157 669 157 669 136 647 c 128,-1,22
 115 625 115 625 115 584 c 2,23,-1
 115 87 l 2,24,25
 115 48 115 48 138.5 24 c 128,-1,26
 162 0 162 0 201 0 c 2,27,-1
 444 0 l 2,0,1
448 755 m 0,28,29
 448 763 448 763 443 768 c 0,30,31
 317 921 317 921 302 921 c 256,32,33
 287 921 287 921 218 843 c 128,-1,34
 149 765 149 765 149 751 c 0,35,36
 149 733 149 733 163 719 c 128,-1,37
 177 705 177 705 195 705 c 0,38,39
 216 705 216 705 253 745 c 2,40,-1
 301 799 l 1,41,42
 312 785 312 785 324 772 c 128,-1,43
 336 759 336 759 348 745 c 0,44,45
 385 705 385 705 402 705 c 256,46,47
 419 705 419 705 433.5 721 c 128,-1,48
 448 737 448 737 448 755 c 0,28,29
EndSplineSet
EndChar

StartChar: Edieresis
Encoding: 203 203 178
Width: 600
Flags: W
LayerCount: 2
Fore
SplineSet
444 0 m 2,0,1
 484 0 484 0 484 44 c 0,2,3
 484 65 484 65 444 87 c 1,4,-1
 202 87 l 1,5,-1
 202 308 l 1,6,-1
 354 308 l 2,7,8
 374 308 374 308 384 316.5 c 128,-1,9
 394 325 394 325 394 349 c 0,10,11
 394 395 394 395 358 395 c 2,12,-1
 202 395 l 1,13,-1
 202 584 l 1,14,-1
 442 584 l 2,15,16
 480 584 480 584 480 627 c 0,17,18
 480 671 480 671 441 671 c 2,19,-1
 200 670 l 2,20,21
 157 669 157 669 136 647 c 128,-1,22
 115 625 115 625 115 584 c 2,23,-1
 115 87 l 2,24,25
 115 48 115 48 138.5 24 c 128,-1,26
 162 0 162 0 201 0 c 2,27,-1
 444 0 l 2,0,1
230 793 m 0,28,29
 230 807 230 807 223.5 820.5 c 128,-1,30
 217 834 217 834 206.5 844.5 c 128,-1,31
 196 855 196 855 183 861.5 c 128,-1,32
 170 868 170 868 156 868 c 0,33,34
 131 868 131 868 106.5 842.5 c 128,-1,35
 82 817 82 817 82 793 c 0,36,37
 82 767 82 767 106 743 c 128,-1,38
 130 719 130 719 156 719 c 0,39,40
 171 719 171 719 184 725 c 128,-1,41
 197 731 197 731 207.5 741.5 c 128,-1,42
 218 752 218 752 224 765 c 128,-1,43
 230 778 230 778 230 793 c 0,28,29
512 793 m 0,44,45
 512 807 512 807 505.5 820.5 c 128,-1,46
 499 834 499 834 488.5 844.5 c 128,-1,47
 478 855 478 855 465 861.5 c 128,-1,48
 452 868 452 868 438 868 c 0,49,50
 413 868 413 868 388.5 842.5 c 128,-1,51
 364 817 364 817 364 793 c 0,52,53
 364 767 364 767 388 743 c 128,-1,54
 412 719 412 719 438 719 c 0,55,56
 453 719 453 719 466 725 c 128,-1,57
 479 731 479 731 489.5 741.5 c 128,-1,58
 500 752 500 752 506 765 c 128,-1,59
 512 778 512 778 512 793 c 0,44,45
EndSplineSet
EndChar

StartChar: FL2020h
Encoding: 8224 8224 179
Width: 600
Flags: W
LayerCount: 2
Fore
SplineSet
334 0 m 2,0,-1
 337 419 l 1,1,-1
 476 418 l 2,2,3
 481 417 481 417 492 419 c 1,4,5
 506 433 506 433 509.5 441.5 c 128,-1,6
 513 450 513 450 512 457 c 2,7,-1
 512 459 l 2,8,9
 513 464 513 464 511 472 c 0,10,11
 507 480 507 480 505 486 c 0,12,13
 497 498 497 498 478 498 c 2,14,-1
 334 499 l 1,15,16
 335 522 335 522 335 543 c 256,17,18
 335 564 335 564 335 583 c 0,19,20
 335 589 335 589 335 599 c 0,21,22
 335 610 335 610 334 624 c 2,23,-1
 334 670 l 2,24,25
 334 691 334 691 321 700 c 0,26,27
 308 710 308 710 291 710 c 256,28,29
 274 710 274 710 261 699 c 128,-1,30
 248 688 248 688 248 670 c 2,31,-1
 248 498 l 1,32,-1
 128 498 l 2,33,34
 114 498 114 498 99 486 c 0,35,36
 94 479 94 479 91 471 c 0,37,38
 87 463 87 463 87 457 c 0,39,40
 87 449 87 449 91 441 c 0,41,42
 92 436 92 436 97 428 c 0,43,44
 101 423 101 423 109 419 c 0,45,46
 119 417 119 417 126 418 c 2,47,-1
 248 419 l 1,48,-1
 248 0 l 2,49,50
 248 -16 248 -16 261 -41 c 0,51,52
 275 -60 275 -60 292 -58 c 0,53,54
 307 -58 307 -58 321 -46 c 0,55,56
 326 -42 326 -42 331 -26 c 0,57,58
 334 -16 334 -16 334 0 c 2,0,-1
EndSplineSet
EndChar

StartChar: FL2021h
Encoding: 8225 8225 180
Width: 600
Flags: W
LayerCount: 2
Fore
SplineSet
250 300 m 1,0,-1
 170 300 l 2,1,2
 154 300 154 300 148 284 c 0,3,4
 139 270 139 270 140 255 c 0,5,6
 141 213 141 213 168 213 c 2,7,-1
 250 213 l 1,8,-1
 250 21 l 2,9,10
 250 3 250 3 260.5 -13.5 c 128,-1,11
 271 -30 271 -30 292 -30 c 0,12,13
 297 -30 297 -30 307 -28 c 0,14,15
 310 -26 310 -26 313.5 -23.5 c 128,-1,16
 317 -21 317 -21 321 -19 c 0,17,18
 337 -6 337 -6 337 21 c 2,19,-1
 336 213 l 1,20,-1
 412 213 l 2,21,22
 427 213 427 213 436 225 c 0,23,24
 440 232 440 232 441.5 239.5 c 128,-1,25
 443 247 443 247 444 255 c 0,26,27
 444 300 444 300 408 300 c 2,28,-1
 336 300 l 1,29,-1
 337 447 l 1,30,-1
 475 446 l 2,31,32
 481 445 481 445 491 448 c 0,33,34
 505 453 505 453 509 468 c 0,35,36
 512 474 512 474 512 485 c 2,37,-1
 512 487 l 2,38,39
 512 494 512 494 510 500 c 0,40,41
 505 517 505 517 493 521 c 0,42,43
 485 525 485 525 478 525 c 2,44,-1
 336 527 l 1,45,-1
 336 699 l 2,46,47
 336 698 336 698 338 700 c 0,48,49
 338 702 338 702 333 714 c 1,50,-1
 333 716 l 2,51,52
 333 735 333 735 292 735 c 0,53,54
 276 735 276 735 265 731 c 0,55,56
 263 729 263 729 260.5 726.5 c 128,-1,57
 258 724 258 724 256 720 c 0,58,59
 250 712 250 712 250 710 c 2,60,-1
 250 525 l 1,61,-1
 128 525 l 2,62,63
 120 525 120 525 113 521 c 0,64,65
 107 520 107 520 99 514 c 0,66,67
 87 500 87 500 87 485 c 0,68,69
 87 475 87 475 96 456 c 0,70,71
 106 444 106 444 125 446 c 2,72,-1
 250 447 l 1,73,-1
 250 300 l 1,0,-1
EndSplineSet
EndChar

StartChar: FL00ABh
Encoding: 171 171 181
Width: 600
Flags: W
LayerCount: 2
Fore
SplineSet
256 458 m 2,0,-1
 75 309 l 2,1,2
 57 293 57 293 47 279 c 0,3,4
 36 268 36 268 36 259 c 0,5,6
 38 246 38 246 50 234 c 0,7,8
 54 229 54 229 72 214 c 2,9,-1
 249 63 l 2,10,11
 260 53 260 53 272 53 c 0,12,13
 277 53 277 53 279 54 c 0,14,15
 308 63 308 63 308 97 c 2,16,-1
 308 101 l 2,17,18
 306 118 306 118 289 134 c 2,19,-1
 159 259 l 1,20,-1
 294 378 l 2,21,22
 312 395 312 395 314 412 c 2,23,-1
 315 422 l 2,24,25
 315 456 315 456 287 465 c 0,26,27
 279 467 279 467 277 467 c 0,28,29
 266 467 266 467 256 458 c 2,0,-1
506 458 m 2,30,-1
 325 309 l 2,31,32
 303 288 303 288 296 279 c 0,33,34
 287 268 287 268 287 259 c 0,35,36
 287 251 287 251 298 238 c 0,37,38
 305 229 305 229 322 214 c 2,39,-1
 499 63 l 2,40,41
 509 53 509 53 522 53 c 0,42,43
 527 53 527 53 530 54 c 0,44,45
 543 58 543 58 552 70 c 0,46,47
 558 80 558 80 558 96 c 2,48,-1
 558 101 l 2,49,50
 556 117 556 117 540 134 c 2,51,-1
 410 259 l 1,52,-1
 544 378 l 2,53,54
 561 395 561 395 564 412 c 2,55,-1
 564 419 l 2,56,57
 564 435 564 435 556 448 c 128,-1,58
 548 461 548 461 537 465 c 0,59,60
 533 467 533 467 527 467 c 0,61,62
 516 467 516 467 506 458 c 2,30,-1
EndSplineSet
EndChar

StartChar: FL00BBh
Encoding: 187 187 182
Width: 600
Flags: W
LayerCount: 2
Fore
SplineSet
343 444 m 2,0,1
 334 452 334 452 323 452 c 0,2,3
 318 452 318 452 315 451 c 0,4,5
 287 441 287 441 287 411 c 0,6,7
 287 408 287 408 287 404 c 0,8,9
 287 401 287 401 288 397 c 0,10,11
 290 377 290 377 305 364 c 2,12,-1
 439 244 l 1,13,-1
 309 120 l 2,14,15
 295 106 295 106 293 85 c 2,16,-1
 293 81 l 2,17,18
 293 46 293 46 322 39 c 2,19,-1
 327 38 l 2,20,21
 337 38 337 38 350 49 c 2,22,-1
 527 200 l 2,23,24
 540 211 540 211 547 217 c 128,-1,25
 554 223 554 223 555 224 c 0,26,27
 564 234 564 234 564 244 c 0,28,29
 564 261 564 261 524 294 c 2,30,-1
 343 444 l 2,0,1
93 444 m 2,31,32
 84 452 84 452 73 452 c 0,33,34
 68 452 68 452 65 451 c 0,35,36
 36 439 36 439 36 406 c 2,37,-1
 37 397 l 2,38,39
 38 377 38 377 55 364 c 2,40,-1
 189 244 l 1,41,-1
 59 120 l 2,42,43
 45 107 45 107 43 85 c 2,44,-1
 43 81 l 2,45,46
 43 46 43 46 72 39 c 2,47,-1
 77 38 l 2,48,49
 86 38 86 38 100 49 c 2,50,-1
 277 200 l 2,51,52
 299 219 299 219 304 224 c 0,53,54
 313 233 313 233 313 244 c 2,55,-1
 313 246 l 2,56,57
 313 257 313 257 304.5 266.5 c 128,-1,58
 296 276 296 276 274 294 c 2,59,-1
 93 444 l 2,31,32
EndSplineSet
EndChar

StartChar: FL2014h
Encoding: 8212 8212 183
Width: 600
Flags: W
LayerCount: 2
Fore
SplineSet
43 366 m 6,0,1
 26 366 26 366 16 350.5 c 132,-1,2
 6 335 6 335 0 319 c 5,3,4
 5 272 5 272 44 279 c 5,5,-1
 553 279 l 5,6,7
 574 272 574 272 584.5 286.5 c 132,-1,8
 595 301 595 301 599 319 c 5,9,10
 594 339 594 339 580 353 c 132,-1,11
 566 367 566 367 548 365 c 6,12,-1
 43 366 l 6,0,1
EndSplineSet
EndChar

StartChar: FL2022h
Encoding: 8226 8226 184
Width: 600
Flags: W
LayerCount: 2
Fore
SplineSet
301 452 m 0,0,1
 220 452 220 452 162 394 c 0,2,3
 138 370 138 370 120.5 331 c 128,-1,4
 103 292 103 292 103 256 c 0,5,6
 103 218 103 218 120 178 c 0,7,8
 152 106 152 106 225 74 c 0,9,10
 259 60 259 60 301 60 c 0,11,12
 364 60 364 60 411.5 92 c 128,-1,13
 459 124 459 124 482 178 c 0,14,15
 496 212 496 212 496 256 c 0,16,17
 496 297 496 297 482 331 c 0,18,19
 450 405 450 405 378 436 c 0,20,21
 345 452 345 452 301 452 c 0,0,1
EndSplineSet
EndChar

StartChar: FL2013h
Encoding: 8211 8211 185
Width: 600
Flags: W
LayerCount: 2
Fore
SplineSet
503 322 m 0,0,1
 503 339 503 339 491 352.5 c 128,-1,2
 479 366 479 366 467 366 c 2,3,-1
 143 366 l 2,4,5
 114 366 114 366 105.5 351 c 128,-1,6
 97 336 97 336 97 321 c 0,7,8
 97 277 97 277 146 277 c 0,9,10
 153 277 153 277 168.5 278 c 128,-1,11
 184 279 184 279 303.5 279 c 128,-1,12
 423 279 423 279 467 279 c 1,13,14
 503 283 503 283 503 322 c 0,0,1
EndSplineSet
EndChar

StartChar: FL02DCh
Encoding: 732 732 186
Width: 600
GlyphClass: 2
Flags: W
LayerCount: 2
Fore
SplineSet
511 721 m 0,0,1
 511 679 511 679 476 646 c 0,2,3
 443 615 443 615 396 615 c 0,4,5
 340 615 340 615 275 656 c 0,6,7
 228 686 228 686 207 686 c 0,8,9
 178 686 178 686 159 654 c 0,10,11
 146 631 146 631 124 631 c 0,12,13
 89 631 89 631 89 669 c 0,14,15
 89 709 89 709 125 743 c 0,16,17
 151 768 151 768 206 768 c 0,18,19
 255 768 255 768 320 724 c 0,20,21
 370 690 370 690 399 690 c 0,22,23
 431 690 431 690 452 728 c 0,24,25
 474 768 474 768 490 768 c 0,26,27
 511 768 511 768 511 721 c 0,0,1
EndSplineSet
EndChar

StartChar: FL02C6h
Encoding: 710 710 187
Width: 600
Flags: W
LayerCount: 2
Fore
SplineSet
449 561 m 2,0,-1
 344 718 l 1,1,2
 317 748 317 748 298 749 c 0,3,4
 277 750 277 750 257 721 c 2,5,-1
 148 563 l 2,6,7
 139 549 139 549 146 536 c 0,8,9
 157 510 157 510 190 513 c 0,10,11
 203 514 203 514 214 531 c 2,12,-1
 298 651 l 1,13,-1
 375 531 l 2,14,15
 386 516 386 516 401 513 c 0,16,17
 437 508 437 508 452 535 c 0,18,19
 460 546 460 546 449 561 c 2,0,-1
EndSplineSet
EndChar

StartChar: AltFdef
Encoding: 402 402 188
Width: 600
Flags: W
LayerCount: 2
Fore
SplineSet
520 601 m 0,0,1
 510 619 510 619 471 636 c 0,2,3
 429 653 429 653 379 653 c 2,4,-1
 371 653 l 2,5,6
 325 652 325 652 296.5 624 c 128,-1,7
 268 596 268 596 254 558 c 0,8,9
 247 541 247 541 242.5 520 c 128,-1,10
 238 499 238 499 234 476 c 0,11,12
 224 421 224 421 220.5 402.5 c 128,-1,13
 217 384 217 384 212 364 c 1,14,-1
 165 364 l 2,15,16
 149 364 149 364 140 350 c 0,17,18
 128 336 128 336 125 321 c 0,19,20
 124 317 124 317 124 313 c 0,21,22
 124 310 124 310 124 307 c 0,23,24
 124 279 124 279 150 279 c 2,25,-1
 198 279 l 1,26,-1
 156 32 l 2,27,28
 152 12 152 12 147.5 -6 c 128,-1,29
 143 -24 143 -24 137 -39 c 0,30,31
 124 -72 124 -72 82 -113 c 0,32,33
 77 -118 77 -118 77 -124 c 0,34,35
 77 -128 77 -128 78 -130 c 0,36,37
 81 -153 81 -153 116 -155 c 2,38,-1
 120 -155 l 2,39,40
 133 -155 133 -155 150 -146 c 0,41,42
 185 -126 185 -126 212 -68 c 0,43,44
 225 -41 225 -41 231 -18 c 0,45,46
 235 -3 235 -3 237 7.5 c 128,-1,47
 239 18 239 18 241 25 c 2,48,-1
 284 279 l 1,49,-1
 396 279 l 2,50,51
 415 279 415 279 424 291 c 0,52,53
 434 305 434 305 435 321 c 2,54,-1
 436 331 l 2,55,56
 436 364 436 364 409 364 c 2,57,-1
 299 364 l 1,58,59
 306 398 306 398 308 417 c 0,60,61
 326 524 326 524 349 551 c 0,62,63
 361 569 361 569 379 569 c 2,64,-1
 382 569 l 2,65,66
 410 569 410 569 435 553 c 0,67,68
 459 538 459 538 481 534 c 2,69,-1
 486 533 l 2,70,71
 500 533 500 533 510.5 547 c 128,-1,72
 521 561 521 561 523 578 c 2,73,-1
 523 584 l 2,74,75
 523 593 523 593 520 601 c 0,0,1
EndSplineSet
EndChar

StartChar: FL2039h
Encoding: 8249 8249 189
Width: 600
Flags: W
LayerCount: 2
Fore
SplineSet
378 452 m 2,0,-1
 197 302 l 2,1,2
 181 289 181 289 168 273 c 0,3,4
 159 261 159 261 159 252 c 0,5,6
 159 242 159 242 169 231 c 0,7,8
 176 223 176 223 194 208 c 2,9,-1
 371 57 l 2,10,11
 388 43 388 43 402 46 c 0,12,13
 415 50 415 50 423.5 63.5 c 128,-1,14
 432 77 432 77 431 94 c 0,15,16
 429 112 429 112 412 128 c 2,17,-1
 282 252 l 1,18,-1
 416 372 l 2,19,20
 433 388 433 388 436 405 c 0,21,22
 441 447 441 447 409 458 c 0,23,24
 393 464 393 464 378 452 c 2,0,-1
EndSplineSet
EndChar

StartChar: FL203Ah
Encoding: 8250 8250 190
Width: 600
Flags: W
LayerCount: 2
Fore
SplineSet
219 454 m 2,0,1
 204 466 204 466 191 460 c 0,2,3
 159 449 159 449 163 407 c 0,4,5
 164 390 164 390 181 374 c 2,6,-1
 315 254 l 1,7,-1
 185 130 l 2,8,9
 170 115 170 115 169 96 c 0,10,11
 167 57 167 57 197 49 c 0,12,13
 210 46 210 46 226 59 c 2,14,-1
 403 210 l 2,15,16
 425 229 425 229 430 234 c 0,17,18
 439 244 439 244 439 254 c 0,19,20
 441 271 441 271 400 304 c 2,21,-1
 219 454 l 2,0,1
EndSplineSet
EndChar

StartChar: OE
Encoding: 338 338 191
Width: 600
Flags: W
LayerCount: 2
Fore
SplineSet
212 588 m 0,0,1
 283 588 283 588 310 514 c 0,2,3
 324 476 324 476 328 426 c 0,4,5
 329 413 329 413 329.5 391 c 128,-1,6
 330 369 330 369 330 337 c 0,7,8
 331 278 331 278 327 241 c 0,9,10
 316 132 316 132 268 95 c 0,11,12
 245 78 245 78 203 76 c 0,13,14
 131 75 131 75 97 152 c 0,15,16
 70 218 70 218 71 321 c 0,17,18
 72 374 72 374 79.5 418 c 128,-1,19
 87 462 87 462 103 499 c 0,20,21
 142 588 142 588 212 588 c 0,0,1
339 66 m 1,22,23
 344 16 344 16 401 0 c 1,24,-1
 412 0 l 1,25,-1
 549 0 l 2,26,27
 574 0 574 0 588 12 c 0,28,29
 600 25 600 25 600 42 c 0,30,31
 600 58 600 58 587 71 c 0,32,33
 572 87 572 87 546 87 c 2,34,-1
 411 87 l 1,35,-1
 410 309 l 1,36,-1
 490 309 l 2,37,38
 516 309 516 309 530 321 c 0,39,40
 540 334 540 334 540 351 c 0,41,42
 539 369 539 369 525.5 382 c 128,-1,43
 512 395 512 395 493 395 c 2,44,-1
 411 395 l 1,45,-1
 411 583 l 1,46,-1
 550 583 l 2,47,48
 578 583 578 583 589.5 596 c 128,-1,49
 601 609 601 609 600 626 c 0,50,51
 599 646 599 646 583.5 658.5 c 128,-1,52
 568 671 568 671 547 671 c 2,53,-1
 411 671 l 2,54,55
 380 671 380 671 363 664 c 0,56,57
 346 656 346 656 331 622 c 1,58,59
 313 656 313 656 289 664 c 0,60,61
 284 666 284 666 276 667 c 128,-1,62
 268 668 268 668 257 669 c 0,63,64
 238 670 238 670 227 670.5 c 128,-1,65
 216 671 216 671 211 671 c 0,66,67
 105 671 105 671 46 549 c 0,68,69
 35 525 35 525 26 496.5 c 128,-1,70
 17 468 17 468 12 436 c 0,71,72
 5 400 5 400 2 372.5 c 128,-1,73
 -1 345 -1 345 -1 325 c 0,74,75
 -1 310 -1 310 0.5 282.5 c 128,-1,76
 2 255 2 255 4 215 c 0,77,78
 7 157 7 157 24 109 c 0,79,80
 66 -2 66 -2 200 -2 c 0,81,82
 219 -2 219 -2 231 -1.5 c 128,-1,83
 243 -1 243 -1 250 0 c 0,84,85
 268 1 268 1 284.5 10 c 128,-1,86
 301 19 301 19 312 32 c 0,87,88
 317 37 317 37 324 46 c 128,-1,89
 331 55 331 55 339 66 c 1,22,23
EndSplineSet
EndChar

StartChar: FL2030h
Encoding: 8240 8240 192
Width: 600
Flags: W
LayerCount: 2
Fore
SplineSet
268 225 m 0,0,1
 229 225 229 225 201 185 c 128,-1,2
 173 145 173 145 173 92 c 256,3,4
 173 39 173 39 202 -2 c 0,5,6
 229 -40 229 -40 268 -40 c 0,7,8
 309 -40 309 -40 336 -2 c 0,9,10
 363 34 363 34 363 92 c 0,11,12
 363 147 363 147 336 185 c 0,13,14
 308 225 308 225 268 225 c 0,0,1
489 225 m 0,15,16
 452 225 452 225 424 185 c 0,17,18
 394 144 394 144 394 92 c 0,19,20
 394 38 394 38 424 -2 c 0,21,22
 451 -40 451 -40 489 -40 c 0,23,24
 531 -40 531 -40 557 -3 c 128,-1,25
 583 34 583 34 583 92 c 0,26,27
 583 147 583 147 557 185 c 0,28,29
 529 225 529 225 489 225 c 0,15,16
266 151 m 0,30,31
 288 151 288 151 300 130 c 0,32,33
 310 113 310 113 310 89 c 0,34,35
 310 63 310 63 299 44 c 0,36,37
 285 27 285 27 266 27 c 0,38,39
 246 27 246 27 234 49 c 0,40,41
 223 68 223 68 223 89 c 0,42,43
 223 113 223 113 236.5 132 c 128,-1,44
 250 151 250 151 266 151 c 0,30,31
489 151 m 0,45,46
 509 151 509 151 522 132 c 0,47,48
 533 115 533 115 533 89 c 256,49,50
 533 63 533 63 522 44 c 0,51,52
 508 27 508 27 489 27 c 0,53,54
 469 27 469 27 456 49 c 0,55,56
 445 69 445 69 445 89 c 0,57,58
 445 113 445 113 459.5 132 c 128,-1,59
 474 151 474 151 489 151 c 0,45,46
112 658 m 0,60,61
 132 658 132 658 145 636 c 0,62,63
 155 619 155 619 155 596 c 0,64,65
 155 571 155 571 145 555 c 0,66,67
 133 534 133 534 112 534 c 256,68,69
 91 534 91 534 79 555 c 0,70,71
 68 575 68 575 68 596 c 0,72,73
 68 620 68 620 81.5 639 c 128,-1,74
 95 658 95 658 112 658 c 0,60,61
110 731 m 0,75,76
 72 731 72 731 44 691 c 128,-1,77
 16 651 16 651 16 598 c 0,78,79
 16 550 16 550 38 512 c 0,80,81
 67 465 67 465 110 465 c 0,82,83
 150 465 150 465 177 500 c 128,-1,84
 204 535 204 535 206 598 c 0,85,86
 207 645 207 645 184 686 c 0,87,88
 157 731 157 731 110 731 c 0,75,76
277 711 m 2,89,-1
 43 18 l 2,90,91
 37 0 37 0 42 -20 c 0,92,93
 46 -37 46 -37 56 -47 c 0,94,95
 63 -53 63 -53 72 -53 c 0,96,97
 76 -53 76 -53 79 -52 c 0,98,99
 88 -47 88 -47 97 -24 c 2,100,-1
 333 667 l 2,101,102
 340 689 340 689 336 704 c 0,103,104
 331 721 331 721 320.5 729.5 c 128,-1,105
 310 738 310 738 298 734 c 0,106,107
 285 731 285 731 277 711 c 2,89,-1
EndSplineSet
EndChar

StartChar: glyph118
Encoding: 177 177 193
Width: 600
Flags: W
LayerCount: 2
Fore
SplineSet
147 53 m 2,0,1
 126 53 126 53 117 39 c 0,2,3
 106 25 106 25 108 9 c 0,4,5
 110 -33 110 -33 144 -32 c 2,6,-1
 446 -30 l 2,7,8
 465 -30 465 -30 476 -19 c 0,9,10
 487 -3 487 -3 487 10 c 0,11,12
 488 29 488 29 475 41 c 128,-1,13
 462 53 462 53 442 53 c 2,14,-1
 147 53 l 2,0,1
342 486 m 2,15,16
 342 525 342 525 301 527 c 0,17,18
 284 528 284 528 271 518 c 0,19,20
 257 510 257 510 257 492 c 2,21,-1
 257 350 l 1,22,-1
 118 350 l 2,23,24
 104 350 104 350 100 335 c 0,25,26
 94 323 94 323 94 305 c 0,27,28
 94 263 94 263 118 263 c 2,29,-1
 257 263 l 1,30,-1
 255 137 l 2,31,32
 258 100 258 100 301 100 c 0,33,34
 316 100 316 100 331 109 c 0,35,36
 342 118 342 118 342 137 c 2,37,-1
 343 263 l 1,38,-1
 479 263 l 2,39,40
 490 263 490 263 498 275 c 0,41,42
 505 289 505 289 505 305 c 0,43,44
 505 350 505 350 479 350 c 2,45,-1
 343 350 l 1,46,-1
 342 486 l 2,15,16
EndSplineSet
EndChar

StartChar: FL00A4h
Encoding: 164 164 194
Width: 600
Flags: W
LayerCount: 2
Fore
SplineSet
302 357 m 0,0,1
 338 357 338 357 360 329 c 0,2,3
 381 303 381 303 381 266 c 0,4,5
 380 229 380 229 360.5 205 c 128,-1,6
 341 181 341 181 302 181 c 256,7,8
 263 181 263 181 240.5 205 c 128,-1,9
 218 229 218 229 218 269 c 0,10,11
 218 287 218 287 225 303 c 128,-1,12
 232 319 232 319 243.5 331 c 128,-1,13
 255 343 255 343 270 350 c 128,-1,14
 285 357 285 357 302 357 c 0,0,1
221 125 m 1,15,16
 262 92 262 92 300 88 c 0,17,18
 339 83 339 83 368 109 c 1,19,20
 383 86 383 86 394 71 c 128,-1,21
 405 56 405 56 412 48 c 0,22,23
 431 28 431 28 441.5 17 c 128,-1,24
 452 6 452 6 455 4 c 0,25,26
 462 1 462 1 469 1 c 256,27,28
 476 1 476 1 485 4 c 0,29,30
 492 8 492 8 500 16 c 0,31,32
 514 25 514 25 514 43 c 0,33,34
 514 55 514 55 502 73 c 2,35,-1
 433 180 l 1,36,37
 470 226 470 226 469 269 c 0,38,39
 466 313 466 313 443 351 c 1,40,-1
 500 401 l 2,41,42
 524 423 524 423 534 438 c 0,43,44
 543 458 543 458 542 470 c 0,45,46
 543 477 543 477 540 485 c 0,47,48
 531 503 531 503 514 508 c 0,49,50
 504 513 504 513 497 513 c 0,51,52
 488 513 488 513 481 506 c 0,53,54
 451 479 451 479 434 459 c 1,55,56
 407 436 407 436 389 417 c 1,57,58
 379 427 379 427 356 433 c 0,59,60
 332 440 332 440 309 440 c 0,61,62
 285 441 285 441 261 435 c 0,63,64
 238 430 238 430 225 417 c 1,65,66
 215 430 215 430 206 443 c 128,-1,67
 197 456 197 456 187 469 c 0,68,69
 155 508 155 508 145 508 c 0,70,71
 138 508 138 508 130 504 c 0,72,73
 115 498 115 498 108 476 c 0,74,75
 102 465 102 465 102 458 c 0,76,77
 102 447 102 447 115 430 c 0,78,79
 120 423 120 423 135 406 c 0,80,81
 171 365 171 365 171 364 c 0,82,83
 151 332 151 332 147 303 c 0,84,85
 140 276 140 276 143 251 c 0,86,87
 146 219 146 219 164 185 c 1,88,-1
 105 134 l 2,89,90
 97 127 97 127 92 121.5 c 128,-1,91
 87 116 87 116 83 112 c 0,92,93
 77 105 77 105 72.5 100.5 c 128,-1,94
 68 96 68 96 66 94 c 0,95,96
 64 89 64 89 62 79 c 0,97,98
 57 71 57 71 57 65 c 0,99,100
 57 57 57 57 62 49 c 0,101,102
 66 33 66 33 85 25 c 0,103,104
 92 22 92 22 100 22 c 256,105,106
 108 22 108 22 116 25 c 0,107,108
 125 29 125 29 131 37 c 0,109,110
 144 50 144 50 155.5 60.5 c 128,-1,111
 167 71 167 71 177 79 c 0,112,113
 188 90 188 90 195.5 98 c 128,-1,114
 203 106 203 106 207 111 c 2,115,-1
 221 125 l 1,15,16
EndSplineSet
EndChar

StartChar: YDieresis
Encoding: 376 376 195
Width: 600
Flags: W
LayerCount: 2
Fore
SplineSet
528 650 m 1,0,1
 518 678 518 678 500 678 c 0,2,3
 451 678 451 678 438 651 c 2,4,-1
 305 368 l 1,5,-1
 170 653 l 2,6,7
 159 676 159 676 116 676 c 0,8,9
 72 676 72 676 72 657 c 0,10,11
 72 645 72 645 259 272 c 1,12,-1
 257 20 l 2,13,14
 257 -12 257 -12 296 -12 c 0,15,16
 313 -12 313 -12 328 -3 c 0,17,18
 344 4 344 4 344 22 c 2,19,-1
 345 272 l 1,20,-1
 528 650 l 1,0,1
243 824 m 0,21,22
 243 838 243 838 236.5 851.5 c 128,-1,23
 230 865 230 865 219.5 875.5 c 128,-1,24
 209 886 209 886 196 892.5 c 128,-1,25
 183 899 183 899 169 899 c 0,26,27
 144 899 144 899 119.5 873.5 c 128,-1,28
 95 848 95 848 95 824 c 0,29,30
 95 798 95 798 119 774 c 128,-1,31
 143 750 143 750 169 750 c 0,32,33
 184 750 184 750 197 756 c 128,-1,34
 210 762 210 762 220.5 772.5 c 128,-1,35
 231 783 231 783 237 796 c 128,-1,36
 243 809 243 809 243 824 c 0,21,22
525 824 m 0,37,38
 525 838 525 838 518.5 851.5 c 128,-1,39
 512 865 512 865 501.5 875.5 c 128,-1,40
 491 886 491 886 478 892.5 c 128,-1,41
 465 899 465 899 451 899 c 0,42,43
 426 899 426 899 401.5 873.5 c 128,-1,44
 377 848 377 848 377 824 c 0,45,46
 377 798 377 798 401 774 c 128,-1,47
 425 750 425 750 451 750 c 0,48,49
 466 750 466 750 479 756 c 128,-1,50
 492 762 492 762 502.5 772.5 c 128,-1,51
 513 783 513 783 519 796 c 128,-1,52
 525 809 525 809 525 824 c 0,37,38
EndSplineSet
EndChar

StartChar: oe
Encoding: 339 339 196
Width: 600
Flags: W
LayerCount: 2
Fore
SplineSet
281 246 m 0,0,1
 280 202 280 202 271 172 c 128,-1,2
 262 142 262 142 248 123 c 128,-1,3
 234 104 234 104 215.5 96.5 c 128,-1,4
 197 89 197 89 176 90 c 0,5,6
 129 92 129 92 97 134 c 0,7,8
 62 181 62 181 62 242 c 0,9,10
 62 301 62 301 91 351 c 0,11,12
 121 399 121 399 170 399 c 0,13,14
 188 399 188 399 211 390 c 0,15,16
 256 372 256 372 273 316 c 0,17,18
 282 289 282 289 281 246 c 0,0,1
315 70 m 1,19,20
 357 1 357 1 442 0 c 0,21,22
 459 0 459 0 473.5 1 c 128,-1,23
 488 2 488 2 501 4 c 0,24,25
 552 20 552 20 576 46 c 0,26,27
 581 51 581 51 585 57 c 128,-1,28
 589 63 589 63 593 70 c 0,29,30
 608 90 608 90 607 104 c 0,31,32
 604 137 604 137 574 144 c 0,33,34
 561 145 561 145 554 140 c 0,35,36
 543 125 543 125 533.5 114.5 c 128,-1,37
 524 104 524 104 512 97.5 c 128,-1,38
 500 91 500 91 485 88.5 c 128,-1,39
 470 86 470 86 449 87 c 0,40,41
 394 88 394 88 371 125 c 0,42,43
 354 154 354 154 351 213 c 1,44,-1
 549 213 l 2,45,46
 567 213 567 213 578.5 219 c 128,-1,47
 590 225 590 225 597.5 235 c 128,-1,48
 605 245 605 245 607.5 256.5 c 128,-1,49
 610 268 610 268 610 280 c 0,50,51
 605 379 605 379 574 427 c 0,52,53
 533 487 533 487 441 487 c 0,54,55
 399 487 399 487 365 468 c 128,-1,56
 331 449 331 449 309 414 c 1,57,58
 264 488 264 488 171 488 c 0,59,60
 85 488 85 488 35 417 c 0,61,62
 12 384 12 384 2 339 c 0,63,64
 -9 287 -9 287 -9 243 c 0,65,66
 -9 133 -9 133 36 69 c 0,67,68
 61 34 61 34 94.5 17 c 128,-1,69
 128 0 128 0 177 0 c 0,70,71
 273 0 273 0 315 70 c 1,19,20
437 404 m 0,72,73
 457 404 457 404 472 400 c 0,74,75
 486 399 486 399 501 387 c 0,76,77
 529 363 529 363 532 300 c 1,78,-1
 351 300 l 1,79,80
 352 308 352 308 353.5 316.5 c 128,-1,81
 355 325 355 325 359 334 c 0,82,83
 374 375 374 375 404 393 c 0,84,85
 418 404 418 404 437 404 c 0,72,73
EndSplineSet
EndChar

StartChar: FL2122h
Encoding: 8482 8482 197
Width: 600
Flags: W
LayerCount: 2
Fore
SplineSet
260 671 m 2,0,-1
 35 671 l 2,1,2
 21 671 21 671 12.5 657.5 c 128,-1,3
 4 644 4 644 4 629 c 0,4,5
 3 615 3 615 12 601 c 0,6,7
 16 589 16 589 35 589 c 2,8,-1
 104 589 l 1,9,-1
 105 390 l 2,10,11
 105 355 105 355 147 355 c 0,12,13
 163 355 163 355 174.5 363.5 c 128,-1,14
 186 372 186 372 186 390 c 2,15,-1
 185 589 l 1,16,-1
 259 589 l 2,17,18
 278 589 278 589 289 601 c 0,19,20
 297 615 297 615 297 629 c 0,21,22
 297 645 297 645 289 658 c 0,23,24
 279 671 279 671 260 671 c 2,0,-1
376 663 m 2,25,26
 374 667 374 667 365 668 c 0,27,28
 354 672 354 672 341 674 c 0,29,30
 329 675 329 675 318 670 c 0,31,32
 306 667 306 667 306 655 c 2,33,-1
 306 389 l 2,34,35
 306 354 306 354 343 354 c 0,36,37
 378 354 378 354 378 389 c 2,38,-1
 378 503 l 1,39,-1
 423 390 l 2,40,41
 434 364 434 364 449 364 c 0,42,43
 471 364 471 364 480 390 c 2,44,-1
 522 503 l 1,45,-1
 524 380 l 2,46,47
 524 368 524 368 536 361 c 0,48,49
 545 356 545 356 560 354 c 0,50,51
 574 354 574 354 585 360.5 c 128,-1,52
 596 367 596 367 596 382 c 2,53,-1
 596 653 l 2,54,55
 596 667 596 667 584 669 c 0,56,57
 581 670 581 670 574 670 c 0,58,59
 556 670 556 670 535 658 c 0,60,61
 523 653 523 653 522 653 c 2,62,-1
 452 486 l 1,63,-1
 376 663 l 2,25,26
EndSplineSet
EndChar

